<svg width="259" height="300" viewBox="0 0 259 300" fill="none" xmlns="http://www.w3.org/2000/svg">
<path d="M0.158467 285.824C0.158467 285.824 -1.65388 295.526 14.309 296.236C30.2718 296.947 63.1356 297.736 63.1356 297.736L61.0745 276.891L9.90248 273.337L1.72916 279.35L0.158467 285.824Z" fill="#E0E0E0"/>
<path d="M173.127 0H20.7765C14.4962 0 9.40497 5.09122 9.40497 11.3716V288.369C9.40497 294.649 14.4962 299.74 20.7765 299.74H173.127C179.407 299.74 184.499 294.649 184.499 288.369V11.3716C184.499 5.09122 179.407 0 173.127 0Z" fill="#263238"/>
<path d="M19.0495 13.7451H174.847V288.354H22.7523C21.7703 288.354 20.8284 287.964 20.134 287.27C19.4396 286.575 19.0495 285.633 19.0495 284.651V13.7451Z" fill="white"/>
<path d="M112.254 7.19929H78.935C78.4072 7.19929 77.901 6.98962 77.5278 6.61642C77.1546 6.24322 76.9449 5.73705 76.9449 5.20926C76.9449 4.68147 77.1546 4.1753 77.5278 3.8021C77.901 3.4289 78.4072 3.21924 78.935 3.21924H112.254C112.781 3.21924 113.288 3.4289 113.661 3.8021C114.034 4.1753 114.244 4.68147 114.244 5.20926C114.244 5.73705 114.034 6.24322 113.661 6.61642C113.288 6.98962 112.781 7.19929 112.254 7.19929Z" fill="#455A64"/>
<path d="M40.293 43.084V45.0385H40.1366C40.0353 44.58 39.7855 44.1678 39.4259 43.8658C39.1095 43.6005 38.7088 43.4569 38.2959 43.4607C37.9506 43.4579 37.6129 43.5621 37.3293 43.7592C37.0395 43.9545 36.8144 44.2316 36.6825 44.5552C36.4984 45.006 36.4089 45.4898 36.4195 45.9766C36.4139 46.4433 36.4786 46.9081 36.6114 47.3554C36.7081 47.7246 36.9166 48.0548 37.2085 48.3007C37.5146 48.525 37.8883 48.6379 38.2674 48.6205C38.6065 48.6248 38.9412 48.5441 39.2411 48.386C39.6001 48.1776 39.918 47.9054 40.1793 47.5829V48.0662C39.9023 48.3684 39.566 48.6103 39.1914 48.7769C38.8107 48.934 38.4019 49.0114 37.9902 49.0043C37.4334 49.015 36.8823 48.8906 36.384 48.6418C35.9253 48.41 35.5466 48.0461 35.2966 47.5971C35.0525 47.1629 34.9228 46.6737 34.9199 46.1756C34.921 45.6358 35.0657 45.1059 35.3392 44.6405C35.6114 44.169 36.007 43.7808 36.4835 43.5175C36.9503 43.256 37.4765 43.119 38.0116 43.1195C38.4429 43.1277 38.8692 43.2144 39.2695 43.3754C39.4233 43.4462 39.5859 43.4964 39.7528 43.5246C39.7961 43.5255 39.8391 43.5178 39.8794 43.502C39.9196 43.4861 39.9563 43.4624 39.9874 43.4322C40.0603 43.3431 40.1049 43.2342 40.1153 43.1195L40.293 43.084Z" fill="#263238"/>
<path d="M42.6384 43.2192V45.4722C42.8073 45.282 43.0067 45.1211 43.2282 44.996C43.3988 44.9044 43.589 44.8556 43.7826 44.8539C44.0099 44.8481 44.2317 44.9237 44.408 45.0671C44.5726 45.1901 44.6944 45.3616 44.7563 45.5575C44.8263 45.8675 44.855 46.1853 44.8416 46.5028V48.0237C44.8242 48.2121 44.8509 48.4019 44.9198 48.5781C45.0118 48.6663 45.1335 48.717 45.2609 48.7202V48.8695H43.2851V48.7202C43.346 48.7143 43.4051 48.6961 43.4589 48.6668C43.5126 48.6375 43.5599 48.5977 43.5978 48.5497C43.6662 48.3833 43.693 48.2028 43.676 48.0237V46.2753C43.6862 46.073 43.6719 45.8701 43.6334 45.6712C43.6132 45.5948 43.5682 45.5273 43.5054 45.4793C43.4491 45.4338 43.3789 45.4087 43.3064 45.4083C43.1872 45.4118 43.0724 45.4543 42.9795 45.5291C42.8406 45.6379 42.7247 45.7732 42.6384 45.9271V48.0166C42.6229 48.1921 42.6447 48.3689 42.7023 48.5354C42.7402 48.5875 42.7892 48.6304 42.8458 48.6611C42.9023 48.6919 42.965 48.7096 43.0292 48.7131V48.8624H41.0534V48.7131C41.1195 48.7108 41.1844 48.6951 41.2443 48.667C41.3041 48.6389 41.3577 48.599 41.4017 48.5497C41.4691 48.3806 41.4935 48.1974 41.4728 48.0166V44.0579C41.4904 43.8719 41.4636 43.6843 41.3946 43.5106C41.3026 43.4224 41.1809 43.3717 41.0534 43.3685V43.2192H42.6384Z" fill="#263238"/>
<path d="M47.9403 48.2861C47.6021 48.6405 47.1484 48.8623 46.661 48.9116C46.5591 48.9145 46.4577 48.8967 46.3628 48.8592C46.268 48.8218 46.1818 48.7654 46.1093 48.6937C46.0369 48.6219 45.9798 48.5362 45.9415 48.4417C45.9031 48.3472 45.8844 48.2459 45.8864 48.144C45.8897 47.9916 45.9257 47.8417 45.9919 47.7044C46.0581 47.567 46.153 47.4455 46.2702 47.348C46.7815 46.9569 47.3433 46.6365 47.9403 46.3956V46.0047C47.9533 45.8185 47.9366 45.6313 47.8906 45.4504C47.8542 45.3667 47.7919 45.297 47.7129 45.2514C47.6234 45.1954 47.5199 45.1659 47.4144 45.1661C47.2563 45.1597 47.1001 45.2018 46.9667 45.2869C46.9352 45.305 46.909 45.3308 46.8903 45.3619C46.8717 45.393 46.8612 45.4283 46.86 45.4646C46.8713 45.5469 46.9116 45.6226 46.9738 45.6778C47.0677 45.7702 47.1235 45.8945 47.1301 46.026C47.1304 46.0912 47.1173 46.1557 47.0916 46.2157C47.0659 46.2756 47.0283 46.3296 46.9809 46.3743C46.8714 46.4711 46.7289 46.522 46.5829 46.5164C46.4207 46.5191 46.2634 46.4608 46.1422 46.353C46.0873 46.3082 46.0429 46.2518 46.0122 46.188C45.9815 46.1241 45.9652 46.0543 45.9645 45.9834C45.9719 45.7705 46.058 45.5679 46.2062 45.4148C46.3846 45.2179 46.613 45.073 46.8672 44.9955C47.1503 44.8959 47.4483 44.8455 47.7484 44.8462C48.0595 44.8301 48.3678 44.9121 48.6297 45.0808C48.8148 45.2068 48.9583 45.3849 49.042 45.5925C49.0989 45.8562 49.1204 46.1263 49.1059 46.3956V47.9095C49.0935 48.0205 49.0935 48.1325 49.1059 48.2435C49.1146 48.2836 49.1343 48.3206 49.1628 48.3501C49.1951 48.3604 49.2299 48.3604 49.2623 48.3501C49.3334 48.3501 49.4044 48.3004 49.4826 48.2009L49.6034 48.3004C49.4959 48.4791 49.3503 48.632 49.177 48.7481C49.0248 48.8396 48.8499 48.8864 48.6724 48.8831C48.484 48.8956 48.2974 48.8402 48.1465 48.7268C48.0281 48.6087 47.9551 48.4527 47.9403 48.2861ZM47.9403 47.9805V46.6799C47.6625 46.8397 47.4205 47.055 47.2296 47.3124C47.1237 47.4403 47.0658 47.6012 47.0662 47.7673C47.0655 47.8291 47.0771 47.8905 47.1003 47.9478C47.1235 48.0051 47.1578 48.0573 47.2012 48.1014C47.2388 48.1401 47.2843 48.1703 47.3345 48.1899C47.3848 48.2095 47.4387 48.2181 47.4926 48.2151C47.6634 48.1876 47.8205 48.1053 47.9403 47.9805Z" fill="#263238"/>
<path d="M51.5508 48.4643V49.8857C51.5406 50.0227 51.5575 50.1604 51.6006 50.2908C51.6275 50.3602 51.6778 50.418 51.7427 50.4543C51.8715 50.4939 52.0062 50.5107 52.1407 50.504V50.6533H49.9162V50.504C49.9869 50.5063 50.0574 50.4942 50.1233 50.4685C50.1892 50.4429 50.2493 50.4042 50.3 50.3548C50.3767 50.2009 50.4064 50.0279 50.3853 49.8573V45.7777C50.4051 45.5964 50.3705 45.4133 50.2858 45.2518C50.2361 45.206 50.1779 45.1705 50.1145 45.1473C50.051 45.1242 49.9836 45.1138 49.9162 45.1168V44.9675H51.5508V45.4792C51.658 45.3064 51.801 45.1585 51.9702 45.0457C52.1663 44.9161 52.3961 44.8469 52.6311 44.8467C52.9146 44.8471 53.1897 44.9422 53.4129 45.1168C53.657 45.3136 53.8416 45.5744 53.946 45.8701C54.07 46.197 54.1326 46.544 54.1308 46.8936C54.1356 47.2625 54.0705 47.6291 53.9389 47.9739C53.8266 48.2574 53.637 48.5036 53.3916 48.6846C53.1879 48.832 52.9475 48.9206 52.6968 48.9407C52.4461 48.9607 52.1948 48.9115 51.9702 48.7983C51.8115 48.713 51.6694 48.5999 51.5508 48.4643ZM51.5508 48.0449C51.6284 48.1849 51.7387 48.304 51.8724 48.3919C52.0061 48.4798 52.1592 48.5339 52.3184 48.5495C52.3953 48.5468 52.47 48.5236 52.535 48.4823C52.5999 48.4411 52.6528 48.3834 52.688 48.315C52.9838 47.4342 52.9838 46.4809 52.688 45.6C52.6449 45.5254 52.5827 45.4636 52.5077 45.4212C52.4327 45.3787 52.3477 45.357 52.2616 45.3584C51.9844 45.3584 51.7499 45.5574 51.5508 45.9625V48.0449Z" fill="#263238"/>
<path d="M56.3482 43.5388V44.9602H57.2722V45.3511H56.3482V47.7534C56.3309 47.8974 56.3309 48.0429 56.3482 48.1869C56.3667 48.2488 56.404 48.3034 56.4548 48.3433C56.4966 48.3798 56.5488 48.4022 56.6041 48.4072C56.7818 48.4072 56.9523 48.2722 57.1158 47.995L57.2437 48.0874C57.1706 48.3198 57.0248 48.5227 56.8278 48.666C56.6307 48.8093 56.3929 48.8855 56.1492 48.8834C55.9204 48.893 55.6959 48.8198 55.5167 48.6773C55.3636 48.5629 55.2494 48.404 55.1897 48.2225C55.1662 47.9671 55.1662 47.7102 55.1897 47.4549V45.3227H54.678V45.1735C55.004 44.9488 55.3043 44.689 55.5735 44.3988C55.8202 44.1179 56.0348 43.8104 56.2132 43.4819L56.3482 43.5388Z" fill="#263238"/>
<path d="M60.9395 46.7727H58.8073C58.8078 47.2143 58.9526 47.6435 59.2195 47.9952C59.3023 48.105 59.4097 48.1938 59.5332 48.2543C59.6567 48.3149 59.7927 48.3454 59.9302 48.3434C60.0905 48.3431 60.2469 48.2935 60.378 48.2013C60.557 48.0669 60.7069 47.8977 60.8187 47.7038L60.9608 47.7962C60.8021 48.1531 60.558 48.4656 60.2501 48.7059C59.9917 48.8858 59.6835 48.9802 59.3688 48.976C59.1102 48.9902 58.8525 48.9359 58.6216 48.8186C58.3907 48.7013 58.1949 48.5251 58.0539 48.3079C57.8037 47.9111 57.6797 47.4476 57.6986 46.9788C57.6663 46.4137 57.8549 45.8582 58.2245 45.4295C58.3748 45.247 58.5636 45.1 58.7774 44.9993C58.9913 44.8985 59.2248 44.8464 59.4612 44.8467C59.6573 44.8483 59.8507 44.8931 60.0275 44.9778C60.2044 45.0626 60.3605 45.1852 60.4846 45.3371C60.8007 45.7471 60.9618 46.2555 60.9395 46.7727ZM59.916 46.4956C59.9283 46.1855 59.902 45.8752 59.8379 45.5716C59.8057 45.4261 59.7287 45.2943 59.6175 45.1949C59.5507 45.1427 59.4678 45.1151 59.383 45.1168C59.3101 45.117 59.2385 45.137 59.176 45.1745C59.1134 45.212 59.0622 45.2657 59.0276 45.33C58.8478 45.6374 58.7613 45.9906 58.7789 46.3463V46.4956H59.916Z" fill="#263238"/>
<path d="M63.0432 44.9671V45.8484C63.227 45.538 63.4682 45.2655 63.7539 45.0453C63.9182 44.9266 64.1131 44.8575 64.3154 44.8463C64.3852 44.8429 64.4549 44.8544 64.5199 44.8802C64.5848 44.9059 64.6436 44.9453 64.6921 44.9955C64.7406 45.0506 64.7776 45.1148 64.8008 45.1844C64.8239 45.254 64.8329 45.3275 64.8271 45.4006C64.8373 45.5569 64.7892 45.7114 64.6921 45.8342C64.6521 45.8817 64.602 45.9198 64.5454 45.9456C64.4889 45.9714 64.4273 45.9843 64.3652 45.9834C64.2239 45.986 64.0869 45.9353 63.9814 45.8413L63.7966 45.6849C63.7638 45.6776 63.7298 45.6776 63.6971 45.6849C63.6123 45.6858 63.531 45.7188 63.4697 45.7773C63.3482 45.883 63.2595 46.021 63.2138 46.1753C63.1196 46.4643 63.074 46.7669 63.0788 47.0708V48.1938C63.0654 48.2928 63.0654 48.3932 63.0788 48.4923C63.1063 48.5635 63.1596 48.6218 63.228 48.6558C63.3341 48.6995 63.4473 48.7236 63.562 48.7268V48.8761H61.4299V48.7268C61.4935 48.7283 61.5568 48.7164 61.6155 48.692C61.6743 48.6675 61.7273 48.6309 61.771 48.5847C61.8555 48.3877 61.8873 48.1722 61.8634 47.9592V45.8271C61.8817 45.6855 61.8817 45.5422 61.8634 45.4006C61.8439 45.3316 61.8012 45.2714 61.7426 45.2301C61.6576 45.1826 61.5627 45.1558 61.4654 45.1519V45.0026L63.0432 44.9671Z" fill="#263238"/>
<path d="M69.6814 43.0976V47.7172C69.6719 47.9385 69.6862 48.1601 69.724 48.3782C69.7577 48.4769 69.8258 48.5602 69.9159 48.6128C70.061 48.6855 70.2232 48.7174 70.385 48.7052H70.5129V48.8615H67.5421V48.7052H67.6914C67.8663 48.7179 68.0417 48.6886 68.2031 48.6199C68.3012 48.5749 68.3777 48.4932 68.4163 48.3924C68.4653 48.1589 68.4821 47.9198 68.4661 47.6817V44.7535C68.4738 44.5892 68.4619 44.4246 68.4305 44.2631C68.4003 44.1939 68.351 44.1348 68.2884 44.0926C68.2184 44.0481 68.1367 44.0259 68.0538 44.0286C67.8765 44.037 67.7026 44.0805 67.5421 44.1565L67.4639 44.0073L69.5392 43.062L69.6814 43.0976Z" fill="#263238"/>
<path d="M47.7058 79.6362V84.2061H47.2865C47.1219 83.403 46.8214 82.6339 46.3981 81.9318C46.0571 81.4565 45.5994 81.0771 45.069 80.8302C44.5375 80.6459 43.9747 80.5686 43.4131 80.6028H42.1551V93.6303C42.1211 94.1722 42.169 94.7161 42.2972 95.2436C42.4201 95.4874 42.6165 95.6863 42.8587 95.8122C43.2097 95.9918 43.6021 96.0752 43.9959 96.0539H44.5573V96.523H35.6875V96.061H36.249C36.66 96.0794 37.0689 95.9912 37.4359 95.8051C37.6652 95.6671 37.8426 95.4573 37.9405 95.2081C38.0699 94.6952 38.1179 94.1652 38.0826 93.6374V80.6028H36.8602C35.9735 80.5205 35.0883 80.7742 34.3798 81.3135C33.6189 82.0813 33.1383 83.0825 33.0152 84.1564H32.539V79.5864L47.7058 79.6362Z" fill="#263238"/>
<path d="M156.809 60.8733C156.809 60.9799 150.412 61.0581 142.538 61.0581C134.663 61.0581 128.266 60.9799 128.266 60.8733C128.266 60.7667 134.663 60.6885 142.538 60.6885C150.412 60.6885 156.809 60.7738 156.809 60.8733Z" fill="#263238"/>
<path d="M156.482 83.0696C156.482 83.1691 133.192 83.2543 104.464 83.2543C75.7367 83.2543 52.4464 83.1691 52.4464 83.0696C52.4464 82.9701 75.7296 82.8848 104.464 82.8848C133.199 82.8848 156.482 82.963 156.482 83.0696Z" fill="#263238"/>
<path d="M156.482 90.219C156.482 90.3256 133.192 90.4038 104.464 90.4038C75.7367 90.4038 52.4464 90.3256 52.4464 90.219C52.4464 90.1124 75.7296 90.0342 104.464 90.0342C133.199 90.0342 156.482 90.1266 156.482 90.219Z" fill="#263238"/>
<path d="M156.482 97.3762C156.482 97.4828 133.192 97.561 104.464 97.561C75.7367 97.561 52.4464 97.4828 52.4464 97.3762C52.4464 97.2696 75.7296 97.1914 104.464 97.1914C133.199 97.1914 156.482 97.2767 156.482 97.3762Z" fill="#263238"/>
<path d="M156.482 104.533C156.482 104.632 128.529 104.718 94.0521 104.718C59.5749 104.718 31.6222 104.632 31.6222 104.533C31.6222 104.433 59.5678 104.348 94.0521 104.348C128.536 104.348 156.482 104.433 156.482 104.533Z" fill="#263238"/>
<path d="M156.482 111.69C156.482 111.79 128.529 111.875 94.0521 111.875C59.5749 111.875 31.6222 111.79 31.6222 111.69C31.6222 111.591 59.5678 111.505 94.0521 111.505C128.536 111.505 156.482 111.584 156.482 111.69Z" fill="#263238"/>
<path d="M101.934 118.847C101.934 118.947 86.1915 119.032 66.7816 119.032C47.3718 119.032 31.6222 118.947 31.6222 118.847C31.6222 118.748 47.3576 118.655 66.7816 118.655C86.2057 118.655 101.934 118.741 101.934 118.847Z" fill="#263238"/>
<path d="M156.482 125.997C156.482 126.104 128.529 126.182 94.0521 126.182C59.5749 126.182 31.6222 126.104 31.6222 125.997C31.6222 125.891 59.5678 125.812 94.0521 125.812C128.536 125.812 156.482 125.898 156.482 125.997Z" fill="#263238"/>
<path d="M156.482 133.154C156.482 133.254 128.529 133.339 94.0521 133.339C59.5749 133.339 31.6222 133.254 31.6222 133.154C31.6222 133.055 59.5678 132.969 94.0521 132.969C128.536 132.969 156.482 133.055 156.482 133.154Z" fill="#263238"/>
<path d="M156.482 140.311C156.482 140.41 128.529 140.496 94.0521 140.496C59.5749 140.496 31.6222 140.41 31.6222 140.311C31.6222 140.211 59.5678 140.126 94.0521 140.126C128.536 140.126 156.482 140.204 156.482 140.311Z" fill="#263238"/>
<path d="M156.482 147.467C156.482 147.567 128.529 147.652 94.0521 147.652C59.5749 147.652 31.6222 147.567 31.6222 147.467C31.6222 147.368 59.5678 147.283 94.0521 147.283C128.536 147.283 156.482 147.361 156.482 147.467Z" fill="#263238"/>
<path d="M156.482 154.618C156.482 154.724 128.529 154.803 94.0521 154.803C59.5749 154.803 31.6222 154.724 31.6222 154.618C31.6222 154.511 59.5678 154.433 94.0521 154.433C128.536 154.433 156.482 154.518 156.482 154.618Z" fill="#263238"/>
<path d="M52.4463 161.775C52.4463 161.881 47.784 161.959 42.0342 161.959C36.2845 161.959 31.6506 161.91 31.6506 161.775C31.6506 161.64 36.3058 161.59 42.0627 161.59C47.8195 161.59 52.4463 161.675 52.4463 161.775Z" fill="#263238"/>
<path d="M156.482 168.932C156.482 169.031 128.529 169.117 94.0521 169.117C59.5749 169.117 31.6506 169.017 31.6506 168.932C31.6506 168.847 59.5962 168.747 94.0805 168.747C128.565 168.747 156.482 168.832 156.482 168.932Z" fill="#263238"/>
<path d="M156.482 176.124C156.482 176.224 128.529 176.309 94.0521 176.309C59.5749 176.309 31.6506 176.188 31.6506 176.124C31.6506 176.06 59.5962 175.939 94.0805 175.939C128.565 175.939 156.482 175.982 156.482 176.124Z" fill="#263238"/>
<path d="M156.482 183.231C156.482 183.338 128.529 183.416 94.0521 183.416C59.5749 183.416 31.6506 183.345 31.6506 183.231C31.6506 183.117 59.5962 183.046 94.0805 183.046C128.565 183.046 156.482 183.139 156.482 183.231Z" fill="#263238"/>
<path d="M127.47 190.395C127.47 190.502 106.014 190.58 79.5462 190.58C53.0789 190.58 31.6222 190.502 31.6222 190.395C31.6222 190.289 53.0718 190.21 79.5462 190.21C106.021 190.21 127.47 190.296 127.47 190.395Z" fill="#263238"/>
<path d="M156.482 197.552C156.482 197.652 128.529 197.737 94.0521 197.737C59.5749 197.737 31.6222 197.652 31.6222 197.552C31.6222 197.453 59.5678 197.368 94.0521 197.368C128.536 197.368 156.482 197.446 156.482 197.552Z" fill="#263238"/>
<path d="M156.482 204.709C156.482 204.809 128.529 204.894 94.0521 204.894C59.5749 204.894 31.6222 204.809 31.6222 204.709C31.6222 204.61 59.5678 204.524 94.0521 204.524C128.536 204.524 156.482 204.603 156.482 204.709Z" fill="#263238"/>
<path d="M139.68 211.867C139.68 211.966 115.516 212.051 85.6655 212.051C55.8152 212.051 31.6506 211.966 31.6506 211.867C31.6506 211.767 55.8152 211.675 85.6655 211.675C115.516 211.675 139.68 211.76 139.68 211.867Z" fill="#263238"/>
<path d="M156.482 219.016C156.482 219.122 128.529 219.201 94.0521 219.201C59.5749 219.201 31.6506 219.122 31.6506 219.016C31.6506 218.909 59.5962 218.831 94.0805 218.831C128.565 218.831 156.482 218.916 156.482 219.016Z" fill="#263238"/>
<path d="M156.482 233.33C156.482 233.43 128.529 233.515 94.0521 233.515C59.5749 233.515 31.6222 233.43 31.6222 233.33C31.6222 233.231 59.5678 233.146 94.0521 233.146C128.536 233.146 156.482 233.224 156.482 233.33Z" fill="#263238"/>
<path d="M156.482 240.487C156.482 240.587 128.529 240.672 94.0521 240.672C59.5749 240.672 31.6506 240.587 31.6506 240.487C31.6506 240.388 59.5962 240.302 94.0805 240.302C128.565 240.302 156.482 240.38 156.482 240.487Z" fill="#263238"/>
<path d="M156.482 247.637C156.482 247.744 128.529 247.822 94.0521 247.822C59.5749 247.822 31.6222 247.744 31.6222 247.637C31.6222 247.53 59.5678 247.452 94.0521 247.452C128.536 247.452 156.482 247.537 156.482 247.637Z" fill="#263238"/>
<path d="M97.961 268.752L97.563 269.84H94.2368V269.683C95.0004 269.028 95.6935 268.294 96.3051 267.494C96.6577 267.051 96.8661 266.51 96.9021 265.945C96.9086 265.783 96.8831 265.621 96.827 265.468C96.7709 265.316 96.6853 265.176 96.5751 265.057C96.4748 264.948 96.3527 264.861 96.2168 264.802C96.081 264.744 95.9343 264.714 95.7862 264.715C95.5176 264.711 95.2552 264.796 95.04 264.957C94.8068 265.137 94.6354 265.386 94.5496 265.668H94.4003C94.432 265.222 94.6208 264.801 94.9334 264.481C95.0756 264.344 95.2439 264.237 95.4282 264.166C95.6126 264.095 95.8092 264.062 96.0066 264.069C96.218 264.063 96.4286 264.099 96.6262 264.174C96.8238 264.25 97.0045 264.364 97.1579 264.509C97.3017 264.643 97.4163 264.804 97.4946 264.984C97.5729 265.164 97.6131 265.358 97.6128 265.554C97.6113 265.85 97.5433 266.141 97.4138 266.407C97.1602 266.931 96.8243 267.411 96.4188 267.828C95.708 268.589 95.2958 269.044 95.1181 269.2H96.5965C96.8079 269.205 97.0194 269.193 97.229 269.165C97.3459 269.142 97.4571 269.096 97.5559 269.03C97.6581 268.951 97.7429 268.851 97.8047 268.738L97.961 268.752Z" fill="#263238"/>
<path d="M98.622 267.047C98.6103 266.479 98.7093 265.914 98.9134 265.384C99.0711 264.973 99.3392 264.614 99.6881 264.346C99.9114 264.177 100.183 264.082 100.463 264.076C100.696 264.086 100.923 264.151 101.125 264.266C101.328 264.381 101.5 264.543 101.628 264.737C102.09 265.384 102.319 266.168 102.275 266.962C102.291 267.532 102.195 268.099 101.991 268.632C101.856 269.026 101.609 269.372 101.28 269.627C101.038 269.822 100.738 269.931 100.427 269.94C100.137 269.921 99.858 269.822 99.6208 269.654C99.3836 269.485 99.1978 269.255 99.084 268.987C98.7651 268.391 98.6059 267.723 98.622 267.047ZM99.4393 267.154C99.419 267.801 99.5178 268.447 99.7307 269.058C99.8871 269.471 100.124 269.677 100.441 269.677C100.617 269.671 100.784 269.6 100.911 269.478C101.103 269.285 101.23 269.036 101.273 268.767C101.42 268.102 101.485 267.422 101.465 266.741C101.479 266.199 101.412 265.658 101.266 265.135C101.207 264.867 101.074 264.621 100.882 264.424C100.814 264.372 100.736 264.334 100.653 264.312C100.57 264.289 100.484 264.284 100.399 264.295C100.314 264.306 100.231 264.334 100.157 264.377C100.083 264.42 100.018 264.477 99.9653 264.545C99.731 264.861 99.5883 265.234 99.553 265.626C99.4775 266.131 99.4395 266.642 99.4393 267.154Z" fill="#263238"/>
<path d="M20.279 287.658C14.9912 278.639 3.81867 278.539 0.151342 285.824V20.2057C0.124678 17.8205 0.964387 15.5066 2.51458 13.6937C4.06477 11.8808 6.22014 10.692 8.58052 10.3479C11.6864 9.94992 14.5079 11.1368 19.3124 13.9015L20.279 287.658Z" fill="white"/>
<path d="M20.279 287.658C20.279 285.703 19.7673 167.055 19.1205 13.916L19.2129 14.0723C17.7496 13.2076 16.2433 12.4177 14.6998 11.7056C13.1474 10.9447 11.4525 10.5185 9.72479 10.4548C7.95784 10.4663 6.23125 10.9843 4.74973 11.9473C3.26245 12.9231 2.07043 14.2872 1.30273 15.8918C0.906594 16.7318 0.624544 17.6209 0.464072 18.5357C0.334338 19.4583 0.286767 20.3907 0.321924 21.3217C0.321924 23.217 0.321924 25.0933 0.321924 26.9506V60.1556C0.321924 74.6686 0.321924 88.8048 0.321924 102.564C0.321924 130.027 0.321924 155.776 0.321924 179.159C0.321924 225.925 0.257959 263.209 0.243744 285.824L0.101602 285.789C0.959675 284.076 2.32455 282.669 4.01058 281.759C5.48831 280.993 7.12929 280.596 8.79374 280.6C9.53436 280.593 10.2741 280.653 11.0041 280.778C11.3523 280.842 11.7148 280.949 12.0204 281.027C12.3436 281.102 12.6598 281.204 12.9657 281.333C13.5484 281.536 14.1121 281.79 14.6501 282.093L15.4035 282.512C15.6309 282.662 15.8512 282.825 16.0644 282.981C16.4767 283.249 16.8623 283.556 17.2158 283.898C17.5498 284.218 17.8768 284.495 18.1469 284.787C18.5923 285.279 19.0122 285.794 19.4048 286.329C19.9663 287.196 20.2222 287.58 20.2861 287.686L19.3764 286.357C19.0779 285.903 18.6088 285.433 18.1042 284.822C17.8341 284.538 17.5072 284.261 17.1732 283.948C16.8118 283.614 16.4244 283.31 16.0147 283.038C15.8015 282.889 15.5883 282.726 15.3608 282.576L14.6075 282.171C14.0717 281.871 13.5104 281.619 12.9302 281.418C12.6267 281.293 12.3127 281.196 11.992 281.126C11.6651 281.048 11.331 280.949 10.9899 280.878C10.2638 280.761 9.5291 280.706 8.79374 280.714C7.14568 280.723 5.52423 281.13 4.06744 281.901C2.40763 282.799 1.06687 284.19 0.229532 285.881L0.0873845 286.165V285.853C0.0873845 263.238 0.0447461 225.953 0.00920998 179.187C0.00920998 155.805 0.00920998 130.055 0.00920998 102.593C0.00920998 88.8522 0.00920998 74.7159 0.00920998 60.184V38.1516C0.00920998 34.4417 0.00920998 30.7127 0.00920998 26.9648V21.3217C-0.0230015 20.3713 0.0293194 19.4199 0.165564 18.4788C0.329977 17.5295 0.621632 16.6068 1.03265 15.7354C1.82349 14.0735 3.05198 12.6583 4.58626 11.6417C6.12108 10.6447 7.90886 10.1071 9.739 10.0923C11.5199 10.1567 13.2677 10.5924 14.8704 11.3716C16.4624 12.0823 17.9479 12.9281 19.4119 13.7596L19.5043 13.8165V13.9231C19.9379 167.055 20.279 285.703 20.279 287.658Z" fill="#263238"/>
<path d="M164.136 162.13C164.082 162.13 164.029 162.118 163.98 162.093C163.932 162.068 163.89 162.032 163.859 161.988C163.802 161.913 163.776 161.819 163.788 161.726C163.8 161.632 163.849 161.548 163.923 161.49L167.96 158.434L163.952 155.89C163.911 155.866 163.876 155.834 163.848 155.796C163.82 155.758 163.801 155.715 163.79 155.669C163.779 155.623 163.778 155.575 163.786 155.529C163.795 155.483 163.812 155.439 163.838 155.399C163.863 155.36 163.895 155.325 163.933 155.298C163.971 155.271 164.014 155.251 164.06 155.241C164.105 155.23 164.152 155.229 164.198 155.236C164.245 155.244 164.289 155.261 164.328 155.286L168.77 158.128C168.82 158.158 168.861 158.199 168.889 158.249C168.918 158.299 168.933 158.355 168.934 158.413C168.938 158.47 168.927 158.527 168.904 158.579C168.88 158.631 168.844 158.676 168.799 158.711L164.357 162.08C164.291 162.12 164.213 162.138 164.136 162.13Z" fill="#E0E0E0"/>
<g opacity="0.3">
<path d="M135.324 13.7451V46.5237C135.325 46.6747 135.37 46.8221 135.455 46.9474C135.539 47.0727 135.659 47.1702 135.798 47.2279C135.938 47.2856 136.091 47.3008 136.24 47.2716C136.388 47.2424 136.524 47.1701 136.631 47.0638L144.528 39.1677C144.673 39.0249 144.868 38.9448 145.071 38.9448C145.275 38.9448 145.47 39.0249 145.615 39.1677L153.504 47.0638C153.611 47.1725 153.748 47.247 153.897 47.2776C154.047 47.3082 154.202 47.2935 154.343 47.2356C154.484 47.1776 154.605 47.0789 154.689 46.9521C154.774 46.8253 154.819 46.6762 154.819 46.5237V13.7451H135.324Z" fill="black"/>
</g>
<path d="M133.661 13.7451V43.496C133.66 43.6485 133.705 43.7977 133.79 43.9245C133.875 44.0513 133.995 44.1499 134.137 44.2079C134.278 44.2659 134.433 44.2805 134.582 44.2499C134.732 44.2193 134.869 44.1449 134.975 44.0361L142.872 36.1471C142.942 36.0749 143.026 36.0175 143.119 35.9783C143.211 35.9391 143.311 35.9189 143.412 35.9189C143.512 35.9189 143.612 35.9391 143.705 35.9783C143.798 36.0175 143.882 36.0749 143.952 36.1471L151.848 44.0361C151.955 44.1449 152.092 44.2193 152.241 44.2499C152.391 44.2805 152.546 44.2659 152.687 44.2079C152.828 44.1499 152.949 44.0513 153.033 43.9245C153.118 43.7977 153.163 43.6485 153.163 43.496V13.7451H133.661Z" fill="#FF7F2C"/>
<path d="M197.761 59.1039C197.903 56.5737 199.452 55.0243 201.634 53.7308C202.733 53.0953 203.969 52.7338 205.237 52.6769C206.505 52.62 207.768 52.8693 208.919 53.4039C210.447 54.1146 211.762 55.3726 213.461 55.5858C216.225 55.9411 218.841 53.3825 221.556 54.0222C222.366 54.2143 223.084 54.6815 223.588 55.3441C224.092 56.0066 224.35 56.8235 224.319 57.6554C224.288 58.4872 223.97 59.2825 223.418 59.9057C222.866 60.5289 222.115 60.9413 221.293 61.0726C223.098 61.3355 224.136 63.624 223.425 65.3369C222.714 67.0497 220.859 68.0234 219.033 68.0661C217.192 68.0026 215.404 67.4401 213.859 66.4385C212.281 65.5217 210.802 64.4129 209.154 63.5956C207.529 62.7175 205.645 62.4431 203.837 62.8209C201.449 63.4535 199.751 65.7136 199.125 68.1087C198.5 70.5038 198.77 73.034 199.125 75.486C199.481 77.938 199.971 80.4042 199.737 82.8704C199.745 83.0153 199.718 83.16 199.659 83.2924C199.6 83.4248 199.509 83.5409 199.395 83.6309C199.026 83.8299 198.606 83.4816 198.336 83.1618C195.291 79.5278 192.99 75.3308 191.563 70.8095C190.725 68.1869 190.263 65.6283 191.265 63.0697C192.267 60.5111 195.65 58.0591 197.775 59.1039" fill="#263238"/>
<path d="M195.43 71.3134L199.474 96.2669C200.227 100.929 203.255 105.435 210.575 103.9C216.815 102.095 216.353 97.603 215.55 92.0665C215.55 92.0665 222.416 90.2755 221.804 83.2891C221.506 79.9131 220.326 73.0049 219.189 66.7719C218.601 63.5392 216.817 60.6466 214.192 58.6708C211.567 56.695 208.293 55.781 205.024 56.111L204.349 56.175C197.128 57.3548 194.072 64.128 195.43 71.3134Z" fill="#FFBF9D"/>
<path d="M215.543 92.0668C212.317 92.38 209.069 91.7635 206.183 90.29C206.183 90.29 208.926 95.4854 215.82 94.1564L215.543 92.0668Z" fill="#FF9A6C"/>
<path d="M217.81 73.7796C217.839 74.039 217.765 74.2993 217.604 74.505C217.443 74.7108 217.209 74.8457 216.95 74.8812C216.824 74.9045 216.695 74.9023 216.57 74.8747C216.445 74.847 216.327 74.7944 216.223 74.7201C216.119 74.6458 216.031 74.5513 215.964 74.4422C215.897 74.3331 215.853 74.2117 215.834 74.0852C215.806 73.8257 215.88 73.5655 216.041 73.3597C216.201 73.154 216.436 73.019 216.694 72.9836C216.82 72.9612 216.949 72.9642 217.073 72.9923C217.198 73.0203 217.316 73.073 217.42 73.1471C217.523 73.2213 217.612 73.3154 217.679 73.424C217.746 73.5326 217.79 73.6535 217.81 73.7796Z" fill="#263238"/>
<path d="M218.023 70.3469C217.917 70.4891 217.107 70.0058 216.033 70.1195C214.96 70.2332 214.228 70.8302 214.1 70.7236C213.972 70.617 214.136 70.4251 214.456 70.1408C214.887 69.7743 215.42 69.5486 215.984 69.4941C216.542 69.4361 217.105 69.5581 217.59 69.8423C217.945 70.0627 218.08 70.283 218.023 70.3469Z" fill="#263238"/>
<path d="M208.351 74.7256C208.379 74.9851 208.305 75.2454 208.144 75.4511C207.984 75.6568 207.749 75.7918 207.491 75.8273C207.365 75.8506 207.236 75.8484 207.111 75.8207C206.986 75.7931 206.868 75.7405 206.764 75.6662C206.659 75.5919 206.571 75.4974 206.505 75.3883C206.438 75.2792 206.394 75.1578 206.375 75.0313C206.346 74.7729 206.419 74.5135 206.578 74.308C206.738 74.1025 206.97 73.9668 207.228 73.9296C207.354 73.9063 207.483 73.9084 207.609 73.936C207.734 73.9636 207.853 74.0161 207.957 74.0903C208.062 74.1645 208.151 74.259 208.218 74.3681C208.286 74.4773 208.331 74.5988 208.351 74.7256Z" fill="#263238"/>
<path d="M207.505 71.6473C207.391 71.7895 206.581 71.3062 205.508 71.4128C204.434 71.5194 203.702 72.1235 203.574 72.024C203.447 71.9245 203.617 71.7255 203.93 71.4412C204.362 71.0717 204.899 70.8457 205.465 70.7945C206.023 70.7343 206.586 70.8538 207.071 71.1356C207.419 71.3204 207.562 71.5478 207.505 71.6473Z" fill="#263238"/>
<path d="M212.174 79.1744C212.721 78.9348 213.297 78.7698 213.887 78.684C214.157 78.6272 214.406 78.549 214.434 78.3571C214.432 78.0708 214.34 77.7925 214.171 77.5611L213.155 75.5568C211.734 72.7139 210.667 70.3401 210.788 70.2833C210.909 70.2264 212.146 72.5007 213.574 75.3578L214.555 77.3763C214.76 77.6892 214.85 78.0633 214.811 78.4353C214.78 78.5358 214.727 78.6281 214.655 78.7055C214.584 78.7829 214.496 78.8436 214.399 78.883C214.25 78.9382 214.095 78.9741 213.937 78.9896C213.359 79.1231 212.767 79.1852 212.174 79.1744Z" fill="#263238"/>
<path d="M207.355 67.3829C207.284 67.6885 206.197 67.6601 204.953 67.9373C203.709 68.2145 202.729 68.648 202.537 68.4135C202.444 68.2998 202.594 68.0084 202.977 67.7028C203.488 67.2976 204.087 67.0177 204.726 66.8854C205.362 66.7439 206.022 66.7561 206.652 66.921C207.135 67.0276 207.391 67.2337 207.355 67.3829Z" fill="#263238"/>
<path d="M217.32 67.2837C217.156 67.5467 216.389 67.369 215.5 67.4472C214.612 67.5254 213.88 67.7741 213.681 67.5396C213.589 67.4259 213.681 67.17 213.987 66.9C214.393 66.5763 214.889 66.3852 215.408 66.3527C215.932 66.3083 216.457 66.4301 216.908 66.7009C217.263 66.9213 217.391 67.1558 217.32 67.2837Z" fill="#263238"/>
<path d="M196.538 76.4238C196.417 76.3812 191.563 75.4857 192.231 80.2404C192.899 84.9951 197.512 83.3818 197.498 83.2396C197.484 83.0975 196.538 76.4238 196.538 76.4238Z" fill="#FFBF9D"/>
<path d="M195.785 81.6335C195.785 81.6335 195.714 81.7046 195.579 81.7828C195.394 81.896 195.172 81.9317 194.96 81.8823C194.63 81.7272 194.345 81.488 194.136 81.1887C193.926 80.8894 193.799 80.5404 193.766 80.1766C193.704 79.7706 193.731 79.3559 193.845 78.9612C193.871 78.8083 193.935 78.6639 194.028 78.5403C194.122 78.4167 194.245 78.3173 194.385 78.2505C194.477 78.2144 194.579 78.211 194.673 78.2407C194.767 78.2705 194.849 78.3316 194.904 78.414C194.982 78.5419 194.968 78.6414 194.989 78.6414C195.01 78.6414 195.081 78.549 194.989 78.3571C194.949 78.2423 194.868 78.1462 194.761 78.087C194.617 78.0039 194.446 77.9809 194.285 78.0231C194.096 78.0887 193.926 78.2014 193.792 78.3506C193.657 78.4997 193.563 78.6805 193.518 78.8759C193.374 79.3157 193.337 79.7837 193.411 80.2405C193.445 80.6666 193.604 81.0734 193.866 81.4106C194.129 81.7478 194.485 82.0007 194.889 82.1381C195.017 82.1517 195.146 82.1385 195.269 82.0994C195.391 82.0602 195.504 81.996 195.6 81.9107C195.828 81.7473 195.828 81.6406 195.785 81.6335Z" fill="#FF9A6C"/>
<path d="M218.613 60.2762C217.794 58.9946 216.671 57.9351 215.344 57.1917C212.55 55.4555 209.28 54.6447 205.998 54.8747C202.709 55.1352 199.651 56.6645 197.469 59.139C195.798 61.1648 194.755 63.6353 194.47 66.2463C194.194 68.8478 194.435 71.4783 195.181 73.986C195.419 75.1162 195.979 76.1531 196.794 76.9711C197.334 77.4331 198.216 77.6818 198.734 77.1985C199.006 76.8716 199.163 76.4647 199.182 76.04C199.729 72.2661 200.234 68.2221 198.528 64.8035C199.284 63.4955 200.3 62.3562 201.513 61.456C202.12 61.0104 202.81 60.6898 203.542 60.5129C204.274 60.336 205.034 60.3063 205.778 60.4255C207.974 60.8661 209.495 62.8064 211.336 64.0715C212.663 64.9704 214.186 65.541 215.777 65.7363C217.369 65.9315 218.984 65.7458 220.49 65.1944L218.613 60.2762Z" fill="#263238"/>
<path d="M213.141 82.0668C213.084 82.5194 212.964 82.9619 212.785 83.3816C212.692 83.59 212.556 83.7763 212.386 83.9282C212.216 84.0802 212.015 84.1942 211.798 84.2629C211.56 84.3123 211.315 84.3017 211.083 84.2322C210.851 84.1627 210.639 84.0365 210.468 83.8649C210.135 83.5082 209.921 83.0558 209.857 82.5714C209.786 82.1378 209.857 81.5906 210.291 81.4484C210.468 81.4059 210.653 81.4059 210.831 81.4484L213.254 81.8891" fill="#FF9A6C"/>
<path d="M212.629 84.0929C212.232 84.2062 211.817 84.2424 211.407 84.1995C210.983 84.1276 210.601 83.9025 210.333 83.567C210.18 83.3604 210.071 83.1243 210.014 82.8735C209.956 82.6227 209.951 82.3628 209.999 82.11C210.024 81.9791 210.067 81.8523 210.127 81.7333C210.191 81.6267 210.177 81.6338 210.277 81.6267C210.376 81.6196 210.532 81.6694 210.667 81.6907L211.065 81.7618C211.584 81.8613 212.053 81.9394 212.444 81.9963C212.867 82.1023 213.303 82.1407 213.738 82.11C213.35 81.9103 212.932 81.7758 212.501 81.712L211.137 81.3993L210.739 81.3069C210.593 81.2725 210.446 81.2464 210.298 81.2287C210.183 81.2183 210.068 81.2458 209.971 81.3069C209.879 81.3672 209.807 81.4539 209.765 81.5557C209.688 81.7059 209.633 81.8662 209.601 82.0318C209.539 82.341 209.547 82.6602 209.623 82.9662C209.699 83.2722 209.842 83.5575 210.042 83.8015C210.374 84.2047 210.852 84.4603 211.371 84.5123C211.704 84.5478 212.041 84.4913 212.345 84.3488C212.558 84.2138 212.643 84.1143 212.629 84.0929Z" fill="#263238"/>
<path d="M223.148 54.9956C223.192 55.0952 223.224 55.2004 223.24 55.3083C223.3 55.6174 223.312 55.9338 223.276 56.2465C223.196 56.8236 223.002 57.379 222.706 57.8805C222.409 58.382 222.016 58.8195 221.549 59.1676C220.835 59.6532 220.033 59.9924 219.187 60.1656C218.342 60.3389 217.47 60.3427 216.623 60.1768C214.69 59.9138 212.757 58.9828 210.739 58.1512C208.72 57.3197 206.652 56.7298 204.797 57.0993C203.144 57.4113 201.643 58.2669 200.533 59.53C199.774 60.3702 199.162 61.331 198.72 62.3729C198.422 63.0836 198.315 63.5456 198.28 63.5385C198.291 63.4301 198.312 63.3231 198.344 63.2187C198.415 62.9173 198.506 62.6206 198.614 62.3303C199.014 61.2503 199.609 60.253 200.369 59.3879C201.488 58.0643 203.025 57.1618 204.726 56.8293C206.666 56.4597 208.812 57.0354 210.838 57.874C212.864 58.7127 214.768 59.6295 216.645 59.8996C218.284 60.2397 219.992 59.9151 221.392 58.997C222.309 58.3357 222.933 57.3446 223.134 56.2323C223.188 55.8221 223.193 55.4069 223.148 54.9956Z" fill="#455A64"/>
<path d="M191.919 69.516C191.894 69.0699 191.957 68.6233 192.103 68.2012C192.39 67.171 192.873 66.2057 193.525 65.3583C193.891 64.892 194.306 64.4656 194.761 64.0861C195.132 63.7453 195.582 63.5012 196.069 63.3754C196.404 63.3015 196.753 63.3389 197.064 63.482C197.277 63.5957 197.356 63.7023 197.341 63.7165C196.961 63.5351 196.529 63.4899 196.119 63.5886C195.168 63.9945 194.354 64.6656 193.774 65.5218C193.135 66.347 192.635 67.2713 192.295 68.258C192.047 68.9901 191.968 69.516 191.919 69.516Z" fill="#455A64"/>
<path d="M193.177 73.595C193.192 73.1469 193.283 72.7047 193.447 72.2872C193.799 71.2503 194.339 70.2867 195.039 69.4443C195.734 68.6098 196.577 67.911 197.526 67.3832C197.909 67.1464 198.33 66.9781 198.77 66.8857C198.77 66.9355 198.322 67.1416 197.64 67.5965C195.846 68.7281 194.452 70.3934 193.653 72.3583C193.52 72.7799 193.36 73.1929 193.177 73.595Z" fill="#455A64"/>
<path d="M235.45 269.229L246.339 283.543L251.683 297.352C251.775 297.587 251.914 297.801 252.092 297.981C252.27 298.16 252.483 298.301 252.717 298.395C252.952 298.489 253.203 298.534 253.455 298.527C253.708 298.52 253.956 298.461 254.185 298.354C254.451 298.23 254.684 298.044 254.863 297.812C255.042 297.579 255.163 297.307 255.216 297.018C255.891 293.28 258.314 279.499 257.461 278.497C256.466 277.331 246.978 262.633 246.978 262.633L235.45 269.229Z" fill="#455A64"/>
<g opacity="0.6">
<path d="M254.185 298.369L256.744 277.523L257.191 278.142C257.581 278.673 257.767 279.326 257.717 279.983C257.582 281.745 257.099 286.585 255.258 297.004C255.205 297.302 255.079 297.583 254.892 297.821C254.705 298.058 254.462 298.247 254.185 298.369Z" fill="white"/>
</g>
<g opacity="0.6">
<path d="M250.354 274.993C250.269 275.254 250.284 275.537 250.395 275.788C250.507 276.038 250.707 276.239 250.958 276.35C251.216 276.446 251.501 276.439 251.753 276.329C252.005 276.219 252.204 276.015 252.309 275.76C252.393 275.485 252.373 275.189 252.254 274.927C252.135 274.665 251.924 274.456 251.662 274.339C251.382 274.269 251.086 274.311 250.837 274.455C250.587 274.6 250.404 274.836 250.326 275.113" fill="white"/>
</g>
<path d="M252.899 289.591C252.228 289.338 251.502 289.27 250.797 289.395C250.091 289.52 249.432 289.833 248.89 290.302C248.855 290.302 248.954 290.032 249.26 289.733C249.675 289.361 250.188 289.114 250.738 289.022C251.287 288.926 251.852 288.99 252.366 289.207C252.749 289.356 252.927 289.555 252.899 289.591Z" fill="#263238"/>
<path d="M253.275 292.292C252.689 292.361 252.108 292.466 251.534 292.605C250.617 292.917 250.07 293.528 249.978 293.45C249.885 293.372 250.361 292.59 251.399 292.228C251.694 292.089 252.019 292.022 252.345 292.033C252.671 292.044 252.99 292.133 253.275 292.292Z" fill="#263238"/>
<path d="M253.019 285.696C252.106 285.72 251.196 285.818 250.297 285.987C249.429 286.279 248.583 286.636 247.767 287.054C248.421 286.348 249.263 285.846 250.194 285.605C251.125 285.365 252.106 285.396 253.019 285.696Z" fill="#263238"/>
<path d="M250.07 281.062C250.07 281.183 249.046 281.425 247.973 282.15C246.9 282.875 246.253 283.721 246.154 283.657C246.513 282.912 247.067 282.278 247.756 281.822C248.445 281.365 249.244 281.103 250.07 281.062Z" fill="#263238"/>
<path d="M247 276.784C246.213 277.032 245.467 277.391 244.782 277.85C244.171 278.404 243.64 279.04 243.204 279.74C243.155 279.74 243.204 279.427 243.382 278.987C243.648 278.42 244.045 277.924 244.539 277.538C245.032 277.153 245.61 276.89 246.225 276.769C246.687 276.684 247 276.734 247 276.784Z" fill="#263238"/>
<path d="M244.206 277.047C244.206 277.047 244.015 276.89 243.787 276.514C243.468 275.972 243.261 275.373 243.176 274.751C243.078 274.302 243.128 273.833 243.318 273.415C243.391 273.28 243.507 273.172 243.646 273.108C243.786 273.044 243.943 273.027 244.093 273.06C244.382 273.129 244.636 273.304 244.803 273.55C245.126 274.063 245.259 274.673 245.18 275.273C245.101 275.874 244.814 276.428 244.37 276.841C243.922 277.238 243.366 277.494 242.773 277.576C242.18 277.658 241.576 277.563 241.037 277.303C240.903 277.235 240.785 277.14 240.691 277.024C240.596 276.907 240.528 276.772 240.489 276.627C240.463 276.475 240.487 276.319 240.558 276.182C240.628 276.045 240.741 275.934 240.88 275.867C241.294 275.686 241.747 275.618 242.195 275.668C242.821 275.699 243.436 275.839 244.015 276.08C244.232 276.153 244.433 276.269 244.604 276.421C243.826 276.15 243.012 275.992 242.188 275.952C241.796 275.921 241.402 275.99 241.044 276.151C240.968 276.187 240.906 276.247 240.868 276.321C240.829 276.396 240.816 276.481 240.831 276.563C240.863 276.657 240.915 276.742 240.982 276.814C241.049 276.886 241.131 276.944 241.221 276.983C241.692 277.196 242.214 277.269 242.725 277.192C243.236 277.115 243.713 276.892 244.1 276.549C244.474 276.2 244.718 275.734 244.793 275.228C244.868 274.722 244.769 274.206 244.512 273.763C244.402 273.586 244.229 273.457 244.029 273.401C243.947 273.382 243.861 273.391 243.784 273.426C243.707 273.46 243.643 273.519 243.602 273.593C243.44 273.946 243.391 274.34 243.46 274.723C243.566 275.536 243.819 276.324 244.206 277.047Z" fill="#263238"/>
<path d="M225.202 276.095L223.07 290.608C223.07 290.608 237.206 296.571 237.071 299.293L208.692 297.253L211.065 274.51L225.202 276.095Z" fill="#455A64"/>
<g opacity="0.6">
<path d="M214.47 288.418C214.189 288.473 213.938 288.629 213.765 288.857C213.592 289.085 213.509 289.369 213.532 289.655C213.574 289.937 213.723 290.192 213.948 290.368C214.172 290.544 214.456 290.627 214.74 290.6C215.038 290.541 215.305 290.375 215.489 290.133C215.672 289.89 215.76 289.588 215.735 289.285C215.658 288.996 215.472 288.748 215.217 288.591C214.961 288.435 214.656 288.383 214.363 288.446" fill="white"/>
</g>
<g opacity="0.6">
<path d="M208.706 297.252L208.948 294.957L236.282 297.885C236.561 298.055 236.792 298.293 236.955 298.576C237.117 298.859 237.206 299.179 237.213 299.505L208.706 297.252Z" fill="white"/>
</g>
<path d="M223.546 290.508C223.546 290.65 222.835 290.636 222.124 291.005C221.414 291.375 220.973 291.915 220.852 291.844C220.731 291.773 221.023 291.005 221.911 290.572C222.8 290.138 223.603 290.387 223.546 290.508Z" fill="#263238"/>
<path d="M226.389 292.064C226.389 292.199 225.777 292.37 225.251 292.903C224.726 293.436 224.541 294.04 224.377 294.018C224.214 293.997 224.235 293.201 224.91 292.554C225.586 291.908 226.389 291.929 226.389 292.064Z" fill="#263238"/>
<path d="M227.682 295.795C227.554 295.795 227.441 295.085 227.874 294.374C228.308 293.663 228.99 293.422 229.04 293.542C229.089 293.663 228.642 294.026 228.286 294.623C227.931 295.22 227.81 295.795 227.682 295.795Z" fill="#263238"/>
<path d="M223.674 287.153C223.603 287.274 222.963 287.011 222.202 286.976C221.442 286.94 220.781 287.125 220.724 286.976C220.667 286.826 221.3 286.421 222.224 286.471C223.148 286.521 223.752 287.047 223.674 287.153Z" fill="#263238"/>
<g opacity="0.3">
<path d="M224.775 278.966L224.406 281.553L210.518 279.904L210.76 277.566L224.775 278.966Z" fill="black"/>
</g>
<path d="M224.043 284.218C223.563 284.291 223.073 284.235 222.622 284.055C222.124 283.908 221.647 283.7 221.2 283.436C220.933 283.281 220.677 283.107 220.433 282.917C220.282 282.812 220.15 282.682 220.042 282.534C219.968 282.43 219.928 282.306 219.928 282.178C219.928 282.051 219.968 281.927 220.042 281.823C220.122 281.735 220.221 281.666 220.332 281.623C220.443 281.58 220.563 281.563 220.682 281.574C220.862 281.592 221.039 281.635 221.207 281.702C221.5 281.81 221.783 281.943 222.053 282.1C222.506 282.371 222.916 282.709 223.269 283.102C223.858 283.813 224.022 284.325 223.979 284.346C223.937 284.367 223.638 283.919 223.027 283.344C222.67 283.009 222.271 282.722 221.84 282.491C221.588 282.359 221.327 282.245 221.058 282.15C220.767 282.043 220.511 282.008 220.419 282.15C220.326 282.292 220.383 282.214 220.419 282.313C220.504 282.418 220.601 282.511 220.71 282.59C220.936 282.773 221.174 282.941 221.421 283.095C221.837 283.36 222.277 283.586 222.736 283.77C223.182 283.887 223.619 284.037 224.043 284.218Z" fill="#263238"/>
<path d="M223.844 284.396C223.62 283.958 223.543 283.459 223.624 282.974C223.654 282.445 223.777 281.926 223.986 281.439C224.108 281.151 224.26 280.877 224.441 280.622C224.537 280.442 224.677 280.29 224.849 280.182C225.021 280.074 225.219 280.012 225.422 280.003C225.548 280.021 225.666 280.073 225.763 280.155C225.86 280.237 225.931 280.344 225.969 280.465C226.023 280.638 226.051 280.818 226.055 280.998C226.074 281.319 226.04 281.641 225.955 281.951C225.823 282.482 225.559 282.97 225.188 283.372C224.555 284.047 223.958 284.147 223.958 284.083C223.958 284.019 224.427 283.799 224.925 283.138C225.214 282.759 225.417 282.323 225.522 281.858C225.583 281.588 225.605 281.31 225.586 281.034C225.586 280.728 225.486 280.472 225.372 280.494C225.259 280.515 224.967 280.679 224.825 280.906C224.659 281.129 224.514 281.367 224.392 281.617C224.181 282.068 224.035 282.546 223.958 283.038C223.83 283.848 223.922 284.381 223.844 284.396Z" fill="#263238"/>
<path d="M234.057 155.35C234.057 155.35 240.752 168.192 240.752 178.583C240.752 180.779 227.163 289.79 227.163 289.79L207.974 288.169L217.299 187.453L214.278 166.984L234.057 155.35Z" fill="#263238"/>
<path d="M191.236 166.728C191.236 166.728 195.728 204.261 197.839 218.725C200.049 233.863 204.385 236.72 204.385 236.72L242.735 285.184L255.329 274.019L222.302 224.453C222.302 224.453 215.308 165.271 215.593 166.735C215.877 168.199 191.236 166.728 191.236 166.728Z" fill="#263238"/>
<path d="M205.067 237.346C205.155 237.514 205.262 237.671 205.387 237.815L206.382 239.094L210.028 243.792L221.947 259.428C226.588 265.526 230.824 271.034 233.958 274.964C235.521 276.933 236.801 278.518 237.71 279.584L238.755 280.821C238.872 280.968 239.001 281.106 239.139 281.233C239.048 281.067 238.938 280.912 238.812 280.771C238.563 280.444 238.236 280.017 237.824 279.492L234.207 274.758C231.129 270.735 226.929 265.234 222.288 259.122C217.647 253.01 213.382 247.552 210.248 243.643C208.685 241.674 207.405 240.089 206.496 239.016L205.451 237.786C205.336 237.629 205.207 237.481 205.067 237.346Z" fill="#455A64"/>
<path d="M218.102 188.704C218.092 188.761 218.092 188.818 218.102 188.875L218.144 189.372C218.187 189.846 218.251 190.486 218.336 191.291C218.521 192.983 218.777 195.385 219.104 198.334C219.814 204.304 220.738 212.499 221.776 221.554C221.897 222.549 222.011 223.537 222.124 224.461V224.51V224.546L233.993 242.357C235.493 244.588 236.708 246.386 237.547 247.659C237.959 248.263 238.293 248.732 238.528 249.08L238.791 249.45C238.855 249.528 238.883 249.57 238.89 249.563C238.873 249.515 238.849 249.47 238.819 249.428L238.585 249.044L237.661 247.587L234.207 242.222L222.43 224.34V224.418C222.323 223.487 222.203 222.499 222.089 221.504C221.001 212.456 220.021 204.262 219.31 198.299C218.933 195.349 218.635 192.954 218.421 191.263C218.315 190.46 218.23 189.841 218.166 189.358C218.13 189.159 218.109 188.996 218.087 188.86C218.066 188.725 218.109 188.697 218.102 188.704Z" fill="#455A64"/>
<g opacity="0.3">
<path d="M192.985 180.943C192.985 180.943 207.91 184.873 218.116 183.238C232.551 180.943 240.447 174.34 240.447 174.34L239.16 170.218L192.366 176.124L192.985 180.943Z" fill="black"/>
</g>
<path d="M216.439 95.6704L227.81 98.9397C227.81 98.9397 234.526 146.757 236.19 153.736C238.279 162.485 240.632 169.372 240.454 171.831C240.454 171.831 235.273 178.704 219.999 180.502C204.726 182.3 190.142 178.029 190.142 178.029L188.891 149.337C188.891 149.337 181.841 123.652 181.691 119.366C181.307 108.833 183.866 102.699 183.866 102.699L199.076 95.8836C203.311 100.617 214.178 102.209 216.439 95.6704Z" fill="#FF7F2C"/>
<path d="M237.526 107.71C236.598 105.657 235.256 103.819 233.584 102.31C231.912 100.801 229.946 99.6531 227.81 98.9395L228.784 122.976L235.067 130.83L228.784 135.094L239.338 148.79C239.338 148.79 249.452 144.042 249.899 139.778C250.347 135.513 239.182 111.448 237.526 107.71Z" fill="#FF7F2C"/>
<path d="M208.564 134.191L205.991 143.125C214.868 153.651 239.324 148.768 239.324 148.768L229.594 135.023C224.548 136.693 208.564 134.191 208.564 134.191Z" fill="#FF7F2C"/>
<path d="M206.396 132.919C206.396 132.919 201.833 123.929 201.343 123.822C200.852 123.715 193.674 121.192 193.674 121.192C193.457 121.775 193.457 122.415 193.674 122.998L191.101 123.325C191.101 123.325 191.485 124.917 192.359 125.137L191.428 125.954C191.894 126.575 192.494 127.083 193.184 127.44C193.448 127.57 193.738 127.638 194.033 127.638C194.328 127.638 194.618 127.57 194.882 127.44C194.882 127.44 194.548 128.037 196.027 128.968C197.505 129.899 200.49 134.22 200.49 134.22L206.396 132.919Z" fill="#FFBF9D"/>
<path d="M193.902 123.026C195.417 123.76 196.987 124.373 198.599 124.86C199.253 125.094 199.907 125.272 200.419 125.513C200.872 125.738 201.246 126.095 201.492 126.537C201.918 127.312 202.082 127.873 202.146 127.845C202.116 127.346 201.975 126.861 201.734 126.423C201.494 125.902 201.09 125.475 200.582 125.208C199.978 124.935 199.359 124.698 198.727 124.497C197.158 123.885 195.545 123.393 193.902 123.026Z" fill="#FF9A6C"/>
<path d="M192.231 125.136C192.628 125.376 193.067 125.538 193.525 125.612C194.349 125.833 195.508 126.018 196.737 126.323C197.786 126.585 198.773 127.049 199.644 127.688C200.298 128.199 200.589 128.64 200.646 128.605C200.487 128.158 200.2 127.768 199.822 127.482C198.964 126.742 197.944 126.216 196.844 125.946C195.579 125.605 194.413 125.463 193.582 125.314C193.138 125.213 192.686 125.153 192.231 125.136Z" fill="#FF9A6C"/>
<path d="M198.805 128.925C198.341 128.397 197.749 127.996 197.086 127.76C196.423 127.523 195.711 127.46 195.017 127.575C195.017 127.689 195.92 127.753 196.958 128.129C197.995 128.506 198.734 129.018 198.805 128.925Z" fill="#FF9A6C"/>
<path d="M188.052 102.82C191.3 103.616 192.26 107.433 194.506 115.066C196.752 122.699 199.218 130.56 199.218 130.56L200.49 134.22L228.777 127.39L234.498 136.452C234.498 136.452 216.104 151.064 202.878 151.647C196.439 151.05 192.217 148.634 186.993 139.948C184.022 135.044 182.075 130.496 181.194 126.068C179.964 119.892 177.903 113.851 179.637 108.009C180.995 103.417 183.411 101.683 188.052 102.82Z" fill="#FF7F2C"/>
<path d="M229.573 120.901C229.497 119.614 229.295 118.338 228.969 117.091C228.768 115.817 228.437 114.566 227.981 113.36C228.06 114.646 228.263 115.922 228.585 117.169C228.788 118.443 229.119 119.693 229.573 120.901Z" fill="#263238"/>
<g opacity="0.3">
<path d="M209.594 150.417C211.243 149.737 212.961 149.239 214.719 148.932C216.602 148.648 218.187 149.209 220.07 149.501C225.692 150.382 229.885 149.714 235.187 149.501L235.479 151.128C233.148 152.948 230.212 153.53 227.249 153.474C224.569 153.424 221.932 152.55 219.246 152.628C217.134 152.802 215.05 153.22 213.034 153.872C209.638 154.894 206.068 155.211 202.544 154.803C193.752 153.481 190.362 146.565 188.898 143.346C189.622 144.515 190.434 145.627 191.329 146.672C196.922 152.478 204.953 152.372 209.594 150.417Z" fill="black"/>
</g>
<path d="M235.479 136.53C235.438 136.574 235.392 136.615 235.344 136.651L234.932 136.97C234.562 137.255 234.015 137.681 233.297 138.164C231.875 139.181 229.743 140.602 227.092 142.244C223.966 144.181 220.734 145.944 217.412 147.525C216.474 147.965 215.515 148.427 214.498 148.818L212.97 149.444C212.451 149.643 211.918 149.82 211.385 150.005C209.18 150.793 206.902 151.357 204.584 151.689C203.403 151.811 202.215 151.842 201.03 151.782C199.872 151.665 198.734 151.395 197.647 150.979C195.61 150.164 193.752 148.957 192.182 147.425C189.578 144.799 187.428 141.758 185.821 138.427C184.713 136.211 183.763 133.919 182.978 131.569C182.693 130.737 182.502 130.083 182.381 129.636C182.333 129.427 182.291 129.257 182.253 129.124C182.241 129.065 182.241 129.005 182.253 128.946C182.282 129 182.304 129.057 182.317 129.117L182.48 129.614C182.629 130.055 182.843 130.695 183.141 131.519C183.975 133.846 184.961 136.115 186.091 138.314C187.716 141.594 189.864 144.587 192.452 147.176C193.993 148.674 195.814 149.855 197.811 150.652C198.867 151.059 199.974 151.319 201.101 151.426C202.267 151.488 203.437 151.457 204.598 151.334C206.89 151.004 209.145 150.45 211.328 149.678L212.899 149.124L214.42 148.505C215.429 148.114 216.389 147.667 217.327 147.233C220.625 145.659 223.839 143.916 226.957 142.009C229.637 140.396 231.762 139.01 233.212 138.029L234.889 136.899L235.322 136.608C235.422 136.558 235.472 136.523 235.479 136.53Z" fill="#263238"/>
<path d="M193.752 111.668C193.767 111.826 193.8 111.981 193.852 112.13C193.944 112.457 194.065 112.891 194.207 113.431L195.586 118.236C196.794 122.329 198.429 127.951 200.319 134.269L200.369 134.433L200.554 134.383C201.215 134.22 201.975 134.056 202.757 133.893C209.729 132.4 216.019 130.943 220.525 129.749C222.785 129.166 224.605 128.633 225.856 128.257L227.277 127.795C227.445 127.748 227.609 127.689 227.767 127.617C227.593 127.634 227.421 127.672 227.256 127.731L225.834 128.122C224.569 128.456 222.743 128.946 220.475 129.5C215.948 130.631 209.651 132.045 202.707 133.537C201.933 133.708 201.208 133.857 200.454 134.049L200.689 134.163L195.828 118.164C195.209 116.167 194.705 114.554 194.342 113.396C194.172 112.862 194.029 112.436 193.923 112.109C193.883 111.956 193.826 111.808 193.752 111.668Z" fill="#263238"/>
<path d="M236.85 134.334L248.997 134.113C249.582 134.099 250.149 133.904 250.62 133.556C251.091 133.207 251.442 132.722 251.626 132.166L258.734 110.645C259.267 109.025 258.073 107.71 256.154 107.603L241.285 106.765C238.897 106.765 237.625 107.511 237.22 108.897L232.579 125.848C231.364 129.757 233.34 134.191 236.85 134.334Z" fill="#263238"/>
<path d="M228.215 126.132L230.155 122.017L233.745 121.008L232.6 124.796C233.851 125.407 235.507 125.798 236.588 125.201C237.668 124.604 241.911 120.389 242.714 120.794C243.517 121.2 244.228 122.166 243.496 123.09C242.764 124.014 238.791 126.885 239.608 127.731C240.425 128.577 245.01 124.888 246.353 125.137C247.696 125.386 248.521 126.196 247.774 126.772C247.028 127.347 245.18 129.188 244.853 129.998C244.931 131.008 245.415 132.443 244.974 132.692C243.895 133.203 242.763 133.594 241.598 133.858C241.356 133.858 239.651 134.568 238.08 135.172C236.314 135.887 234.348 135.933 232.551 135.3L231.641 134.981C230.946 134.734 230.344 134.277 229.92 133.674C229.496 133.07 229.27 132.349 229.274 131.612L229.31 128.577L228.215 126.132Z" fill="#FFBF9D"/>
</svg>
