<svg width="309" height="309" viewBox="0 0 309 309" fill="none" xmlns="http://www.w3.org/2000/svg">
<path d="M61.8988 241.014H41.8694V247.929H61.8988V241.014Z" fill="#EBEBEB"/>
<path d="M233.956 90.6294H213.927V97.5448H233.956V90.6294Z" fill="#EBEBEB"/>
<path d="M50.7255 256.649C44.7865 256.742 36.5671 256.933 30.6961 256.927H30.418V256.649V249.734V249.425H30.727C36.635 249.425 44.941 249.48 50.7563 249.579H50.917V249.734L50.7625 256.649H50.7255ZM50.7255 256.649L50.5709 249.734L50.7255 249.888C47.3883 249.925 44.0511 249.987 40.7077 250L30.6961 250.043L31.0051 249.734L30.9742 256.649L30.6961 256.365C36.4435 256.365 44.9101 256.544 50.7255 256.649Z" fill="#EBEBEB"/>
<path d="M110.393 129.538C104.448 129.637 96.2349 129.829 90.3639 129.823H90.0858V129.538V122.623V122.314H90.3948C96.2967 122.314 104.609 122.37 110.424 122.468H110.579V122.617L110.424 129.532L110.393 129.538ZM110.393 129.538L110.239 122.623L110.393 122.777C107.056 122.815 103.713 122.876 100.376 122.895L90.3639 122.932L90.6729 122.623L90.642 129.538L90.3639 129.26C96.1113 129.26 104.541 129.44 110.393 129.538Z" fill="#EBEBEB"/>
<path d="M99.2199 131.343H79.1905V138.259H99.2199V131.343Z" fill="#EBEBEB"/>
<path d="M88.0897 129.538C82.1507 129.637 73.9313 129.829 68.0603 129.823H67.7822V129.538L67.7513 122.623V122.314H68.0603C73.9684 122.314 82.2743 122.37 88.0897 122.468H88.2503V122.617L88.0958 129.532L88.0897 129.538ZM88.0897 129.538L87.9352 122.623L88.0897 122.777C84.7525 122.815 81.4153 122.876 78.0719 122.895L68.0603 122.932L68.3693 122.623V129.538L68.0912 129.26C73.8386 129.26 82.3052 129.44 88.1206 129.538H88.0897Z" fill="#EBEBEB"/>
<path d="M278.304 256.649C272.365 256.742 264.146 256.933 258.275 256.927H257.997V256.649L257.966 249.734V249.425H258.275C264.183 249.425 272.489 249.48 278.304 249.579H278.465V249.734L278.31 256.649H278.304ZM278.304 256.649L278.15 249.734L278.304 249.888C274.967 249.925 271.63 249.987 268.292 250L258.275 250.043L258.584 249.734L258.553 256.649L258.275 256.365C264.028 256.365 272.458 256.544 278.304 256.649Z" fill="#EBEBEB"/>
<path d="M267.13 35.7698C261.192 35.8687 252.972 36.0603 247.101 36.0541H246.823V35.7698L246.792 28.8606V28.5454H247.101C253.009 28.5454 261.315 28.5949 267.13 28.6937H267.291V28.8482L267.137 35.7575L267.13 35.7698ZM267.13 35.7698L266.976 28.8606L267.13 29.0151C263.793 29.0151 260.456 29.1078 257.119 29.1263L247.101 29.1634L247.41 28.8606V35.7698L247.132 35.4917C252.886 35.4917 261.346 35.671 267.161 35.7698H267.13Z" fill="#EBEBEB"/>
<path d="M278.304 37.5811H258.275V44.4965H278.304V37.5811Z" fill="#EBEBEB"/>
<path d="M27.4702 278.903L59.2292 278.755L90.9882 278.699L154.5 278.594L218.012 278.699L249.771 278.755L281.53 278.903L249.771 279.058L218.012 279.107L154.5 279.212L90.9882 279.107L59.2292 279.058L27.4702 278.903Z" fill="#263238"/>
<path d="M196.753 202.402H227.931L243.918 113.453L215.373 100.339L196.753 202.402Z" fill="#FF7F2C"/>
<g opacity="0.4">
<path d="M196.753 202.402H227.931L243.918 113.453L215.373 100.339L196.753 202.402Z" fill="black"/>
</g>
<path d="M112.606 202.402H196.753L215.373 100.339H131.226L112.606 202.402Z" fill="#FF7F2C"/>
<path opacity="0.2" d="M112.606 202.402H196.753L215.373 100.339H131.226L112.606 202.402Z" fill="black"/>
<path d="M90.4938 252.707H187.328V202.402H90.4938V252.707Z" fill="#FF7F2C"/>
<path opacity="0.2" d="M90.4938 252.707H187.328V202.402H90.4938V252.707Z" fill="black"/>
<path d="M90.4938 202.611H187.328V180.66H90.4938V202.611Z" fill="#FF7F2C"/>
<path opacity="0.2" d="M90.4938 202.611H187.328V180.66H90.4938V202.611Z" fill="black"/>
<path d="M90.4999 252.713H103.552L123.001 145.409H90.4999V252.713Z" fill="#FF7F2C"/>
<g opacity="0.4">
<path d="M90.4999 252.713H103.552L123.001 145.409H90.4999V252.713Z" fill="black"/>
</g>
<path d="M64.2411 252.712H90.4938L90.4938 145.409H64.2411L64.2411 252.712Z" fill="#FF7F2C"/>
<path opacity="0.2" d="M64.2411 252.712H90.4938L90.4938 145.409H64.2411L64.2411 252.712Z" fill="black"/>
<path d="M213.581 252.712H261.358V145.409H213.581V252.712Z" fill="#FF7F2C"/>
<g opacity="0.4">
<path d="M213.581 252.712H261.358V145.409H213.581V252.712Z" fill="black"/>
</g>
<path d="M187.328 252.712H213.581V145.409H187.328V252.712Z" fill="#FF7F2C"/>
<path opacity="0.2" d="M187.328 252.712H213.581V145.409H187.328V252.712Z" fill="black"/>
<path d="M207.147 145.409L197.259 145.23L187.371 145.106H187.075V145.409L186.964 156.879L186.92 177.625C186.889 185.27 186.865 192.921 186.92 200.565C186.976 208.21 186.957 215.867 187.056 223.512C187.155 231.156 187.223 238.807 187.384 246.458C187.549 238.807 187.66 231.158 187.718 223.512C187.816 215.867 187.823 208.216 187.847 200.565C187.872 192.914 187.847 185.27 187.847 177.625L187.804 156.879L187.693 145.409L187.39 145.712L197.278 145.588L207.147 145.409Z" fill="#263238"/>
<path d="M90.4999 145.409C90.296 153.085 90.1971 170.03 90.1167 177.706L90.0055 200.739L90.1167 223.772L90.2527 235.285L90.4999 246.798L90.7409 235.285L90.8769 223.772L90.9943 200.739L90.8769 177.706C90.7965 170.03 90.7038 153.085 90.4999 145.409Z" fill="#263238"/>
<path d="M90.4999 202.407C98.9913 202.611 107.483 202.704 115.974 202.784L141.454 202.902L161.848 202.784L174.585 202.649L187.322 202.407L174.585 202.16L161.848 202.024L141.454 201.913L115.974 202.024C107.483 202.086 98.9913 202.204 90.4999 202.407Z" fill="#263238"/>
<path d="M90.4999 180.654C98.9913 180.858 107.483 180.956 115.974 181.037L141.454 181.148L161.848 181.037L174.585 180.901L187.322 180.654L174.585 180.413L161.848 180.277L141.454 180.159L115.974 180.277C107.483 180.357 98.9913 180.456 90.4999 180.654Z" fill="#263238"/>
<path d="M243.202 252.712L243.85 260.654L245.358 279.002H252.274L253.782 260.654L254.431 252.712H243.202Z" fill="#C7C7C7"/>
<path d="M254.431 252.712H243.202L243.85 260.654H253.782L254.431 252.712Z" fill="#A6A6A6"/>
<path d="M194.843 252.712L195.486 260.654L196.994 279.002H203.915L205.423 260.654L206.072 252.712H194.843Z" fill="#C7C7C7"/>
<path d="M206.072 252.712H194.843L195.486 260.654H205.423L206.072 252.712Z" fill="#A6A6A6"/>
<path d="M119.707 252.712L120.356 260.654L121.863 279.002H128.779L130.287 260.654L130.936 252.712H119.707Z" fill="#C7C7C7"/>
<path d="M130.936 252.712H119.707L120.356 260.654H130.287L130.936 252.712Z" fill="#A6A6A6"/>
<path d="M71.3358 252.712L71.9847 260.654L73.4926 279.002H80.408L81.9159 260.654L82.5648 252.712H71.3358Z" fill="#C7C7C7"/>
<path d="M71.3358 252.712L71.9847 260.654H81.9159L82.5648 252.712H71.3358Z" fill="#A6A6A6"/>
<g opacity="0.2">
<path d="M204.243 143.914C204.368 143.927 204.484 143.987 204.569 144.081C204.653 144.175 204.7 144.297 204.7 144.423C204.7 144.55 204.653 144.672 204.569 144.766C204.484 144.86 204.368 144.919 204.243 144.933C204.117 144.919 204.001 144.86 203.917 144.766C203.833 144.672 203.786 144.55 203.786 144.423C203.786 144.297 203.833 144.175 203.917 144.081C204.001 143.987 204.117 143.927 204.243 143.914Z" fill="black"/>
<path d="M203.371 206.331C203.497 206.345 203.613 206.405 203.697 206.499C203.782 206.593 203.828 206.715 203.828 206.841C203.828 206.967 203.782 207.089 203.697 207.183C203.613 207.277 203.497 207.337 203.371 207.351C203.246 207.337 203.13 207.277 203.046 207.183C202.961 207.089 202.915 206.967 202.915 206.841C202.915 206.715 202.961 206.593 203.046 206.499C203.13 206.405 203.246 206.345 203.371 206.331Z" fill="black"/>
<path d="M233.252 112.772C233.252 112.723 233.301 112.667 233.332 112.618C233.352 112.583 233.381 112.554 233.416 112.534C233.45 112.514 233.49 112.504 233.53 112.504C233.57 112.504 233.609 112.514 233.644 112.534C233.679 112.554 233.708 112.583 233.728 112.618C233.759 112.667 233.783 112.723 233.808 112.772C234.098 113.378 232.986 113.378 233.252 112.772Z" fill="black"/>
<path d="M225.045 207.648C225.066 207.595 225.09 207.543 225.119 207.493C225.139 207.459 225.168 207.43 225.203 207.41C225.237 207.39 225.277 207.379 225.317 207.379C225.357 207.379 225.396 207.39 225.431 207.41C225.465 207.43 225.494 207.459 225.514 207.493C225.547 207.541 225.574 207.593 225.595 207.648C225.885 208.223 224.754 208.223 225.045 207.648Z" fill="black"/>
<path d="M199.855 147.028C199.958 147.028 200.057 147.069 200.13 147.142C200.203 147.215 200.244 147.314 200.244 147.418C200.244 147.521 200.203 147.62 200.13 147.693C200.057 147.766 199.958 147.807 199.855 147.807C199.752 147.807 199.653 147.766 199.58 147.693C199.507 147.62 199.466 147.521 199.466 147.418C199.466 147.314 199.507 147.215 199.58 147.142C199.653 147.069 199.752 147.028 199.855 147.028Z" fill="black"/>
<path d="M132.332 222.17C132.458 222.184 132.574 222.244 132.658 222.338C132.743 222.432 132.789 222.554 132.789 222.68C132.789 222.807 132.743 222.928 132.658 223.023C132.574 223.117 132.458 223.176 132.332 223.19C132.207 223.176 132.091 223.117 132.007 223.023C131.922 222.928 131.876 222.807 131.876 222.68C131.876 222.554 131.922 222.432 132.007 222.338C132.091 222.244 132.207 222.184 132.332 222.17Z" fill="black"/>
<path d="M176.699 235.149C176.802 235.149 176.901 235.19 176.974 235.263C177.047 235.336 177.088 235.435 177.088 235.538C177.088 235.642 177.047 235.741 176.974 235.814C176.901 235.887 176.802 235.928 176.699 235.928C176.595 235.928 176.496 235.887 176.423 235.814C176.35 235.741 176.309 235.642 176.309 235.538C176.309 235.435 176.35 235.336 176.423 235.263C176.496 235.19 176.595 235.149 176.699 235.149Z" fill="black"/>
<path d="M232.621 186.586C232.725 186.586 232.824 186.627 232.897 186.7C232.97 186.773 233.011 186.872 233.011 186.976C233.011 187.079 232.97 187.178 232.897 187.251C232.824 187.324 232.725 187.365 232.621 187.365C232.518 187.365 232.419 187.324 232.346 187.251C232.273 187.178 232.232 187.079 232.232 186.976C232.232 186.872 232.273 186.773 232.346 186.7C232.419 186.627 232.518 186.586 232.621 186.586Z" fill="black"/>
<path d="M181.463 125.281C181.566 125.183 181.702 125.128 181.843 125.128C181.985 125.128 182.121 125.183 182.224 125.281C182.317 125.377 182.384 125.496 182.416 125.627C182.449 125.757 182.446 125.893 182.409 126.022C182.361 126.132 182.281 126.225 182.181 126.291C182.081 126.356 181.963 126.391 181.843 126.391C181.724 126.391 181.606 126.356 181.506 126.291C181.406 126.225 181.326 126.132 181.278 126.022C181.241 125.893 181.238 125.757 181.271 125.627C181.303 125.496 181.37 125.377 181.463 125.281Z" fill="black"/>
<path d="M199.095 203.446C199.197 203.344 199.334 203.288 199.478 203.288C199.622 203.288 199.759 203.344 199.861 203.446C199.954 203.541 200.02 203.659 200.052 203.788C200.085 203.917 200.083 204.053 200.047 204.181C199.999 204.292 199.92 204.387 199.819 204.454C199.718 204.521 199.599 204.557 199.478 204.557C199.357 204.557 199.238 204.521 199.137 204.454C199.036 204.387 198.957 204.292 198.909 204.181C198.872 204.053 198.869 203.917 198.902 203.788C198.935 203.659 199.001 203.54 199.095 203.446Z" fill="black"/>
<path d="M248.436 236.28C248.537 236.179 248.674 236.123 248.816 236.123C248.959 236.123 249.095 236.179 249.196 236.28C249.29 236.375 249.356 236.493 249.389 236.622C249.422 236.752 249.419 236.887 249.382 237.015C249.333 237.125 249.254 237.218 249.154 237.284C249.053 237.349 248.936 237.384 248.816 237.384C248.696 237.384 248.579 237.349 248.479 237.284C248.378 237.218 248.299 237.125 248.251 237.015C248.213 236.887 248.211 236.752 248.243 236.622C248.276 236.493 248.342 236.375 248.436 236.28Z" fill="black"/>
<path d="M109.856 116.499C109.73 116.485 109.614 116.426 109.53 116.332C109.446 116.238 109.399 116.116 109.399 115.989C109.399 115.863 109.446 115.741 109.53 115.647C109.614 115.553 109.73 115.493 109.856 115.479C109.981 115.493 110.097 115.553 110.182 115.647C110.266 115.741 110.312 115.863 110.312 115.989C110.312 116.116 110.266 116.238 110.182 116.332C110.097 116.426 109.981 116.485 109.856 116.499Z" fill="black"/>
<path d="M103.138 208.705C103.013 208.691 102.896 208.631 102.812 208.537C102.728 208.443 102.681 208.321 102.681 208.195C102.681 208.069 102.728 207.947 102.812 207.853C102.896 207.759 103.013 207.699 103.138 207.685C103.264 207.699 103.38 207.759 103.464 207.853C103.548 207.947 103.595 208.069 103.595 208.195C103.595 208.321 103.548 208.443 103.464 208.537C103.38 208.631 103.264 208.691 103.138 208.705Z" fill="black"/>
<path d="M128.501 140.601C128.375 140.587 128.259 140.528 128.175 140.434C128.091 140.34 128.044 140.218 128.044 140.091C128.044 139.965 128.091 139.843 128.175 139.749C128.259 139.655 128.375 139.595 128.501 139.582C128.626 139.595 128.742 139.655 128.827 139.749C128.911 139.843 128.957 139.965 128.957 140.091C128.957 140.218 128.911 140.34 128.827 140.434C128.742 140.528 128.626 140.587 128.501 140.601Z" fill="black"/>
<path d="M80.9951 203.89C80.9731 203.942 80.9462 203.992 80.9147 204.039C80.8946 204.073 80.8658 204.102 80.8311 204.122C80.7964 204.142 80.757 204.152 80.717 204.152C80.6769 204.152 80.6376 204.142 80.6029 204.122C80.5682 204.102 80.5393 204.073 80.5192 204.039C80.5192 203.989 80.4636 203.94 80.4451 203.89C80.1546 203.285 81.2855 203.285 80.9951 203.89Z" fill="black"/>
<path d="M74.8522 160.39C74.8303 160.444 74.8034 160.495 74.7718 160.544C74.7517 160.579 74.7229 160.608 74.6882 160.628C74.6535 160.648 74.6141 160.658 74.5741 160.658C74.534 160.658 74.4947 160.648 74.46 160.628C74.4253 160.608 74.3964 160.579 74.3763 160.544C74.3763 160.495 74.3207 160.439 74.3022 160.39C74.0117 159.784 75.1426 159.784 74.8522 160.39Z" fill="black"/>
<path d="M76.4589 231.175C76.4589 231.224 76.4095 231.274 76.3848 231.323C76.3647 231.358 76.3358 231.387 76.3011 231.407C76.2664 231.427 76.2271 231.437 76.187 231.437C76.147 231.437 76.1076 231.427 76.0729 231.407C76.0382 231.387 76.0094 231.358 75.9893 231.323C75.9893 231.274 75.9336 231.224 75.9089 231.175C75.6185 230.569 76.7494 230.569 76.4589 231.175Z" fill="black"/>
<path d="M144.062 173.151C143.961 173.252 143.824 173.309 143.682 173.309C143.539 173.309 143.403 173.252 143.302 173.151C143.208 173.057 143.142 172.938 143.109 172.809C143.076 172.68 143.079 172.544 143.116 172.416C143.165 172.306 143.244 172.213 143.344 172.148C143.445 172.082 143.562 172.047 143.682 172.047C143.802 172.047 143.919 172.082 144.019 172.148C144.12 172.213 144.199 172.306 144.247 172.416C144.285 172.544 144.287 172.68 144.255 172.809C144.222 172.938 144.156 173.057 144.062 173.151Z" fill="black"/>
<path d="M69.9638 162.688C69.8614 162.786 69.7253 162.841 69.5837 162.841C69.4421 162.841 69.306 162.786 69.2036 162.688C69.11 162.593 69.0434 162.475 69.0108 162.346C68.9782 162.216 68.9808 162.081 69.0182 161.953C69.0666 161.843 69.1458 161.75 69.2462 161.684C69.3466 161.619 69.4639 161.584 69.5837 161.584C69.7036 161.584 69.8208 161.619 69.9212 161.684C70.0216 161.75 70.1008 161.843 70.1492 161.953C70.186 162.081 70.1882 162.216 70.1557 162.345C70.1231 162.475 70.0569 162.593 69.9638 162.688Z" fill="black"/>
</g>
<path d="M48.204 255.005C49.9468 256.019 103.552 267.229 105.863 266.364C106.747 266.037 108.83 258.33 111.092 248.937C111.58 246.91 112.068 244.815 112.556 242.682C115.733 228.839 118.786 214.081 118.786 214.081L82.9418 206.48L77.7012 235.291L76.5332 241.638C76.5332 241.638 54.0874 246.526 51.6525 247.75C49.2176 248.974 46.4427 253.998 48.204 255.005Z" fill="#FFBF9D"/>
<path d="M110.202 252.521C108.292 260.222 106.611 266.08 105.876 266.365C103.564 267.23 49.9529 256.019 48.2163 255C46.4797 253.98 49.2546 248.949 51.6771 247.719C53.185 246.972 62.3005 244.821 69.0676 243.282C63.1596 244.697 52.1344 248.702 74.9386 250.352C93.7629 251.724 106.203 252.342 110.202 252.521Z" fill="#263238"/>
<path d="M96.5687 282.426C98.5092 282.964 153.202 280.14 155.217 278.718C155.989 278.181 153.882 256.223 153.307 254.109C151.367 246.947 142.14 225.403 142.14 225.403L105.548 227.189L120.578 262.248C120.578 262.248 100.122 272.693 98.0766 274.497C96.031 276.302 94.622 281.876 96.5687 282.426Z" fill="#FFBF9D"/>
<path d="M155.217 278.718C153.202 280.152 98.5154 282.976 96.5625 282.426C94.6096 281.876 96.0249 276.295 98.0581 274.497C99.016 273.657 103.96 270.95 108.972 268.317C102.681 271.858 92.7309 279.75 154.648 265.678C155.211 271.92 155.631 278.421 155.217 278.718Z" fill="#263238"/>
<path d="M181.414 174.276C170.512 186.419 133.89 176.828 131.696 181.692C129.768 185.95 154.76 254.393 154.76 254.393L114.769 258.719C114.769 258.719 80.2411 183.132 92.5826 161.292C99.2508 149.494 128.624 154.197 146.349 152.022C151.694 151.404 154.21 140.341 154.21 140.341H185.882C185.882 140.341 193.873 160.371 181.414 174.276Z" fill="#263238"/>
<path d="M103.7 154.457L137.289 180.159C148.413 179.924 172.855 183.787 181.408 174.245C193.873 160.365 185.882 140.298 185.882 140.298H154.21C154.21 140.298 151.694 151.323 146.349 151.972C133.908 153.486 115.745 151.626 103.7 154.457Z" fill="#37474F"/>
<path d="M113.236 249.727C114.342 249.381 124.712 248.225 126.999 247.978C131.578 247.484 145.99 246.124 148.629 246.124C148.645 246.124 148.661 246.131 148.673 246.142C148.684 246.154 148.691 246.169 148.691 246.186C148.691 246.202 148.684 246.218 148.673 246.23C148.661 246.241 148.645 246.248 148.629 246.248C146.361 246.723 137.165 247.793 134.878 248.027C130.293 248.503 114.546 250.03 113.248 249.881C113.236 249.873 113.226 249.862 113.218 249.849C113.211 249.836 113.206 249.822 113.205 249.807C113.204 249.792 113.206 249.777 113.211 249.764C113.217 249.75 113.225 249.737 113.236 249.727Z" fill="#37474F"/>
<path d="M126.845 177.625C129.415 176.346 148.913 176.977 162.899 175.673C167.459 175.24 172.026 174.27 175.506 171.285C178.542 168.551 180.708 164.986 181.735 161.032C183.076 156.249 182.94 151.268 182.706 146.373C182.65 145.168 182.57 143.963 182.495 142.758C182.495 142.69 182.613 142.678 182.619 142.758C183.682 151.527 184.473 161.298 178.794 168.924C176.259 172.253 172.66 174.613 168.597 175.611C160.161 177.829 128.427 177.279 127.327 178.138C125.992 179.158 146.485 241.582 146.905 242.769C146.985 242.991 146.59 243.146 146.497 242.923C144.476 238.121 124.607 178.738 126.845 177.625Z" fill="#37474F"/>
<path d="M91.1489 163.337C93.0029 158.548 97.3289 155.569 103.663 154.426C103.768 154.426 103.762 154.568 103.663 154.593C98.1446 156.212 94.1956 158.43 92.0264 163.09C91.0129 165.265 90.4876 168.325 90.2219 172.422C88.9117 192.859 106.747 239.259 107.112 240.068C107.119 240.083 107.12 240.1 107.115 240.116C107.11 240.131 107.099 240.144 107.084 240.152C107.069 240.159 107.052 240.16 107.037 240.155C107.021 240.15 107.008 240.139 107.001 240.124C104.485 235.897 83.3621 183.095 91.1489 163.337Z" fill="#37474F"/>
<path d="M76.6876 233.455L106.97 239.895C106.97 239.895 83.0777 168.59 94.3006 159.388C97.3906 156.836 104.189 155.946 112.223 159.425C124.255 164.623 138.179 175.221 151.311 179.096C163.609 182.724 178.206 179.387 183.231 173.856C193.786 162.243 185.845 140.286 185.845 140.286L142.295 138.654C142.295 138.654 142.913 139.18 140.867 141.021C140.867 141.021 115.269 135.218 104.145 142.016C84.1098 154.271 76.6876 233.455 76.6876 233.455Z" fill="#263238"/>
<path d="M167.064 142.832C167.069 142.815 167.079 142.8 167.093 142.79C167.107 142.779 167.124 142.773 167.141 142.773C167.159 142.773 167.176 142.779 167.19 142.79C167.204 142.8 167.214 142.815 167.218 142.832C167.18 144.468 167.306 146.103 167.595 147.714C167.932 149.245 168.69 150.651 169.783 151.774C172.169 154.191 175.599 155.012 178.726 155.995C178.892 156.051 178.862 156.341 178.676 156.31C175.203 155.779 171.551 154.901 169.011 152.293C167.848 151.09 167.067 149.57 166.767 147.924C166.442 146.228 166.544 144.478 167.064 142.832Z" fill="#37474F"/>
<path d="M95.0546 158.028C99.7082 155.105 106.988 157.324 110.474 158.646C110.548 158.646 110.511 158.795 110.437 158.764C107.235 157.614 99.257 155.865 94.9866 158.887C85.0986 165.871 98.3177 213.611 106.97 239.883C107.099 240.297 106.778 240.185 106.593 239.79C105.171 236.7 94.0226 203.476 91.1118 181.506C90.673 178.144 88.374 162.237 95.0546 158.028Z" fill="#37474F"/>
<path d="M80.1422 225.403C81.0569 225.403 88.9055 227.109 90.6482 227.498C94.1029 228.277 102.118 230.353 103.991 231.07C104.04 231.07 103.991 231.188 103.954 231.188C102.155 231.015 97.9777 230.1 96.2597 229.698C92.7989 228.895 80.9642 226.052 80.099 225.589C80.0063 225.57 80.0495 225.403 80.1422 225.403Z" fill="#37474F"/>
<path d="M96.5377 156.787C99.671 155.075 103.398 154.797 106.877 155.223C110.548 155.776 114.113 156.891 117.445 158.53C124.527 161.768 131.276 165.729 138.37 168.949C145.465 172.169 152.949 174.659 160.723 174.9C167.367 175.104 175.778 173.93 180.048 167.954C186.63 158.746 182.798 142.869 182.718 141.844C182.718 141.763 182.823 141.769 182.841 141.844C187.946 161.36 181.377 168.937 176.946 172.126C173.423 174.659 168.362 175.296 165.018 175.58C157.287 176.229 149.568 174.344 142.369 171.483C135.027 168.56 128.155 164.617 121.103 161.02C114.33 157.59 106.834 154.006 99.1272 155.983C98.2525 156.215 97.3954 156.508 96.5625 156.861C96.5254 156.88 96.4945 156.812 96.5377 156.787Z" fill="#37474F"/>
<path d="M159.184 104.325C150.78 119.157 141.578 132.135 133.525 133.785C124.935 135.528 107.26 118.477 103.082 112.507C101.537 110.301 118.038 101.291 120.244 103.145C124.397 106.63 132.32 111.964 133.655 111.741C134.99 111.519 144.921 103.787 155.402 95.6422C161.755 90.7044 165.006 94.0478 159.184 104.325Z" fill="#FFBF9D"/>
<path d="M105.017 115.096C105.017 115.096 96.8097 104.226 95.3698 101.5C93.9298 98.7749 88.9055 87.138 91.4208 85.525C94.7703 83.3743 100.518 96.6799 101.185 97.335C101.853 97.99 114.633 99.5289 117.698 101.315C119.612 102.453 121.323 103.903 122.76 105.604C122.76 105.604 113.86 114.138 105.017 115.096Z" fill="#FFBF9D"/>
<path d="M90.673 72.1639L107.26 59.8843L118.001 90.3022L101.5 100.58L90.673 72.1639Z" fill="#37474F"/>
<path d="M92.7433 72.0653L106.846 61.8003L107.421 62.9127L115.727 86.3102C114.498 87.6054 113.366 88.9893 112.34 90.4508C111.03 92.4284 107.223 98.7752 102.909 99.1708L92.7433 72.0653Z" fill="white"/>
<path d="M93.3613 73.9193C93.3613 73.9193 97.1002 72.0653 99.0036 70.0259C100.907 67.9865 102.742 65.7679 104.275 64.7852C105.808 63.8026 107.365 62.7829 107.365 62.7829L106.858 61.8003L92.7556 72.0653L93.3613 73.9193Z" fill="#EBEBEB"/>
<path d="M125.318 101.624L99.8874 101.42L90.673 72.1635L117.259 70.2168L125.318 101.624Z" fill="#455A64"/>
<path d="M97.3412 81.5329C95.9569 82.7689 97.9592 98.1386 98.0581 98.8369C98.1569 99.5352 99.9121 102.631 99.9121 102.631L106.45 100.598C106.45 100.598 103.472 95.0362 103.36 93.3614C103.249 91.6867 101.556 77.8249 97.3412 81.5329Z" fill="#FFBF9D"/>
<path d="M97.2115 91.0562C97.8295 94.8569 98.3115 98.6761 98.9233 102.477C97.5213 98.8417 96.9368 94.9425 97.2115 91.0562Z" fill="#263238"/>
<path d="M105.962 83.8255C109.411 82.5895 107.989 90.3578 107.279 93.1882C106.481 96.3647 107.897 103.175 107.897 103.175L100.672 103.472C100.672 103.472 100.672 96.0557 100.938 93.7321C101.154 92.0449 104.09 84.4868 105.962 83.8255Z" fill="#FFBF9D"/>
<path d="M102.705 88.5532C102.279 90.3392 101.469 92.1932 101.241 93.9607C101.19 95.8562 101.023 97.7467 100.74 99.6216C100.541 97.7288 100.506 95.8225 100.635 93.9236C100.926 91.9955 101.871 90.2774 102.705 88.5532Z" fill="#263238"/>
<path d="M106.741 102.841C106.741 102.841 107.977 97.0381 108.595 96.1791C109.213 95.3201 112.352 89.7025 113.477 89.6963C114.602 89.6901 115.949 92.3846 115.288 94.2819C114.274 97.1185 113.607 98.7315 113.545 99.5905C113.483 100.449 116.493 103.916 116.493 103.916L106.741 102.841Z" fill="#FFBF9D"/>
<path d="M108.935 95.6421C107.878 97.9596 107.909 100.53 106.741 102.842C106.957 100.37 107.273 97.5455 108.935 95.6421Z" fill="#263238"/>
<path d="M113.545 99.5908C114.627 101.093 115.832 102.495 116.493 104.275C115.439 103.343 114.58 102.211 113.965 100.944C113.721 100.532 113.577 100.069 113.545 99.5908Z" fill="#263238"/>
<path d="M124.589 102.322L107.39 119.429C107.39 119.429 124.329 137.833 132.641 136.04C140.953 134.248 155.563 114.41 161.014 100.388C164.79 90.6853 159.283 92.0882 153.394 96.7108C147.504 101.333 133.853 110.807 133.204 110.622C132.555 110.437 124.589 102.322 124.589 102.322Z" fill="#302CFF"/>
<path d="M154.654 112.952L154.568 113.094C152.513 113.376 150.426 113.324 148.388 112.939C144.543 112.062 140.962 110.285 137.938 107.754L138.117 107.637C141.097 110.142 144.623 111.912 148.413 112.803C150.474 113.17 152.578 113.22 154.654 112.952ZM122.982 103.935L122.58 104.343C123.686 104.156 124.78 103.903 125.856 103.583L125.578 103.305C124.724 103.561 123.858 103.771 122.982 103.935ZM152.943 97.0815L152.603 97.3411C154.152 97.7662 155.663 98.3202 157.12 98.9973C158.396 99.5711 159.619 100.258 160.773 101.049C160.816 100.944 160.859 100.833 160.896 100.728C158.46 99.0782 155.765 97.8459 152.924 97.0815H152.943ZM137.765 133.383C137.775 133.385 137.785 133.385 137.795 133.383H137.746L137.418 133.463C133.142 134.483 128.766 134.742 124.36 133.148C123.538 132.882 122.729 132.575 121.938 132.227C122.389 132.53 122.846 132.845 123.297 133.105C124.681 133.593 126.101 133.975 127.543 134.248C130.787 134.785 134.11 134.615 137.282 133.747L137.678 133.649L137.993 133.568L137.765 133.383ZM137.765 133.383C134.199 130.713 130.818 127.716 127.438 125.089C124.348 122.784 120.85 120.232 116.808 120.411C114.459 120.544 112.155 121.108 110.01 122.073L110.208 122.271C111.801 121.593 113.472 121.114 115.183 120.844C119.756 119.96 123.792 122.698 127.265 125.349C130.602 127.914 133.945 130.837 137.462 133.463L137.591 133.556L137.721 133.649L138.036 133.568L137.765 133.383Z" fill="white"/>
<path opacity="0.1" d="M161.014 100.388L160.754 101.049C155.106 115.022 140.83 134.273 132.641 136.04C130.985 136.399 128.983 135.954 126.838 135.008C135.107 123.823 147.529 106.129 156.842 94.3686C157.145 94.2018 157.46 94.0473 157.726 93.9113L158.097 93.7383L158.19 93.7012C158.319 93.6456 158.449 93.5899 158.579 93.5467C158.709 93.5034 158.808 93.4602 158.925 93.4231C159.095 93.3639 159.268 93.3144 159.444 93.2748C159.538 93.2489 159.632 93.2283 159.728 93.213C159.842 93.1879 159.958 93.1713 160.074 93.1635C160.375 93.1033 160.686 93.1186 160.98 93.2082C161.273 93.2977 161.539 93.4586 161.755 93.6765C161.798 93.721 161.837 93.7685 161.873 93.8186C162.534 94.7889 162.392 96.8468 161.014 100.388Z" fill="black"/>
<path d="M112.692 122.537C115.164 120.177 125.009 110.177 126.987 107.866C127.123 107.705 127.055 107.575 126.888 107.724C119.274 114.602 114.948 119.997 112.606 122.432C112.544 122.494 112.63 122.593 112.692 122.537Z" fill="#263238"/>
<path d="M141.961 141.219L188.855 145.23C188.855 145.23 184.028 123.241 177.181 105.876C169.839 87.2799 159.908 92.2301 156.385 95.1903C152.207 98.6944 143.938 111.876 143.32 114.46C142.301 118.699 145.836 123.532 145.836 123.532L141.961 141.219Z" fill="#302CFF"/>
<path d="M160.204 123.6C158.266 123.518 156.324 123.582 154.395 123.791C153.437 123.902 152.491 124.063 151.54 124.242C151.07 124.335 150.6 124.409 150.124 124.477C149.629 124.568 149.125 124.597 148.623 124.564C148.617 124.561 148.611 124.56 148.605 124.561C148.599 124.561 148.593 124.563 148.588 124.567C148.582 124.57 148.578 124.575 148.575 124.58C148.572 124.586 148.571 124.592 148.571 124.598C148.571 124.604 148.572 124.61 148.575 124.615C148.578 124.621 148.582 124.625 148.588 124.629C148.593 124.632 148.599 124.634 148.605 124.635C148.611 124.635 148.617 124.634 148.623 124.632C149.088 124.716 149.559 124.77 150.032 124.792C150.495 124.797 150.957 124.77 151.416 124.712C152.386 124.607 153.35 124.453 154.321 124.335C156.286 124.094 158.239 123.859 160.216 123.76C160.297 123.748 160.297 123.6 160.204 123.6Z" fill="#263238"/>
<path d="M164.716 125.911C163.159 125.54 161.582 125.255 159.994 125.058C159.197 124.966 158.406 124.916 157.602 124.892C157.219 124.892 156.842 124.892 156.459 124.892C156.076 124.892 155.612 124.941 155.223 124.935C155.18 124.935 155.174 125.003 155.223 125.003C155.619 125.003 156.014 125.108 156.41 125.151L157.596 125.275C158.393 125.361 159.184 125.454 159.982 125.528C161.57 125.683 163.152 125.856 164.74 126.066C164.79 126.072 164.796 125.93 164.716 125.911Z" fill="#263238"/>
<path d="M177.694 107.185C175.731 107.4 173.789 107.77 171.884 108.292L171.408 108.421C168.127 109.318 164.87 110.504 161.656 111.511C157.398 112.785 152.862 113.848 148.413 112.958C147.091 112.674 145.799 112.27 144.55 111.752L144.631 111.604C145.86 112.13 147.134 112.543 148.437 112.84C155.983 114.255 163.517 110.547 171.143 108.329L171.606 108.193C173.566 107.62 175.568 107.206 177.595 106.957C177.626 107.012 177.656 107.099 177.694 107.185ZM178.93 110.504C177.326 110.293 175.756 109.878 174.257 109.268C173.45 108.974 172.658 108.64 171.884 108.267L171.606 108.131C165.018 104.874 162.089 99.9919 154.172 97.4272L153.931 97.7177C155.009 98.0738 156.067 98.4863 157.102 98.9537C161.224 100.777 164.456 103.972 168.145 106.499C169.102 107.152 170.104 107.737 171.143 108.248C171.228 108.298 171.317 108.341 171.408 108.378C173.317 109.303 175.327 110.002 177.397 110.461C177.941 110.584 178.491 110.677 179.035 110.751C178.998 110.702 178.96 110.622 178.93 110.504ZM175.222 132.956L175.079 132.845C171.733 130.004 167.713 128.07 163.405 127.227C158.925 126.498 154.432 127.728 150.223 129.155C148.203 129.854 146.169 130.632 144.124 131.368L144.081 131.553C150.514 129.168 156.873 126.387 163.381 127.363C167.626 128.212 171.585 130.126 174.888 132.925L175.024 133.036C179.195 136.448 182.736 140.829 186.234 144.97L186.667 145.007C183.083 140.866 179.467 136.411 175.215 132.956H175.222ZM184.597 128.426C181.251 129.492 178.053 130.977 175.079 132.845L174.888 132.956C168.825 136.528 162.936 140.607 156.187 140.823C151.299 140.823 146.948 139.21 142.919 136.856L142.869 137.078C146.923 139.408 151.293 140.984 156.187 140.965C160.723 140.873 164.926 138.858 168.813 136.695C170.877 135.533 172.935 134.266 175.024 133.067L175.222 132.956C178.187 131.159 181.36 129.729 184.671 128.698L184.597 128.426Z" fill="white"/>
<path d="M172.125 96.7846C186.407 110.486 204.453 137.115 201.357 143.209C197.908 150.007 178.25 131.467 178.293 130.299C178.324 129.427 171.044 113.471 165.525 100.523C160.006 87.5764 168.597 93.3917 172.125 96.7846Z" fill="#FFBF9D"/>
<path d="M178.163 130.324C177.545 128.421 167.626 106.791 164.771 99.3622C161.916 91.9338 164.308 89.536 172.064 96.2042C179.819 102.872 196.586 122.401 200.702 134.52C204.669 146.157 199.033 147.449 190.906 142.258C184.257 137.975 178.163 130.324 178.163 130.324Z" fill="#302CFF"/>
<path d="M182.699 107.192C179.072 106.772 175.463 107.347 171.884 108.292L171.408 108.422C170.568 108.651 169.728 108.898 168.893 109.164C168.868 109.113 168.845 109.062 168.825 109.009C169.598 108.756 170.37 108.515 171.143 108.292L171.606 108.156C175.191 107.149 178.8 106.494 182.44 106.92L182.699 107.192ZM185.406 110.406C181.665 111.036 177.824 110.652 174.282 109.293C173.475 109 172.683 108.666 171.909 108.292L171.631 108.156C170.136 107.407 168.705 106.534 167.354 105.548C167.435 105.746 167.521 105.944 167.608 106.166L168.17 106.562C169.127 107.215 170.128 107.799 171.167 108.311C171.253 108.36 171.342 108.404 171.433 108.441C173.342 109.365 175.351 110.064 177.422 110.523C180.122 111.09 182.905 111.136 185.622 110.659L185.406 110.406ZM198.174 128.816C195.594 128.026 192.912 127.622 190.214 127.617C186.067 127.617 182.273 128.995 178.614 130.874L178.756 131.047C183.348 128.76 188.162 127.234 193.539 128.124C195.192 128.346 196.821 128.724 198.403 129.255L198.174 128.816Z" fill="white"/>
<path d="M179.43 133.364C178.59 131.134 177.712 128.915 176.835 126.702C175.957 124.49 175.042 122.29 174.152 120.084L171.39 113.49L169.987 110.202C169.505 109.114 169.035 108.02 168.547 106.933C168.961 108.051 169.4 109.157 169.826 110.27L171.143 113.588L173.825 120.213C174.746 122.414 175.679 124.614 176.587 126.808C177.496 129.001 178.454 131.189 179.43 133.364Z" fill="#263238"/>
<path d="M170.568 112.081C170.281 111.523 169.955 110.986 169.592 110.474C169.412 110.22 169.227 109.967 169.035 109.72C168.844 109.473 168.646 109.232 168.448 108.984C168.692 109.565 169.003 110.114 169.375 110.622C169.731 111.141 170.13 111.629 170.568 112.081Z" fill="#263238"/>
<path d="M201.221 143.735C197.42 147.937 189.479 148.024 167.045 149.563C163.955 149.779 155.921 127.865 159.228 127.463C163.381 126.962 179.622 125.918 180.814 125.992C190.913 126.61 203.792 140.904 201.221 143.735Z" fill="#FFBF9D"/>
<path d="M166.749 127.994C166.749 127.994 158.4 126.461 152.887 125.72C149.797 125.306 144.482 125.065 142.084 125.794C138.5 126.881 124.199 133.729 125.788 137.233C127.221 140.403 138.766 132.963 138.766 132.963C138.766 132.963 126.461 139.439 128.878 142.943C131.294 146.447 143.228 136.3 143.228 136.3C143.228 136.3 130.738 143.24 133.809 146.466C136.139 148.895 147.449 140.317 147.449 140.317C147.449 140.317 136.751 146.361 139.031 148.969C141.559 151.842 152.498 144.581 152.498 144.581C159.444 150.174 165.006 150.044 168.98 149.463C169.95 149.321 166.749 127.994 166.749 127.994Z" fill="#FFBF9D"/>
<path d="M142.875 130.447C141.398 131.158 139.903 131.863 138.5 132.703C137.097 133.544 135.713 134.427 134.396 135.391C132.642 136.613 131.037 138.036 129.613 139.631C132.351 136.992 137.338 133.914 138.741 133.08C140.144 132.246 141.503 131.337 142.906 130.497C142.943 130.478 142.906 130.429 142.875 130.447Z" fill="#263238"/>
<path d="M145.99 135.465C144.136 136.454 142.282 137.363 140.484 138.432C138.685 139.501 137.085 140.663 135.373 141.843C135.243 141.936 135.336 141.979 135.472 141.893C137.227 140.774 138.939 139.884 140.712 138.803C142.486 137.721 144.21 136.547 146.015 135.521C146.046 135.49 146.015 135.453 145.99 135.465Z" fill="#263238"/>
<path d="M149.439 139.291C146.577 140.738 143.873 142.475 141.368 144.476C141.238 144.569 141.368 144.606 141.497 144.519C144.149 142.746 146.219 141.337 149.488 139.396C149.556 139.365 149.5 139.266 149.439 139.291Z" fill="#263238"/>
<path d="M161.792 126.777L178.281 150.514C178.281 150.514 197.982 148.394 201.462 143.784C203.748 140.75 191.055 125.769 179.832 125.93L161.792 126.777Z" fill="#302CFF"/>
<path d="M189.825 148.604L189.466 148.685L188.848 148.03C184.448 143.086 180.196 137.326 175.011 133.068L174.875 132.957C171.573 130.157 167.613 128.243 163.368 127.395C162.942 127.333 162.522 127.283 162.095 127.252L161.984 127.092C162.454 127.129 162.923 127.184 163.393 127.259C167.703 128.099 171.724 130.031 175.073 132.87L175.215 132.981C180.425 137.215 184.689 142.956 189.096 147.813L189.825 148.604ZM187.446 127.815C183.052 128.433 179.022 130.528 175.086 132.845L174.894 132.957C172.805 134.193 170.747 135.472 168.658 136.665L168.726 136.77L168.819 136.72C170.883 135.558 172.941 134.292 175.03 133.093L175.228 132.981C179.257 130.676 183.41 128.655 187.909 128.037C187.748 127.957 187.6 127.883 187.446 127.815Z" fill="white"/>
<path d="M192.55 131.047C190.937 129.539 186.308 125.911 179.832 125.911C179.776 125.911 179.764 126.004 179.832 126.01C184.658 126.474 190.832 129.805 192.513 131.121C192.544 131.158 192.593 131.09 192.55 131.047Z" fill="#263238"/>
<path d="M183.966 147.597C182.291 144.89 180.481 142.276 178.658 139.662C176.835 137.047 175.011 134.433 173.096 131.869C172.026 130.416 170.97 128.964 169.851 127.543C169.82 127.505 169.752 127.543 169.777 127.586C171.446 130.293 173.256 132.919 175.061 135.533C176.865 138.147 178.701 140.768 180.561 143.357C181.612 144.816 182.687 146.262 183.806 147.683C183.886 147.751 184.016 147.702 183.966 147.597Z" fill="#263238"/>
<path d="M161.792 126.492C163.019 126.286 164.258 126.164 165.5 126.127C166.736 126.047 167.972 125.998 169.208 125.954C171.68 125.868 176.884 125.404 181.346 125.954C181.395 125.954 181.111 126.171 181.062 126.158C178.954 125.775 163.35 126.9 162.089 126.832C162.134 126.918 162.169 127.009 162.194 127.104C162.194 127.166 162.139 127.24 162.077 127.184C162.015 127.128 161.842 126.918 161.706 126.782C161.686 126.76 161.672 126.732 161.666 126.703C161.659 126.673 161.661 126.642 161.669 126.613C161.678 126.584 161.694 126.558 161.715 126.537C161.737 126.516 161.763 126.5 161.792 126.492Z" fill="#263238"/>
<path d="M198.378 146.292C197.577 146.625 196.751 146.889 195.906 147.084C195.078 147.3 194.244 147.473 193.403 147.652C191.728 147.992 190.047 148.307 188.366 148.61C184.998 149.228 181.618 149.79 178.244 150.464H178.318L176.977 148.894L178.213 150.563V150.594H178.262C179.974 150.489 181.686 150.303 183.392 150.087C185.097 149.871 186.791 149.599 188.484 149.284C190.177 148.968 191.858 148.61 193.521 148.159C194.355 147.936 195.183 147.683 195.993 147.393C196.828 147.12 197.628 146.751 198.378 146.292Z" fill="#263238"/>
<path d="M166.44 95.0853C166.248 95.9196 162.342 101.321 158.56 101.173C157.324 101.123 157.324 94.3746 157.324 94.3746L157.207 93.874L155.594 86.9153L163.739 81.6005L164.919 80.896C164.919 80.896 165.235 82.8303 165.605 85.222C165.605 85.3332 165.636 85.4445 165.655 85.5619C165.673 85.6793 165.704 85.8276 165.723 85.9512C165.785 86.3159 165.84 86.6805 165.896 87.0451C165.952 87.4097 165.976 87.5951 166.007 87.8918C166.038 88.1884 166.075 88.4727 166.118 88.7693C166.37 90.8648 166.478 92.9751 166.44 95.0853Z" fill="#FFBF9D"/>
<path d="M165.581 85.284C164.894 87.2501 163.787 89.0429 162.337 90.5371C160.886 92.0314 159.127 93.1914 157.182 93.936L155.569 86.9773L163.714 81.6625L164.895 80.958C164.895 80.958 165.21 82.8429 165.581 85.284Z" fill="#263238"/>
<path d="M155.155 95.4194C155.155 95.4194 151.707 105.19 155.501 106.846C159.296 108.502 170.568 94.9744 170.568 94.9744C170.568 94.9744 164.295 87.923 155.155 95.4194Z" fill="#FFBF9D"/>
<path d="M167.33 83.5468C167.53 83.9008 167.656 84.2919 167.7 84.6963C167.892 86.5503 166.755 88.1509 165.5 89.3499C164.246 90.5488 162.41 91.6983 161.551 93.3916C161.175 94.0436 161.05 94.8105 161.199 95.5484C161.329 95.9336 161.539 96.2867 161.816 96.584C162.093 96.8814 162.431 97.1161 162.806 97.2726C163.566 97.6681 164.555 97.971 164.963 98.7991C165.1 99.1505 165.153 99.5292 165.118 99.9048C165.082 100.28 164.959 100.642 164.759 100.962C163.844 102.637 161.731 103.175 160.309 104.299C158.782 105.507 157.655 107.149 157.077 109.008C156.686 110.307 156.577 111.674 156.757 113.018C156.937 114.362 157.402 115.652 158.121 116.801C158.653 117.63 159.358 118.334 159.932 119.137C160.228 119.498 160.446 119.916 160.575 120.364C160.704 120.813 160.739 121.283 160.68 121.745C160.513 122.468 158.591 124.415 155.273 124.885C155.031 124.922 155.112 125.348 155.359 125.398C155.843 125.51 156.335 125.588 156.83 125.633C158.867 125.832 160.923 125.543 162.827 124.791C164.731 124.039 166.429 122.844 167.781 121.307C169.219 119.643 170.229 117.653 170.723 115.51C170.929 114.303 171.239 113.116 171.65 111.962C172.082 110.975 172.748 110.108 173.59 109.435C175.166 108.106 177.045 107.173 178.398 105.572C179.586 104.125 180.395 102.405 180.753 100.567C181.118 98.6776 181.072 96.7323 180.617 94.8628C180.163 92.9933 179.311 91.2437 178.12 89.733C175.784 86.7419 167.231 83.3429 167.33 83.5468Z" fill="#263238"/>
<path d="M167.391 83.6589C167.72 84.3903 167.877 85.1874 167.849 85.9888C167.781 86.7152 167.53 87.4125 167.12 88.0158C166.23 89.3754 164.87 90.253 163.554 91.1615C162.237 92.0699 161.082 92.9784 160.513 94.4369C160.265 95.0586 160.199 95.7379 160.322 96.3959C160.495 97.1008 160.939 97.7091 161.558 98.0892C162.682 98.837 164.332 99.4179 164.505 100.969C164.678 102.52 163.226 103.583 162.188 104.393C159.654 106.377 156.07 108.571 156.162 112.248C156.32 114.151 156.932 115.989 157.948 117.606C158.61 118.755 159.45 120.201 158.937 121.555C158.937 121.604 158.845 121.555 158.863 121.518C159.388 120.078 158.288 118.774 157.565 117.624C156.683 116.272 156.069 114.764 155.755 113.181C155.488 111.593 155.857 109.964 156.78 108.645C157.747 107.31 158.937 106.152 160.297 105.221C160.97 104.72 161.663 104.226 162.324 103.707C162.954 103.261 163.479 102.683 163.863 102.014C164.037 101.671 164.096 101.282 164.031 100.904C163.967 100.525 163.782 100.178 163.504 99.9123C162.914 99.3928 162.26 98.9504 161.558 98.596C160.948 98.2498 160.448 97.7376 160.118 97.119C159.884 96.598 159.79 96.0249 159.846 95.4566C159.985 94.1655 160.605 92.974 161.582 92.1194C162.917 90.8834 164.623 90.1109 165.908 88.8501C166.653 88.2508 167.177 87.422 167.401 86.4929C167.625 85.5638 167.534 84.5869 167.144 83.7146C167.141 83.6983 167.14 83.6815 167.143 83.6651C167.146 83.6487 167.152 83.6331 167.161 83.619C167.179 83.5906 167.207 83.5705 167.24 83.5631C167.273 83.5558 167.307 83.5617 167.336 83.5797C167.364 83.5977 167.384 83.6262 167.391 83.6589Z" fill="#263238"/>
<path d="M179.801 90.0918C182.273 93.1324 182.576 97.4027 181.142 100.956C180.328 102.93 179.057 104.681 177.434 106.067C175.926 107.377 174.208 108.539 173.003 110.127C171.668 111.92 171.557 114.12 171.149 116.233C170.803 117.938 170.095 119.548 169.072 120.955C167.062 123.704 164.044 125.544 160.68 126.072C160.258 126.135 159.833 126.176 159.407 126.195C159.351 126.195 159.351 126.115 159.407 126.115C161.085 125.98 162.719 125.504 164.206 124.716C165.694 123.927 167.005 122.843 168.059 121.529C169.113 120.261 169.894 118.788 170.352 117.203C170.908 115.251 170.883 113.156 171.705 111.264C172.471 109.503 173.979 108.224 175.45 107.05C177.063 105.77 178.639 104.497 179.776 102.724C180.833 101.109 181.446 99.2451 181.555 97.3186C181.663 95.3921 181.263 93.471 180.394 91.748C178.318 87.8917 174.165 86.0192 170.185 84.7708L168.584 84.2764C168.522 84.2764 168.541 84.1652 168.584 84.1837C172.632 85.2343 177.032 86.6495 179.801 90.0918Z" fill="#263238"/>
<path d="M167.719 81.292C168.044 81.3061 168.36 81.4055 168.634 81.5801C168.908 81.7548 169.132 81.9985 169.283 82.287C169.369 82.7258 167.793 85.791 166.965 85.995C166.137 86.1989 165.513 84.759 165.513 84.759L167.719 81.292Z" fill="#FF7F2C"/>
<path d="M145.564 75.8657C144.025 88.306 151.305 90.6297 153.987 90.9572C156.422 91.2539 164.753 91.9646 167.583 79.7467C170.414 67.5288 165.111 62.8877 159.549 61.9112C153.987 60.9348 147.084 63.4253 145.564 75.8657Z" fill="#FFBF9D"/>
<path d="M147.084 74.5372C147.377 74.5075 147.668 74.4621 147.955 74.4013C148.265 74.3973 148.565 74.2908 148.808 74.0985C148.874 74.0236 148.913 73.9286 148.919 73.8288C148.925 73.729 148.897 73.6303 148.839 73.5484C148.703 73.4028 148.53 73.2962 148.339 73.2397C148.148 73.1832 147.945 73.1788 147.751 73.2271C147.344 73.265 146.966 73.4521 146.689 73.7524C146.63 73.8245 146.594 73.912 146.584 74.0043C146.574 74.0965 146.591 74.1897 146.633 74.2726C146.675 74.3555 146.739 74.4245 146.819 74.4715C146.899 74.5184 146.991 74.5413 147.084 74.5372Z" fill="#263238"/>
<path d="M155.736 74.7782C155.449 74.725 155.166 74.6528 154.889 74.5619C154.578 74.5269 154.287 74.39 154.061 74.1725C154.002 74.0933 153.969 73.9967 153.969 73.8975C153.969 73.7983 154.002 73.7018 154.061 73.6225C154.212 73.4912 154.395 73.4025 154.592 73.3655C154.789 73.3286 154.992 73.3448 155.18 73.4124C155.581 73.4853 155.94 73.7057 156.187 74.0304C156.238 74.1065 156.266 74.1957 156.269 74.2873C156.271 74.379 156.247 74.4693 156.199 74.5478C156.152 74.6263 156.083 74.6897 156.001 74.7305C155.919 74.7713 155.827 74.7878 155.736 74.7782Z" fill="#263238"/>
<path d="M153.555 77.8003C153.555 77.8003 153.623 77.8436 153.616 77.8806C153.53 78.7397 153.579 79.7346 154.339 80.0807C154.339 80.0807 154.339 80.1363 154.339 80.1302C153.388 79.9262 153.338 78.6037 153.555 77.8003Z" fill="#263238"/>
<path d="M154.389 76.9468C155.785 76.9468 155.705 79.7278 154.389 79.7401C153.072 79.7525 153.221 76.9591 154.389 76.9468Z" fill="#263238"/>
<path d="M154.933 77.1144C155.174 77.2813 155.402 77.5655 155.693 77.6026C155.983 77.6397 156.311 77.3616 156.527 77.0835C156.527 77.0835 156.576 77.0835 156.576 77.1206C156.576 77.6521 156.348 78.1959 155.773 78.2577C155.198 78.3195 154.883 77.8313 154.766 77.2936C154.747 77.1947 154.834 77.0464 154.933 77.1144Z" fill="#263238"/>
<path d="M148.796 77.6147C148.796 77.6147 148.728 77.6518 148.728 77.6889C148.728 78.5541 148.586 79.5429 147.795 79.8086C147.795 79.8086 147.795 79.8643 147.795 79.8581C148.759 79.753 148.938 78.4367 148.796 77.6147Z" fill="#263238"/>
<path d="M148.048 76.6874C146.664 76.5453 146.472 79.3263 147.758 79.4622C149.043 79.5982 149.21 76.811 148.048 76.6874Z" fill="#263238"/>
<path d="M147.455 76.8354C147.226 76.9652 146.991 77.2186 146.726 77.2186C146.46 77.2186 146.213 76.8972 146.04 76.6006H145.996C145.947 77.1321 146.083 77.7006 146.583 77.8366C147.084 77.9725 147.418 77.5276 147.585 77.0085C147.616 76.9343 147.548 76.7798 147.455 76.8354Z" fill="#263238"/>
<path d="M150.174 81.6932C150.072 82.3217 150.002 82.9549 149.964 83.5905C149.964 83.6461 150.106 83.677 150.316 83.6894C150.837 83.7921 151.376 83.7496 151.874 83.5664C152.372 83.3833 152.81 83.0667 153.14 82.6511C153.149 82.6392 153.154 82.6245 153.153 82.6097C153.151 82.5948 153.145 82.5809 153.135 82.5703C153.124 82.5598 153.11 82.5534 153.095 82.5524C153.08 82.5513 153.066 82.5557 153.054 82.5646C152.269 83.084 151.336 83.3355 150.396 83.2815C150.359 83.1084 150.81 81.0876 150.718 81.0752C150.244 81.1125 149.777 81.2102 149.327 81.3657C149.667 78.6712 150.434 76.0509 150.73 73.3626C150.73 73.3438 150.723 73.3256 150.712 73.3107C150.7 73.2959 150.684 73.2852 150.666 73.2803C150.648 73.2754 150.629 73.2766 150.611 73.2836C150.594 73.2907 150.579 73.3032 150.569 73.3193C149.574 76.0076 149.117 79.1038 148.715 81.8786C148.635 82.2309 149.896 81.7921 150.174 81.6932Z" fill="#263238"/>
<path d="M150.378 83.43C150.7 83.9486 151.152 84.3745 151.688 84.666C151.982 84.8131 152.316 84.8629 152.64 84.8082C153.351 84.6907 153.425 84.0542 153.344 83.498C153.3 83.2014 153.221 82.911 153.109 82.6328C152.307 83.1823 151.35 83.4615 150.378 83.43Z" fill="#263238"/>
<path d="M151.688 84.6166C151.982 84.7637 152.316 84.8134 152.64 84.7587C153.351 84.6413 153.425 84.0048 153.344 83.4486C152.977 83.4291 152.614 83.5338 152.314 83.7456C152.013 83.9575 151.793 84.2643 151.688 84.6166Z" fill="#FF9BBC"/>
<path d="M166.668 79.6234C164.351 79.9695 163.634 74.6794 163.634 74.6794C163.634 74.6794 153.709 73.2271 152.689 65.1993C151.519 68.505 149.117 71.2306 145.984 72.8069C145.984 72.8069 146.126 63.9756 153.085 62.1031C153.085 62.1031 161.694 58.7412 166.736 65.5206C171.779 72.3001 168.22 79.3886 166.668 79.6234Z" fill="#263238"/>
<path d="M152.646 64.5938C152.558 65.8388 152.737 67.0882 153.171 68.2585C153.589 69.4508 154.249 70.5431 155.112 71.4659C155.326 71.6857 155.553 71.892 155.792 72.0839L156.144 72.4053L156.527 72.6772C156.787 72.8502 157.04 73.0418 157.306 73.2025C157.572 73.3632 157.862 73.493 158.146 73.6289C158.282 73.6969 158.424 73.7711 158.566 73.8329L159.005 73.9935L159.883 74.3087C160.501 74.457 161.088 74.5806 161.694 74.6919C161.119 74.457 160.532 74.284 159.976 74.0739L159.147 73.6907L158.733 73.5053C158.597 73.4312 158.474 73.3508 158.344 73.2705C158.084 73.116 157.831 72.9615 157.565 72.8132C157.3 72.6648 157.089 72.4547 156.848 72.2755L156.49 72.0098L156.162 71.7069C155.946 71.5112 155.74 71.305 155.544 71.0889C154.728 70.2125 154.068 69.203 153.592 68.104C153.341 67.5524 153.135 66.9821 152.974 66.3983C152.814 65.807 152.705 65.2034 152.646 64.5938Z" fill="#263238"/>
<path d="M154.846 83.2263C153.735 82.9837 152.765 82.3096 152.151 81.3523C151.537 80.395 151.328 79.2329 151.571 78.1216C151.742 77.337 152.131 76.6164 152.692 76.0418C153.253 75.4672 153.965 75.0617 154.745 74.8715C155.525 74.6813 156.343 74.714 157.106 74.966C157.869 75.2179 158.545 75.679 159.059 76.2966C159.572 76.9142 159.902 77.6636 160.01 78.4594C160.119 79.2552 160.001 80.0655 159.672 80.798C159.342 81.5304 158.814 82.1557 158.146 82.6025C157.479 83.0493 156.699 83.2997 155.897 83.3252C155.544 83.3375 155.191 83.3043 154.846 83.2263ZM152.133 78.2452C151.978 78.9613 152.039 79.7072 152.308 80.3888C152.576 81.0704 153.041 81.6572 153.643 82.075C154.244 82.4928 154.957 82.723 155.689 82.7365C156.422 82.75 157.142 82.5462 157.758 82.1508C158.375 81.7554 158.861 81.1861 159.155 80.5149C159.448 79.8436 159.536 79.1004 159.408 78.3791C159.279 77.6578 158.94 76.9907 158.433 76.4621C157.926 75.9334 157.273 75.5668 156.558 75.4086C156.256 75.3423 155.946 75.3153 155.637 75.3283C154.812 75.3548 154.019 75.6561 153.384 76.1846C152.749 76.713 152.309 77.4382 152.133 78.2452Z" fill="#455A64"/>
<path d="M145.848 82.4474C144.093 82.2991 142.826 80.2659 143.024 77.9113C143.093 76.8429 143.495 75.8229 144.173 74.9944C144.444 74.6223 144.806 74.3262 145.224 74.1347C145.642 73.9433 146.103 73.863 146.562 73.9015C147.02 73.94 147.461 74.0961 147.841 74.3546C148.222 74.6132 148.529 74.9655 148.734 75.3775C149.271 76.3131 149.499 77.3948 149.383 78.4675C149.198 80.6923 147.77 82.4227 146.126 82.4784C146.033 82.4743 145.94 82.464 145.848 82.4474ZM144.612 75.3961C144.015 76.1316 143.661 77.0341 143.598 77.9793C143.432 80.0249 144.464 81.78 145.897 81.9036C147.331 82.0272 148.647 80.4575 148.821 78.4181C148.918 77.4739 148.717 76.523 148.246 75.6989C148.075 75.3747 147.828 75.0965 147.527 74.8878C147.226 74.6791 146.879 74.5461 146.515 74.5C146.443 74.4936 146.371 74.4936 146.299 74.5C145.971 74.5235 145.651 74.6154 145.361 74.7697C145.07 74.9241 144.815 75.1374 144.612 75.3961Z" fill="#455A64"/>
<path d="M151.676 78.6282L152.077 78.2204C151.459 77.6024 150.038 76.7681 148.901 77.7939L149.284 78.2204C150.304 77.2934 151.62 78.5726 151.676 78.6282Z" fill="#455A64"/>
<path d="M169.666 81.2795L170.197 81.057C170.092 80.8098 169.159 78.6344 167.898 78.3254C166.637 78.0164 159.963 78.1524 159.636 78.1586V78.7272C161.848 78.7272 166.848 78.653 167.756 78.8817C168.665 79.1103 169.419 80.68 169.666 81.2795Z" fill="#455A64"/>
<path d="M164.611 79.8206C164.611 79.8206 167.484 76.0137 169.221 77.052C170.957 78.0902 168.702 83.6831 166.588 84.3814C166.324 84.4903 166.04 84.5446 165.754 84.541C165.468 84.5374 165.186 84.4761 164.925 84.3606C164.663 84.2451 164.428 84.078 164.233 83.8691C164.037 83.6603 163.886 83.4141 163.789 83.1454L164.611 79.8206Z" fill="#FFBF9D"/>
<path d="M168.535 78.6401C168.566 78.6401 168.572 78.6834 168.535 78.6958C167.058 79.2334 166.236 80.5498 165.649 81.9403C165.74 81.7979 165.86 81.6768 166.002 81.5852C166.144 81.4937 166.304 81.4338 166.471 81.4098C166.638 81.3857 166.809 81.398 166.971 81.4459C167.133 81.4937 167.283 81.5759 167.41 81.6869C167.447 81.6869 167.41 81.7734 167.367 81.7672C167.113 81.6738 166.836 81.6623 166.576 81.7343C166.315 81.8064 166.084 81.9584 165.914 82.1689C165.633 82.5198 165.389 82.8988 165.185 83.2999C165.111 83.4296 164.882 83.3493 164.938 83.201C165.006 81.3037 166.526 78.7514 168.535 78.6401Z" fill="#263238"/>
<path d="M257.162 224.216C256.442 226.845 255.966 229.534 255.741 232.25C255.809 232.38 255.796 232.868 255.741 232.745C255.741 233.19 255.049 233.109 255.049 232.67C255.049 232.386 255.049 232.102 255.049 231.824C253.473 229.871 251.186 228.635 249.338 226.935C247.855 225.599 246.773 223.876 246.211 221.96C244.679 216.677 246.118 211.084 244.277 205.812C242.689 201.27 239.833 197.327 237.423 193.211C234.877 188.885 232.998 184.287 232.813 179.189C232.665 175.283 233.128 170.086 236.101 167.162C239.252 164.072 243.158 166.384 245.568 169.152C252.564 177.186 255.803 187.322 257.113 197.698C257.83 203.439 258.584 209.211 258.41 215.002C258.301 218.107 257.883 221.194 257.162 224.216Z" fill="#22C414"/>
<path d="M255.765 234.383C256.15 228.965 256.086 223.525 255.574 218.117C255.574 218.117 255.605 218.086 255.605 218.055C255.691 213.661 256.044 209.286 255.871 204.88C255.654 200.119 255.005 195.389 253.93 190.746C253.927 190.738 253.921 190.731 253.914 190.726C253.907 190.721 253.899 190.719 253.89 190.719C253.881 190.719 253.873 190.721 253.866 190.726C253.858 190.731 253.853 190.738 253.85 190.746C254.704 195.305 255.214 199.923 255.376 204.558C255.467 207.03 255.446 209.515 255.314 212.011C255.277 212.815 255.197 213.631 255.147 214.446C253.319 202.105 248.857 190.302 242.064 179.838C241.972 179.696 241.718 179.838 241.811 179.993C246.658 187.95 250.25 196.607 252.459 205.658C249.091 199.429 244.011 194.3 240.241 188.311C240.241 188.28 240.167 188.311 240.186 188.348C243.572 195.016 249.165 200.269 252.731 206.839C253.349 209.515 253.856 212.222 254.233 214.941C254.737 218.669 255.008 222.426 255.042 226.188C252.997 222.357 250.871 218.692 249.196 214.644C249.147 214.539 248.992 214.644 249.029 214.718C250.457 218.927 252.373 223.457 255.055 227.078C255.055 229.736 254.993 232.405 254.832 235.063C254.418 242.164 253.201 249.172 252.645 256.248C252.64 256.29 252.652 256.333 252.679 256.367C252.705 256.401 252.744 256.422 252.787 256.427C252.829 256.432 252.872 256.42 252.906 256.393C252.939 256.366 252.961 256.328 252.966 256.285C254.397 249.057 255.332 241.739 255.765 234.383Z" fill="#263238"/>
<path d="M248.226 179.622C248.226 179.572 248.133 179.622 248.152 179.659C249.449 183.243 250.179 186.877 251.118 190.554C251.128 190.586 251.149 190.612 251.176 190.63C251.204 190.647 251.237 190.653 251.27 190.648C251.302 190.643 251.331 190.626 251.352 190.601C251.373 190.576 251.384 190.544 251.384 190.511C251.001 186.778 249.672 183.058 248.226 179.622Z" fill="#263238"/>
<path d="M281.19 194.67C280.327 196.774 279.332 198.822 278.211 200.8C275.875 205.04 273.44 208.927 272.995 213.865C272.804 216.071 272.73 218.283 272.056 220.409C271.445 222.237 270.566 223.963 269.448 225.533C266.92 229.241 263.756 232.399 261.414 236.224C258.974 240.213 257.173 244.558 256.074 249.103C256.013 249.35 255.623 249.289 255.685 249.041C255.685 249.041 255.685 249.004 255.685 248.98C255.685 248.955 255.685 248.98 255.685 248.93C255.314 238.344 256.161 227.671 259.393 217.523C260.814 213.059 262.521 208.691 264.504 204.446C266.234 200.738 268.391 197.228 271.426 194.484C273.397 192.704 277.674 189.343 280.479 191.122C281.808 191.981 281.691 193.329 281.19 194.67Z" fill="#22C314"/>
<path d="M270.517 218.655C268.644 221.731 266.58 224.686 264.337 227.504C263.311 228.839 262.273 230.168 261.247 231.509C260.765 232.127 260.221 232.745 259.776 233.449C260.061 232.337 260.333 231.225 260.617 230.112C261.983 224.76 263.293 219.365 265.326 214.223C267.411 209.239 269.869 204.419 272.68 199.806C272.754 199.682 272.557 199.595 272.482 199.713C270.245 203.421 267.971 207.067 266.092 210.948C265.054 213.114 264.148 215.341 263.379 217.616C264.243 212.788 265.449 208.028 266.988 203.371C266.988 203.328 266.945 203.297 266.927 203.341C264.904 208.056 263.64 213.062 263.181 218.173C262.724 219.551 262.304 220.935 261.908 222.338C260.24 228.258 258.775 234.247 257.416 240.26C257.394 236.323 257.738 232.392 258.441 228.518C258.437 228.503 258.428 228.489 258.415 228.48C258.402 228.47 258.386 228.465 258.37 228.465C258.354 228.465 258.339 228.47 258.326 228.48C258.313 228.489 258.304 228.503 258.299 228.518C257.267 232.568 256.922 236.763 257.28 240.927C256.765 243.214 256.264 245.5 255.778 247.787C254.733 252.669 253.454 257.638 252.849 262.619C252.844 262.645 252.851 262.672 252.867 262.694C252.882 262.715 252.906 262.729 252.932 262.733C252.958 262.737 252.985 262.731 253.006 262.715C253.028 262.7 253.042 262.676 253.046 262.65C253.769 259.98 254.208 257.212 254.801 254.505C255.395 251.798 256.037 249.085 256.655 246.378C257.576 242.441 258.54 238.511 259.523 234.587C260.178 233.147 261.445 231.867 262.397 230.662C263.435 229.34 264.479 228.011 265.487 226.664C267.39 224.175 269.095 221.54 270.585 218.784C270.647 218.642 270.554 218.599 270.517 218.655Z" fill="#263238"/>
<path d="M270.974 214.131C268.644 217.111 266.625 220.323 264.949 223.716C264.949 223.759 264.998 223.802 265.023 223.759C267.05 220.589 269.04 217.388 271.067 214.205C271.098 214.137 271.012 214.081 270.974 214.131Z" fill="#263238"/>
<path d="M225.898 204.694C227.27 207.055 228.833 209.892 228.246 212.728C227.875 214.52 226.559 215.979 226.318 217.814C225.786 221.856 229.822 224.532 232.739 226.466C240.007 231.237 249.981 235.489 251.279 245.229C251.328 245.575 251.897 245.488 251.897 245.155C251.9 245.132 251.9 245.109 251.897 245.087C251.897 245.087 251.934 245.056 251.934 245.031C252.884 240.111 252.838 235.051 251.798 230.15C250.71 225.131 248.516 220.62 245.933 216.207C241.558 208.742 236.923 201.097 230.304 195.381C228.45 193.799 224.742 190.95 223.265 194.522C221.862 197.977 224.217 201.808 225.898 204.694Z" fill="#22C314"/>
<path d="M232.553 220.521C237.374 225.737 245.037 228.66 249.184 234.506C246.712 225.552 242.658 217.493 236.404 210.497C236.368 210.462 236.349 210.414 236.349 210.364C236.349 210.314 236.368 210.267 236.404 210.231C236.439 210.196 236.487 210.176 236.536 210.176C236.586 210.176 236.634 210.196 236.669 210.231C241.107 214.542 244.655 219.682 247.113 225.36C245.969 221.387 244.463 217.527 242.614 213.828C242.598 213.799 242.594 213.765 242.602 213.733C242.611 213.702 242.632 213.675 242.661 213.658C242.689 213.642 242.724 213.637 242.755 213.646C242.787 213.655 242.814 213.676 242.831 213.704C245.119 217.733 246.754 222.099 247.676 226.639C253.145 239.871 253.652 255.395 252.509 269.349C252.509 269.547 252.187 269.553 252.193 269.349C252.502 258.355 252.329 247.169 249.691 236.428C249.635 236.206 249.579 235.983 249.518 235.761C245.006 229.47 237.374 226.553 232.467 220.577C232.417 220.546 232.498 220.459 232.553 220.521Z" fill="#263238"/>
<path d="M231.435 216.034C233.962 218.358 236.453 220.731 238.993 223.054C238.993 223.054 238.993 223.122 238.956 223.104C236.088 221.167 233.504 218.84 231.28 216.188C231.2 216.083 231.33 215.941 231.435 216.034Z" fill="#263238"/>
<path d="M231.033 205.98C233.272 209.649 235.803 213.132 238.604 216.393C238.641 216.436 238.604 216.498 238.542 216.455C235.401 213.468 232.813 209.948 230.897 206.06C230.891 206.042 230.891 206.023 230.897 206.005C230.903 205.988 230.916 205.973 230.932 205.963C230.948 205.954 230.967 205.95 230.985 205.953C231.004 205.956 231.021 205.965 231.033 205.98Z" fill="#263238"/>
<path d="M242.429 279.212H264.591L261.606 249.388H245.84L242.429 279.212Z" fill="#455A64"/>
<path d="M245.284 254.239H262.094L261.606 249.388H245.84L245.284 254.239Z" fill="#263238"/>
<path d="M243.121 250.846H263.898V246.081H243.121V250.846Z" fill="#455A64"/>
</svg>
