<svg width="40" height="40" viewBox="0 0 40 40" fill="none" xmlns="http://www.w3.org/2000/svg">
<mask id="mask0_66_809" style="mask-type:alpha" maskUnits="userSpaceOnUse" x="0" y="0" width="40" height="40">
<rect width="40" height="40" fill="#D9D9D9"/>
</mask>
<g mask="url(#mask0_66_809)">
<path d="M0 30V27.375C0 26.1528 0.618333 25.1733 1.855 24.4367C3.09056 23.7011 4.69444 23.3333 6.66667 23.3333C7.02778 23.3333 7.375 23.34 7.70833 23.3533C8.04167 23.3678 8.36111 23.4028 8.66667 23.4583C8.27778 24.0139 7.98611 24.6111 7.79167 25.25C7.59722 25.8889 7.5 26.5694 7.5 27.2917V30H0ZM10 30V27.2917C10 25.4861 10.9239 24.0278 12.7717 22.9167C14.6183 21.8056 17.0278 21.25 20 21.25C23 21.25 25.4167 21.8056 27.25 22.9167C29.0833 24.0278 30 25.4861 30 27.2917V30H10ZM32.5 30V27.2917C32.5 26.5694 32.4094 25.8889 32.2283 25.25C32.0483 24.6111 31.7778 24.0139 31.4167 23.4583C31.7222 23.4028 32.035 23.3678 32.355 23.3533C32.6739 23.34 33 23.3333 33.3333 23.3333C35.3333 23.3333 36.9444 23.7011 38.1667 24.4367C39.3889 25.1733 40 26.1528 40 27.375V30H32.5ZM20 24.5833C18.4167 24.5833 17 24.7917 15.75 25.2083C14.5 25.625 13.7639 26.1111 13.5417 26.6667H26.5C26.25 26.1111 25.5067 25.625 24.27 25.2083C23.0344 24.7917 21.6111 24.5833 20 24.5833ZM6.66667 21.6667C5.75 21.6667 4.96556 21.34 4.31333 20.6867C3.66 20.0344 3.33333 19.25 3.33333 18.3333C3.33333 17.3889 3.66 16.5972 4.31333 15.9583C4.96556 15.3194 5.75 15 6.66667 15C7.61111 15 8.40278 15.3194 9.04167 15.9583C9.68056 16.5972 10 17.3889 10 18.3333C10 19.25 9.68056 20.0344 9.04167 20.6867C8.40278 21.34 7.61111 21.6667 6.66667 21.6667ZM33.3333 21.6667C32.4167 21.6667 31.6317 21.34 30.9783 20.6867C30.3261 20.0344 30 19.25 30 18.3333C30 17.3889 30.3261 16.5972 30.9783 15.9583C31.6317 15.3194 32.4167 15 33.3333 15C34.2778 15 35.0694 15.3194 35.7083 15.9583C36.3472 16.5972 36.6667 17.3889 36.6667 18.3333C36.6667 19.25 36.3472 20.0344 35.7083 20.6867C35.0694 21.34 34.2778 21.6667 33.3333 21.6667ZM20 20C18.6111 20 17.4306 19.5139 16.4583 18.5417C15.4861 17.5694 15 16.3889 15 15C15 13.5833 15.4861 12.3956 16.4583 11.4367C17.4306 10.4789 18.6111 10 20 10C21.4167 10 22.6039 10.4789 23.5617 11.4367C24.5206 12.3956 25 13.5833 25 15C25 16.3889 24.5206 17.5694 23.5617 18.5417C22.6039 19.5139 21.4167 20 20 20ZM20 13.3333C19.5278 13.3333 19.1322 13.4928 18.8133 13.8117C18.4933 14.1317 18.3333 14.5278 18.3333 15C18.3333 15.4722 18.4933 15.8678 18.8133 16.1867C19.1322 16.5067 19.5278 16.6667 20 16.6667C20.4722 16.6667 20.8683 16.5067 21.1883 16.1867C21.5072 15.8678 21.6667 15.4722 21.6667 15C21.6667 14.5278 21.5072 14.1317 21.1883 13.8117C20.8683 13.4928 20.4722 13.3333 20 13.3333Z" fill="#FF7F2C"/>
</g>
</svg>
