<svg width="40" height="40" viewBox="0 0 40 40" fill="none" xmlns="http://www.w3.org/2000/svg">
<mask id="mask0_111_1757" style="mask-type:alpha" maskUnits="userSpaceOnUse" x="0" y="0" width="40" height="40">
<rect width="40" height="40" fill="#D9D9D9"/>
</mask>
<g mask="url(#mask0_111_1757)">
<path d="M8.33333 39.4998C7.41667 39.4998 6.63167 39.1732 5.97833 38.5198C5.32611 37.8676 5 37.0832 5 36.1665V12.8332C5 11.9165 5.32611 11.1315 5.97833 10.4782C6.63167 9.82595 7.41667 9.49984 8.33333 9.49984H23.2083L19.875 12.8332H8.33333V36.1665H31.6667V24.5832L35 21.2498V36.1665C35 37.0832 34.6739 37.8676 34.0217 38.5198C33.3683 39.1732 32.5833 39.4998 31.6667 39.4998H8.33333ZM26.9583 10.4582L29.3333 12.7915L18.3333 23.7915V26.1665H20.6667L31.7083 15.1248L34.0833 17.4582L22.0833 29.4998H15V22.4165L26.9583 10.4582ZM34.0833 17.4582L26.9583 10.4582L31.125 6.2915C31.7917 5.62484 32.5906 5.2915 33.5217 5.2915C34.4517 5.2915 35.2361 5.62484 35.875 6.2915L38.2083 8.6665C38.8472 9.30539 39.1667 10.0832 39.1667 10.9998C39.1667 11.9165 38.8472 12.6943 38.2083 13.3332L34.0833 17.4582Z" fill="#FF7F2C"/>
</g>
</svg>
