<svg width="20" height="20" viewBox="0 0 20 20" fill="none" xmlns="http://www.w3.org/2000/svg">
<mask id="mask0_95_720" style="mask-type:alpha" maskUnits="userSpaceOnUse" x="0" y="0" width="20" height="20">
<rect width="20" height="20" fill="#D9D9D9"/>
</mask>
<g mask="url(#mask0_95_720)">
<path d="M5.41658 13.3335C6.06936 13.3335 6.70492 13.4063 7.32325 13.5518C7.94103 13.6979 8.55547 13.9168 9.16658 14.2085V6.00016C8.59714 5.66683 7.99297 5.41683 7.35408 5.25016C6.7152 5.0835 6.06936 5.00016 5.41658 5.00016C4.91658 5.00016 4.4202 5.04877 3.92742 5.146C3.43408 5.24322 2.95825 5.38905 2.49992 5.5835V13.8335C2.98603 13.6668 3.46881 13.5418 3.94825 13.4585C4.42714 13.3752 4.91658 13.3335 5.41658 13.3335ZM10.8333 14.2085C11.4444 13.9168 12.0591 13.6979 12.6774 13.5518C13.2952 13.4063 13.9305 13.3335 14.5833 13.3335C15.0833 13.3335 15.573 13.3752 16.0524 13.4585C16.5313 13.5418 17.0138 13.6668 17.4999 13.8335V5.5835C17.0416 5.38905 16.566 5.24322 16.0733 5.146C15.5799 5.04877 15.0833 5.00016 14.5833 5.00016C13.9305 5.00016 13.2846 5.0835 12.6458 5.25016C12.0069 5.41683 11.4027 5.66683 10.8333 6.00016V14.2085ZM9.99992 16.6668C9.33325 16.1391 8.61103 15.7293 7.83325 15.4377C7.05547 15.146 6.24992 15.0002 5.41658 15.0002C4.83325 15.0002 4.26047 15.0766 3.69825 15.2293C3.13547 15.3821 2.59714 15.5974 2.08325 15.8752C1.79159 16.0279 1.51047 16.021 1.23992 15.8543C0.968808 15.6877 0.833252 15.4446 0.833252 15.1252V5.0835C0.833252 4.93072 0.871585 4.78488 0.948252 4.646C1.02436 4.50711 1.13881 4.40294 1.29159 4.3335C1.93047 4.00016 2.59714 3.75016 3.29159 3.5835C3.98603 3.41683 4.69436 3.3335 5.41658 3.3335C6.22214 3.3335 7.01047 3.43766 7.78158 3.646C8.55214 3.85433 9.29158 4.16683 9.99992 4.5835C10.7083 4.16683 11.448 3.85433 12.2191 3.646C12.9896 3.43766 13.7777 3.3335 14.5833 3.3335C15.3055 3.3335 16.0138 3.41683 16.7083 3.5835C17.4027 3.75016 18.0694 4.00016 18.7083 4.3335C18.861 4.40294 18.9758 4.50711 19.0524 4.646C19.1285 4.78488 19.1666 4.93072 19.1666 5.0835V15.1252C19.1666 15.4446 19.0313 15.6877 18.7607 15.8543C18.4896 16.021 18.2083 16.0279 17.9166 15.8752C17.4027 15.5974 16.8644 15.3821 16.3016 15.2293C15.7394 15.0766 15.1666 15.0002 14.5833 15.0002C13.7499 15.0002 12.9444 15.146 12.1666 15.4377C11.3888 15.7293 10.6666 16.1391 9.99992 16.6668Z" fill="#1C1B1F"/>
</g>
</svg>
