<svg width="20" height="20" viewBox="0 0 20 20" fill="none" xmlns="http://www.w3.org/2000/svg">
<mask id="mask0_95_730" style="mask-type:alpha" maskUnits="userSpaceOnUse" x="0" y="0" width="20" height="20">
<rect width="20" height="20" fill="#D9D9D9"/>
</mask>
<g mask="url(#mask0_95_730)">
<path d="M4.16667 19.7502C3.70833 19.7502 3.31583 19.5868 2.98917 19.2602C2.66306 18.9341 2.5 18.5418 2.5 18.0835V6.41683C2.5 5.9585 2.66306 5.566 2.98917 5.23933C3.31583 4.91322 3.70833 4.75016 4.16667 4.75016H11.6042L9.9375 6.41683H4.16667V18.0835H15.8333V12.2918L17.5 10.6252V18.0835C17.5 18.5418 17.3369 18.9341 17.0108 19.2602C16.6842 19.5868 16.2917 19.7502 15.8333 19.7502H4.16667ZM13.4792 5.22933L14.6667 6.396L9.16667 11.896V13.0835H10.3333L15.8542 7.56266L17.0417 8.72933L11.0417 14.7502H7.5V11.2085L13.4792 5.22933ZM17.0417 8.72933L13.4792 5.22933L15.5625 3.146C15.8958 2.81266 16.2953 2.646 16.7608 2.646C17.2258 2.646 17.6181 2.81266 17.9375 3.146L19.1042 4.3335C19.4236 4.65294 19.5833 5.04183 19.5833 5.50016C19.5833 5.9585 19.4236 6.34738 19.1042 6.66683L17.0417 8.72933Z" fill="#1C1B1F"/>
</g>
</svg>
