<svg width="21" height="20" viewBox="0 0 21 20" fill="none" xmlns="http://www.w3.org/2000/svg">
<mask id="mask0_66_1418" style="mask-type:alpha" maskUnits="userSpaceOnUse" x="0" y="0" width="21" height="20">
<rect x="0.315948" width="20" height="20" fill="#D9D9D9"/>
</mask>
<g mask="url(#mask0_66_1418)">
<path d="M10.3159 13.3333C11.3576 13.3333 12.2432 12.9688 12.9726 12.2399C13.7015 11.5105 14.0659 10.6249 14.0659 9.58325C14.0659 8.54159 13.7015 7.65603 12.9726 6.92659C12.2432 6.1977 11.3576 5.83325 10.3159 5.83325C9.27428 5.83325 8.38872 6.1977 7.65928 6.92659C6.93039 7.65603 6.56594 8.54159 6.56594 9.58325C6.56594 10.6249 6.93039 11.5105 7.65928 12.2399C8.38872 12.9688 9.27428 13.3333 10.3159 13.3333ZM10.3159 11.8333C9.69094 11.8333 9.15983 11.6144 8.72261 11.1766C8.28483 10.7394 8.06594 10.2083 8.06594 9.58325C8.06594 8.95825 8.28483 8.42686 8.72261 7.98909C9.15983 7.55186 9.69094 7.33325 10.3159 7.33325C10.9409 7.33325 11.4723 7.55186 11.9101 7.98909C12.3473 8.42686 12.5659 8.95825 12.5659 9.58325C12.5659 10.2083 12.3473 10.7394 11.9101 11.1766C11.4723 11.6144 10.9409 11.8333 10.3159 11.8333ZM10.3159 15.8333C8.28816 15.8333 6.44094 15.2671 4.77428 14.1349C3.10761 13.0033 1.89928 11.486 1.14928 9.58325C1.89928 7.68047 3.10761 6.16297 4.77428 5.03075C6.44094 3.89909 8.28816 3.33325 10.3159 3.33325C12.3437 3.33325 14.1909 3.89909 15.8576 5.03075C17.5243 6.16297 18.7326 7.68047 19.4826 9.58325C18.7326 11.486 17.5243 13.0033 15.8576 14.1349C14.1909 15.2671 12.3437 15.8333 10.3159 15.8333ZM10.3159 14.1666C11.8854 14.1666 13.3265 13.7533 14.6393 12.9266C15.9515 12.1005 16.9548 10.986 17.6493 9.58325C16.9548 8.18047 15.9515 7.06575 14.6393 6.23909C13.3265 5.41297 11.8854 4.99992 10.3159 4.99992C8.7465 4.99992 7.30539 5.41297 5.99261 6.23909C4.68039 7.06575 3.67705 8.18047 2.98261 9.58325C3.67705 10.986 4.68039 12.1005 5.99261 12.9266C7.30539 13.7533 8.7465 14.1666 10.3159 14.1666Z" fill="#515A61"/>
</g>
</svg>
