<svg width="22" height="20" viewBox="0 0 22 20" fill="none" xmlns="http://www.w3.org/2000/svg">
<mask id="mask0_32_220" style="mask-type:alpha" maskUnits="userSpaceOnUse" x="0" y="0" width="22" height="20">
<rect x="0.571426" width="21.4286" height="20" fill="#D9D9D9"/>
</mask>
<g mask="url(#mask0_32_220)">
<path d="M11.2857 17.4997L9.99107 16.4163C8.48809 15.1525 7.24553 14.0622 6.26339 13.1455C5.28125 12.2288 4.5 11.4058 3.91964 10.6763C3.33928 9.94745 2.93393 9.27745 2.70357 8.66634C2.47262 8.05523 2.35714 7.43023 2.35714 6.79134C2.35714 5.48579 2.82589 4.39551 3.76339 3.52051C4.70089 2.64551 5.86904 2.20801 7.26785 2.20801C8.04166 2.20801 8.77827 2.36079 9.47767 2.66634C10.1771 2.9719 10.7798 3.40245 11.2857 3.95801C11.7917 3.40245 12.3943 2.9719 13.0937 2.66634C13.7931 2.36079 14.5298 2.20801 15.3036 2.20801C16.7024 2.20801 17.8705 2.64551 18.808 3.52051C19.7455 4.39551 20.2143 5.48579 20.2143 6.79134C20.2143 7.43023 20.0991 8.05523 19.8687 8.66634C19.6378 9.27745 19.2321 9.94745 18.6518 10.6763C18.0714 11.4058 17.2902 12.2288 16.308 13.1455C15.3259 14.0622 14.0833 15.1525 12.5804 16.4163L11.2857 17.4997ZM11.2857 15.2497C12.7143 14.0552 13.8899 13.0308 14.8125 12.1763C15.7351 11.3225 16.4643 10.5797 17 9.94801C17.5357 9.31579 17.9077 8.75301 18.1161 8.25967C18.3244 7.7669 18.4286 7.27745 18.4286 6.79134C18.4286 5.95801 18.1309 5.26356 17.5357 4.70801C16.9405 4.15245 16.1964 3.87467 15.3036 3.87467C14.6042 3.87467 13.9568 4.05856 13.3616 4.42634C12.7664 4.79467 12.3571 5.26356 12.1339 5.83301H10.4375C10.2143 5.26356 9.80506 4.79467 9.20982 4.42634C8.61458 4.05856 7.96726 3.87467 7.26785 3.87467C6.375 3.87467 5.63095 4.15245 5.03571 4.70801C4.44047 5.26356 4.14285 5.95801 4.14285 6.79134C4.14285 7.27745 4.24702 7.7669 4.45535 8.25967C4.66369 8.75301 5.03571 9.31579 5.57142 9.94801C6.10714 10.5797 6.83631 11.3225 7.75892 12.1763C8.68154 13.0308 9.85714 14.0552 11.2857 15.2497Z" fill="#FA0909"/>
</g>
</svg>
