<svg width="391" height="392" viewBox="0 0 391 392" fill="none" xmlns="http://www.w3.org/2000/svg">
<path d="M193.16 371.694C287.568 371.694 364.1 347.853 364.1 318.442C364.1 289.032 287.568 265.19 193.16 265.19C98.7528 265.19 22.2206 289.032 22.2206 318.442C22.2206 347.853 98.7528 371.694 193.16 371.694Z" fill="#FF7F2C"/>
<path opacity="0.5" d="M193.16 371.694C287.568 371.694 364.1 347.853 364.1 318.442C364.1 289.032 287.568 265.19 193.16 265.19C98.7528 265.19 22.2206 289.032 22.2206 318.442C22.2206 347.853 98.7528 371.694 193.16 371.694Z" fill="white"/>
<path d="M178.721 83.6323C178.721 83.6323 139.982 79.0372 114.494 98.9194C89.0053 118.802 67.0857 201.885 67.5914 241.679C68.097 281.473 82.8934 301.326 120.1 317.624C157.307 333.922 226.619 327.825 265.358 315.587C304.096 303.348 316.84 260.565 316.335 237.604C315.829 214.644 290.341 188.159 281.671 182.582C273.001 177.006 248.539 165.258 236.315 146.893C224.091 128.527 206.232 88.7329 178.721 83.6323Z" fill="#FF7F2C"/>
<path opacity="0.13" d="M272.466 312.836C257.818 310.858 240.449 306.887 227.304 298.902C199.54 282.053 192.61 250.319 182.691 238.422C172.772 226.526 154.927 227.522 147.001 214.629C139.075 201.736 151.953 106.578 129.156 100.63C124.53 99.2934 119.74 98.6077 114.925 98.5923C114.791 98.7113 114.628 98.8005 114.494 98.9194C89.0053 118.802 67.0857 201.885 67.5914 241.679C68.097 281.473 82.8934 301.326 120.1 317.624C157.307 333.922 226.619 327.825 265.358 315.587C267.782 314.818 270.156 313.9 272.466 312.836Z" fill="black"/>
<path d="M178.721 83.6323C178.721 83.6323 139.982 79.0372 114.494 98.9194C89.0053 118.802 67.0857 201.885 67.5914 241.679C68.097 281.473 82.8934 301.326 120.1 317.624C157.307 333.922 226.619 327.825 265.358 315.587C304.096 303.348 316.84 260.565 316.335 237.604C315.829 214.644 290.341 188.159 281.671 182.582C273.001 177.006 248.539 165.258 236.315 146.893C224.091 128.527 206.232 88.7329 178.721 83.6323Z" stroke="#263238" stroke-width="1.48708" stroke-linecap="round" stroke-linejoin="round"/>
<path d="M163.463 101.597C163.463 101.597 138.183 106.43 133.722 110.891C129.26 115.352 110.672 185.245 110.672 185.245C115.84 183.986 121.261 184.244 126.286 185.988C133.722 188.962 134.465 196.77 135.209 200.487C135.806 204.927 136.178 209.394 136.324 213.871C136.324 213.871 211.466 207.164 227.452 203.461C243.438 199.759 267.767 198.034 267.767 198.034C267.767 198.034 226.664 105.329 220.344 101.983C214.024 98.6373 187.628 98.2655 183.911 99.009C180.193 99.7526 163.463 101.597 163.463 101.597Z" fill="#263238" stroke="#263238" stroke-width="1.48708" stroke-linecap="round" stroke-linejoin="round"/>
<path d="M138.555 187.475L144.875 135.799" stroke="white" stroke-width="1.48708" stroke-linecap="round" stroke-linejoin="round"/>
<path d="M143.388 149.554L151.938 138.401" stroke="white" stroke-width="1.48708" stroke-linecap="round" stroke-linejoin="round"/>
<path d="M169.04 156.247C169.04 156.247 193.205 148.439 209.191 148.439" stroke="white" stroke-width="1.48708" stroke-linecap="round" stroke-linejoin="round"/>
<path d="M191.852 134.937L190.231 147.324C190.231 147.324 194.32 147.324 194.692 149.183C194.717 149.872 194.598 150.559 194.342 151.199C194.086 151.84 193.699 152.419 193.205 152.901C193.205 152.901 204.73 159.221 206.217 166.656" stroke="white" stroke-width="1.48708" stroke-linecap="round" stroke-linejoin="round"/>
<path d="M177.338 87.7368C177.338 87.7368 163.463 92.198 161.471 95.6629C159.478 99.1278 160.98 123.427 160.98 126.401C160.98 129.375 162.72 124.661 164.207 121.196C165.694 117.731 170.899 112.512 172.624 113.017C174.349 113.523 175.36 115.486 175.36 118.713C175.36 121.94 179.316 126.401 182.795 128.869C186.275 131.338 189.487 133.836 189.487 133.836C189.487 133.836 196.67 123.427 198.41 120.69C200.149 117.954 199.897 112.274 200.135 110.281C200.373 108.288 204.849 115.738 205.845 113.761C206.841 111.783 203.614 110.043 200.135 104.585C196.655 99.1278 197.666 93.4323 192.461 89.4618C187.257 85.4913 181.308 86.7256 177.338 87.7368Z" fill="white"/>
<path d="M161.471 95.6481C160.162 97.9679 160.37 109.537 160.668 117.954C163.835 113.88 170.363 106.177 174.14 107.634C178.959 109.493 180.803 123.189 180.803 123.189L177.546 87.7368H177.338C177.338 87.7368 163.463 92.1981 161.471 95.6481Z" fill="#FF7F2C"/>
<path opacity="0.5" d="M161.471 95.6481C160.162 97.9679 160.37 109.537 160.668 117.954C163.835 113.88 170.363 106.177 174.14 107.634C178.959 109.493 180.803 123.189 180.803 123.189L177.546 87.7368H177.338C177.338 87.7368 163.463 92.1981 161.471 95.6481Z" fill="white"/>
<path d="M177.338 87.7368C177.338 87.7368 163.463 92.198 161.471 95.6629C159.478 99.1278 160.98 123.427 160.98 126.401C160.98 129.375 162.72 124.661 164.207 121.196C165.694 117.731 170.899 112.512 172.624 113.017C174.349 113.523 175.36 115.486 175.36 118.713C175.36 121.94 179.316 126.401 182.795 128.869C186.275 131.338 189.487 133.836 189.487 133.836C189.487 133.836 196.67 123.427 198.41 120.69C200.149 117.954 199.897 112.274 200.135 110.281C200.373 108.288 204.849 115.738 205.845 113.761C206.841 111.783 203.614 110.043 200.135 104.585C196.655 99.1278 197.666 93.4323 192.461 89.4618C187.257 85.4913 181.308 86.7256 177.338 87.7368Z" stroke="#263238" stroke-width="1.48708" stroke-linecap="round" stroke-linejoin="round"/>
<path d="M144.503 188.219C144.503 188.219 135.952 175.95 125.543 174.835C115.133 173.72 102.493 182.27 102.121 185.245C101.75 188.219 99.1471 204.205 101.006 206.435C102.865 208.666 109.928 210.525 123.684 206.064C137.439 201.602 143.016 196.026 144.503 188.219Z" fill="white"/>
<path d="M109.72 206.049C109.72 206.049 106.746 197.543 108.233 194.584C109.72 191.624 115.669 187.148 119.342 182.687C123.015 178.226 110.672 185.2 110.077 182.687C109.616 180.664 116.605 176.62 119.357 175.118C110.702 176.783 102.419 182.806 102.121 185.2C101.75 188.174 99.1471 204.16 101.006 206.391C101.958 207.536 104.322 208.592 108.263 208.726C109.155 207.194 109.72 206.049 109.72 206.049Z" fill="#FF7F2C"/>
<path opacity="0.5" d="M109.72 206.049C109.72 206.049 106.746 197.543 108.233 194.584C109.72 191.624 115.669 187.148 119.342 182.687C123.015 178.226 110.672 185.2 110.077 182.687C109.616 180.664 116.605 176.62 119.357 175.118C110.702 176.783 102.419 182.806 102.121 185.2C101.75 188.174 99.1471 204.16 101.006 206.391C101.958 207.536 104.322 208.592 108.263 208.726C109.155 207.194 109.72 206.049 109.72 206.049Z" fill="white"/>
<path d="M144.503 188.219C144.503 188.219 135.952 175.95 125.543 174.835C115.133 173.72 102.493 182.27 102.121 185.245C101.75 188.219 99.1471 204.205 101.006 206.435C102.865 208.666 109.928 210.525 123.684 206.064C137.439 201.602 143.016 196.026 144.503 188.219Z" stroke="#263238" stroke-width="1.48708" stroke-linecap="round" stroke-linejoin="round"/>
<path d="M115.505 191.564C115.505 191.564 101.556 197.096 101.006 207.922C100.694 213.871 110.672 216.473 121.082 216.473C131.491 216.473 146.362 203.461 156.028 197.884C165.694 192.308 188 179.296 190.602 178.181C193.205 177.065 202.127 180.04 205.845 181.155C209.388 181.914 213.003 182.288 216.626 182.27C216.626 182.27 221.831 190.449 224.433 190.449C227.036 190.449 218.857 178.181 217.742 175.578C216.626 172.976 198.41 167.028 196.179 167.028C193.948 167.028 141.901 180.04 134.093 183.014C126.286 185.988 115.505 191.564 115.505 191.564Z" fill="white"/>
<path d="M144.667 190.018C165.917 179.385 196.179 167.028 196.179 167.028C193.948 167.028 141.901 180.04 134.093 183.014C126.286 185.988 115.505 191.564 115.505 191.564C115.505 191.564 101.556 197.096 101.006 207.922C100.694 213.871 110.672 216.473 121.082 216.473C131.491 216.473 146.362 203.461 156.028 197.884L161.887 194.494C147.685 196.293 128.695 197.989 144.667 190.018Z" fill="#FF7F2C"/>
<path opacity="0.5" d="M144.667 190.018C165.917 179.385 196.179 167.028 196.179 167.028C193.948 167.028 141.901 180.04 134.093 183.014C126.286 185.988 115.505 191.564 115.505 191.564C115.505 191.564 101.556 197.096 101.006 207.922C100.694 213.871 110.672 216.473 121.082 216.473C131.491 216.473 146.362 203.461 156.028 197.884L161.887 194.494C147.685 196.293 128.695 197.989 144.667 190.018Z" fill="white"/>
<path d="M115.505 191.564C115.505 191.564 101.556 197.096 101.006 207.922C100.694 213.871 110.672 216.473 121.082 216.473C131.491 216.473 146.362 203.461 156.028 197.884C165.694 192.308 188 179.296 190.602 178.181C193.205 177.065 202.127 180.04 205.845 181.155C209.388 181.914 213.003 182.288 216.626 182.27C216.626 182.27 221.831 190.449 224.433 190.449C227.036 190.449 218.857 178.181 217.742 175.578C216.626 172.976 198.41 167.028 196.179 167.028C193.948 167.028 141.901 180.04 134.093 183.014C126.286 185.988 115.505 191.564 115.505 191.564Z" stroke="#263238" stroke-width="1.48708" stroke-linecap="round" stroke-linejoin="round"/>
<path d="M224.24 108.883L212.909 172.605L294.698 172.976L306.862 112.541C306.963 112.008 306.948 111.459 306.817 110.933C306.686 110.406 306.443 109.914 306.104 109.49C305.765 109.066 305.338 108.721 304.853 108.477C304.368 108.234 303.836 108.099 303.293 108.08L228.047 105.82C227.151 105.791 226.274 106.084 225.576 106.646C224.877 107.208 224.403 108.002 224.24 108.883Z" fill="#F7F8FA" stroke="#263238" stroke-width="1.48708" stroke-linecap="round" stroke-linejoin="round"/>
<path d="M212.909 172.604L173.085 200.769L264.168 198.167L294.698 172.976L212.909 172.604Z" fill="white"/>
<path d="M212.909 172.604L173.085 200.769L264.168 198.167L294.698 172.976L212.909 172.604Z" fill="#FF7F2C"/>
<path opacity="0.5" d="M212.909 172.604L173.085 200.769L264.168 198.167L294.698 172.976L212.909 172.604Z" fill="white"/>
<path d="M212.909 172.604L173.085 200.769L264.168 198.167L294.698 172.976L212.909 172.604Z" stroke="#263238" stroke-width="1.48708" stroke-linecap="round" stroke-linejoin="round"/>
<path d="M243.022 200.487C243.022 200.487 275.738 171.86 308.082 162.194C340.426 152.528 347.117 154.016 346.374 168.515C345.63 183.014 330.016 258.855 319.606 278.187C309.197 297.519 296.185 332.837 296.557 339.529C296.929 346.22 309.569 365.924 320.722 372.988C331.875 380.051 330.76 388.602 323.696 390.089C316.632 391.576 308.453 394.179 284.288 378.564C260.123 362.95 250.086 340.644 251.573 335.067C253.06 329.491 268.674 322.055 274.994 310.902C281.314 299.749 291.724 258.111 292.467 239.151C293.071 227.181 295.581 215.384 299.903 204.204C299.903 204.204 259.008 211.64 247.111 219.075L243.022 200.487Z" fill="white"/>
<path d="M243.022 200.487C243.022 200.487 275.738 171.86 308.082 162.194C340.426 152.528 347.117 154.016 346.374 168.515C345.63 183.014 330.016 258.855 319.606 278.187C309.197 297.519 296.185 332.837 296.557 339.529C296.929 346.22 309.569 365.924 320.722 372.988C331.875 380.051 330.76 388.602 323.696 390.089C316.632 391.576 308.453 394.179 284.288 378.564C260.123 362.95 250.086 340.644 251.573 335.067C253.06 329.491 268.674 322.055 274.994 310.902C281.314 299.749 291.724 258.111 292.467 239.151C293.071 227.181 295.581 215.384 299.903 204.204C299.903 204.204 259.008 211.64 247.111 219.075L243.022 200.487Z" fill="#FF7F2C"/>
<path opacity="0.5" d="M243.022 200.487C243.022 200.487 275.738 171.86 308.082 162.194C340.426 152.528 347.117 154.016 346.374 168.515C345.63 183.014 330.016 258.855 319.606 278.187C309.197 297.519 296.185 332.837 296.557 339.529C296.929 346.22 309.569 365.924 320.722 372.988C331.875 380.051 330.76 388.602 323.696 390.089C316.632 391.576 308.453 394.179 284.288 378.564C260.123 362.95 250.086 340.644 251.573 335.067C253.06 329.491 268.674 322.055 274.994 310.902C281.314 299.749 291.724 258.111 292.467 239.151C293.071 227.181 295.581 215.384 299.903 204.204C299.903 204.204 259.008 211.64 247.111 219.075L243.022 200.487Z" fill="white"/>
<path d="M243.022 200.487C243.022 200.487 275.738 171.86 308.082 162.194C340.426 152.528 347.117 154.016 346.374 168.515C345.63 183.014 330.016 258.855 319.606 278.187C309.197 297.519 296.185 332.837 296.557 339.529C296.929 346.22 309.569 365.924 320.722 372.988C331.875 380.051 330.76 388.602 323.696 390.089C316.632 391.576 308.453 394.179 284.288 378.564C260.123 362.95 250.086 340.644 251.573 335.067C253.06 329.491 268.674 322.055 274.994 310.902C281.314 299.749 291.724 258.111 292.467 239.151C293.071 227.181 295.581 215.384 299.903 204.204C299.903 204.204 259.008 211.64 247.111 219.075L243.022 200.487Z" stroke="#263238" stroke-width="1.48708" stroke-linecap="round" stroke-linejoin="round"/>
<path d="M274.994 310.902C274.518 311.735 273.983 312.538 273.418 313.341C281.108 314.065 288.398 317.104 294.326 322.055C296.109 323.604 297.806 325.247 299.412 326.978C304.81 310.193 311.563 293.876 319.606 278.187C330.016 258.855 345.63 183.014 346.374 168.515C347.117 154.016 340.426 152.528 308.082 162.194C275.738 171.86 243.022 200.487 243.022 200.487L247.111 219.075C259.008 211.64 299.903 204.204 299.903 204.204C295.581 215.384 293.071 227.181 292.467 239.151C291.724 258.111 281.314 299.749 274.994 310.902Z" fill="white" stroke="#263238" stroke-width="1.48708" stroke-linecap="round" stroke-linejoin="round"/>
<path d="M274.994 310.902C274.518 311.735 273.983 312.538 273.418 313.341C281.108 314.065 288.398 317.104 294.326 322.055C296.109 323.604 297.806 325.247 299.412 326.978C306.535 317.401 314.55 287.198 323.592 274.766C346.954 242.66 345.63 183.014 346.374 168.515C347.117 154.016 340.426 152.528 308.082 162.194C275.738 171.86 243.022 200.487 243.022 200.487L247.111 219.075C259.008 211.64 299.903 204.204 299.903 204.204C295.581 215.384 293.071 227.181 292.467 239.151C291.724 258.111 281.314 299.749 274.994 310.902Z" fill="#263238"/>
<path opacity="0.53" d="M274.994 310.902C274.518 311.735 273.983 312.538 273.418 313.341C281.108 314.065 288.398 317.104 294.326 322.055C296.109 323.604 297.806 325.247 299.412 326.978C306.535 317.401 314.55 287.198 323.592 274.766C346.954 242.66 345.63 183.014 346.374 168.515C347.117 154.016 340.426 152.528 308.082 162.194C275.738 171.86 243.022 200.487 243.022 200.487L247.111 219.075C259.008 211.64 299.903 204.204 299.903 204.204C295.581 215.384 293.071 227.181 292.467 239.151C291.724 258.111 281.314 299.749 274.994 310.902Z" fill="white"/>
<path opacity="0.14" d="M330.655 166.551C330.075 161.272 272.57 185.616 248.316 196.114C244.955 198.791 243.022 200.486 243.022 200.486L247.111 219.075C259.008 211.64 299.903 204.204 299.903 204.204C295.581 215.383 293.071 227.18 292.467 239.151C291.724 258.111 281.314 299.749 274.994 310.902C274.518 311.735 273.983 312.538 273.418 313.341C277.513 313.78 281.521 314.817 285.314 316.419C294.222 297.414 303.814 275.301 308.349 258.007C316.528 226.778 331.399 173.243 330.655 166.551Z" fill="black"/>
<path d="M299.903 204.205C299.903 204.205 311.056 181.527 320.722 172.233" stroke="#263238" stroke-width="1.48708" stroke-linecap="round" stroke-linejoin="round"/>
<path d="M274.994 310.902C274.518 311.735 273.983 312.538 273.418 313.341C281.108 314.065 288.398 317.104 294.326 322.055C296.109 323.604 297.806 325.247 299.412 326.978C306.535 317.401 314.55 287.198 323.592 274.766C346.954 242.66 345.63 183.014 346.374 168.515C347.117 154.016 340.426 152.528 308.082 162.194C275.738 171.86 243.022 200.487 243.022 200.487L247.111 219.075C259.008 211.64 299.903 204.204 299.903 204.204C295.581 215.384 293.071 227.181 292.467 239.151C291.724 258.111 281.314 299.749 274.994 310.902Z" stroke="#263238" stroke-width="1.48708" stroke-linecap="round" stroke-linejoin="round"/>
<path d="M194.008 230.496C205.983 229.95 217.822 227.722 229.177 223.879C245.996 217.752 215.407 206.539 203.689 212.666C200.414 214.254 197.72 216.828 195.983 220.026C194.247 223.224 193.556 226.885 194.008 230.496Z" fill="#263238" stroke="#263238" stroke-width="1.48708" stroke-linecap="round" stroke-linejoin="round"/>
<path d="M145.618 206.435C145.618 206.435 133.722 213.127 129.632 220.563C125.543 227.998 143.135 240.385 161.723 239.642C180.312 238.898 214.396 218.704 214.396 218.704C214.396 218.704 214.767 251.419 221.088 263.316C227.408 275.213 256.406 304.211 267.931 311.646C279.455 319.081 318.119 346.964 324.068 351.425C330.016 355.887 341.169 364.066 343.771 364.437C346.374 364.809 373.513 331.722 379.833 320.569C386.153 309.415 391.73 285.994 389.499 280.789C387.269 275.584 382.807 280.046 378.346 283.763C373.885 287.481 332.99 314.62 329.272 316.479C327.242 317.522 325.128 318.392 322.952 319.081C322.952 319.081 289.493 287.109 271.648 262.572C253.803 238.036 252.316 206.435 245.624 194.539C238.932 182.642 229.266 177.437 214.767 178.924C200.268 180.411 170.155 188.219 145.618 206.435Z" fill="white"/>
<path d="M302.921 336.079C312.855 343.187 321.495 349.462 324.068 351.395C330.016 355.857 341.169 364.036 343.771 364.407C344.693 364.541 348.709 360.452 353.779 354.637L311.204 327.245L302.921 336.079Z" fill="#FF7F2C"/>
<path opacity="0.5" d="M302.921 336.079C312.855 343.187 321.495 349.462 324.068 351.395C330.016 355.857 341.169 364.036 343.771 364.407C344.693 364.541 348.709 360.452 353.779 354.637L311.204 327.245L302.921 336.079Z" fill="white"/>
<path d="M145.618 206.435C145.618 206.435 133.722 213.127 129.632 220.563C125.543 227.998 143.135 240.385 161.723 239.642C180.312 238.898 214.396 218.704 214.396 218.704C214.396 218.704 214.767 251.419 221.088 263.316C227.408 275.213 256.406 304.211 267.931 311.646C279.455 319.081 318.119 346.964 324.068 351.425C330.016 355.887 341.169 364.066 343.771 364.437C346.374 364.809 373.513 331.722 379.833 320.569C386.153 309.415 391.73 285.994 389.499 280.789C387.269 275.584 382.807 280.046 378.346 283.763C373.885 287.481 332.99 314.62 329.272 316.479C327.242 317.522 325.128 318.392 322.952 319.081C322.952 319.081 289.493 287.109 271.648 262.572C253.803 238.036 252.316 206.435 245.624 194.539C238.932 182.642 229.266 177.437 214.767 178.924C200.268 180.411 170.155 188.219 145.618 206.435Z" stroke="#263238" stroke-width="1.48708" stroke-linecap="round" stroke-linejoin="round"/>
<path d="M320.647 316.851C312.781 309.178 283.292 269.607 271.648 246.854C254.591 213.514 252.747 202.153 246.056 190.256C239.364 178.359 229.266 177.437 214.827 178.925C200.387 180.412 174.378 183.103 142.555 201.156C142.555 201.156 129.171 208.413 125.097 215.849C121.022 223.284 135.908 242.006 161.783 239.642C180.312 237.947 214.455 218.704 214.455 218.704C214.455 218.704 214.827 251.42 221.147 263.316C227.467 275.213 256.465 304.211 267.99 311.646C275.292 316.36 293.508 329.298 307.383 339.261C310.803 326.814 316.945 320.004 320.647 316.851Z" fill="#263238"/>
<path opacity="0.53" d="M320.647 316.851C312.781 309.178 283.292 269.607 271.648 246.854C254.591 213.514 252.747 202.153 246.056 190.256C239.364 178.359 229.266 177.437 214.827 178.925C200.387 180.412 174.378 183.103 142.555 201.156C142.555 201.156 129.171 208.413 125.097 215.849C121.022 223.284 135.908 242.006 161.783 239.642C180.312 237.947 214.455 218.704 214.455 218.704C214.455 218.704 214.827 251.42 221.147 263.316C227.467 275.213 256.465 304.211 267.99 311.646C275.292 316.36 293.508 329.298 307.383 339.261C310.803 326.814 316.945 320.004 320.647 316.851Z" fill="white"/>
<path opacity="0.14" d="M245.892 263.956C234.739 235.701 241.431 179.192 210.202 186.628C187.45 192.041 145.737 211.283 124.784 221.321C127.268 229.857 140.949 241.546 161.723 239.642C180.252 237.947 214.396 218.704 214.396 218.704C214.396 218.704 214.767 251.42 221.088 263.316C227.408 275.213 256.406 304.211 267.931 311.646C275.232 316.36 293.449 329.298 307.323 339.261C308.518 334.909 310.262 330.726 312.513 326.815C284.824 306.338 252.123 279.734 245.892 263.956Z" fill="black"/>
<path d="M214.396 218.704L213.28 199.372" stroke="#263238" stroke-width="1.48708" stroke-linecap="round" stroke-linejoin="round"/>
<path d="M320.647 316.851C312.781 309.178 283.292 269.607 271.648 246.854C254.591 213.514 252.747 202.153 246.056 190.256C239.364 178.359 229.266 177.437 214.827 178.925C200.387 180.412 174.378 183.103 142.555 201.156C142.555 201.156 129.171 208.413 125.097 215.849C121.022 223.284 135.908 242.006 161.783 239.642C180.312 237.947 214.455 218.704 214.455 218.704C214.455 218.704 214.827 251.42 221.147 263.316C227.467 275.213 256.465 304.211 267.99 311.646C275.292 316.36 293.508 329.298 307.383 339.261C310.803 326.814 316.945 320.004 320.647 316.851Z" stroke="#263238" stroke-width="1.48708" stroke-linecap="round" stroke-linejoin="round"/>
<path d="M324.068 351.426C330.016 355.887 341.169 364.066 343.771 364.437C346.374 364.809 373.513 331.722 379.833 320.569C386.153 309.416 391.73 285.994 389.499 280.789C387.268 275.585 382.807 280.046 378.346 283.763C373.885 287.481 332.99 314.62 329.272 316.479C328.291 316.97 327.399 317.371 326.611 317.713C325.54 319.751 324.231 322.903 325.123 325.03C326.611 328.376 332.931 332.837 332.931 332.837L321.673 349.7L324.068 351.426Z" fill="#263238" stroke="#263238" stroke-width="1.48708" stroke-linecap="round" stroke-linejoin="round"/>
<path d="M379.833 320.569C386.153 309.416 391.73 285.994 389.499 280.79C388.205 277.815 386.168 278.009 383.804 279.466C385.365 286.411 383.804 299.809 376.115 314.249C369.26 327.127 348.084 349.939 337.451 360.973C339.388 362.43 341.527 363.597 343.801 364.438C346.374 364.81 373.513 331.722 379.833 320.569Z" fill="white"/>
<path d="M344.143 364.333L344.47 364.17L344.56 364.096C344.739 363.993 344.909 363.874 345.065 363.739L345.244 363.59L345.675 363.233L345.913 363.01L346.493 362.475L346.85 362.133L347.34 361.657L347.757 361.24L348.173 360.824L349.229 359.709L349.407 359.53L350.062 358.816L350.33 358.534C351.103 357.686 351.936 356.764 352.798 355.783V355.708L353.72 354.667L347.222 350.489C343.534 354.504 340.098 358.132 337.362 360.973L338.358 361.627L338.507 361.716L339.429 362.296L340.916 363.144L341.333 363.382L341.749 363.605L342.225 363.843L342.537 363.991C342.686 364.066 342.84 364.13 342.998 364.185L343.221 364.274C343.393 364.345 343.573 364.395 343.757 364.423C343.849 364.447 343.946 364.447 344.039 364.423L344.143 364.333Z" fill="#FF7F2C"/>
<path opacity="0.5" d="M344.143 364.333L344.47 364.17L344.56 364.096C344.739 363.993 344.909 363.874 345.065 363.739L345.244 363.59L345.675 363.233L345.913 363.01L346.493 362.475L346.85 362.133L347.34 361.657L347.757 361.24L348.173 360.824L349.229 359.709L349.407 359.53L350.062 358.816L350.33 358.534C351.103 357.686 351.936 356.764 352.798 355.783V355.708L353.72 354.667L347.222 350.489C343.534 354.504 340.098 358.132 337.362 360.973L338.358 361.627L338.507 361.716L339.429 362.296L340.916 363.144L341.333 363.382L341.749 363.605L342.225 363.843L342.537 363.991C342.686 364.066 342.84 364.13 342.998 364.185L343.221 364.274C343.393 364.345 343.573 364.395 343.757 364.423C343.849 364.447 343.946 364.447 344.039 364.423L344.143 364.333Z" fill="white"/>
<path d="M379.833 320.569C386.153 309.416 391.73 285.994 389.499 280.79C388.205 277.815 386.168 278.009 383.804 279.466C385.365 286.411 383.804 299.809 376.115 314.249C369.26 327.127 348.084 349.939 337.451 360.973C339.388 362.43 341.527 363.597 343.801 364.438C346.374 364.809 373.513 331.722 379.833 320.569Z" stroke="#263238" stroke-width="1.48708" stroke-linecap="round" stroke-linejoin="round"/>
<path d="M320.722 372.988C309.569 365.924 296.929 346.22 296.557 339.529C296.54 338.796 296.6 338.063 296.735 337.343C294.515 337.413 292.372 338.178 290.608 339.529C286.031 335.376 281.188 331.526 276.109 328.004C272.02 325.648 267.437 324.279 262.726 324.003C257.328 328.465 252.316 332.034 251.528 335.067C250.041 340.644 260.079 362.95 284.244 378.564C308.409 394.179 316.588 391.576 323.651 390.089C330.715 388.602 331.875 380.051 320.722 372.988Z" fill="#263238" stroke="#263238" stroke-width="1.48708" stroke-linecap="round" stroke-linejoin="round"/>
<path d="M320.722 372.988C317.026 370.483 313.693 367.481 310.818 364.066C303.144 360.794 292.899 356.631 283.917 351.039C274.251 345.091 276.481 341.373 270.905 335.797C266.622 331.514 258.205 330.964 254.547 330.934C253.226 332.036 252.204 333.453 251.573 335.053C250.086 340.63 260.123 362.936 284.288 378.55C308.453 394.164 316.632 391.562 323.696 390.075C330.76 388.588 331.875 380.052 320.722 372.988Z" fill="white"/>
<path d="M320.722 372.988C317.026 370.483 313.693 367.481 310.818 364.066C303.144 360.794 292.899 356.631 283.917 351.039C274.251 345.091 276.481 341.373 270.905 335.797C266.622 331.514 258.205 330.964 254.547 330.934C253.226 332.036 252.204 333.453 251.573 335.053C250.086 340.63 260.123 362.936 284.288 378.55C308.453 394.164 316.632 391.562 323.696 390.075C330.76 388.588 331.875 380.052 320.722 372.988Z" fill="#FF7F2C"/>
<path opacity="0.5" d="M320.722 372.988C317.026 370.483 313.693 367.481 310.818 364.066C303.144 360.794 292.899 356.631 283.917 351.039C274.251 345.091 276.481 341.373 270.905 335.797C266.622 331.514 258.205 330.964 254.547 330.934C253.226 332.036 252.204 333.453 251.573 335.053C250.086 340.63 260.123 362.936 284.288 378.55C308.453 394.164 316.632 391.562 323.696 390.075C330.76 388.588 331.875 380.052 320.722 372.988Z" fill="white"/>
<path d="M320.722 372.988C317.026 370.483 313.693 367.481 310.818 364.066C303.144 360.794 292.899 356.631 283.917 351.039C274.251 345.091 276.481 341.373 270.905 335.797C266.622 331.514 258.205 330.964 254.547 330.934C253.226 332.036 252.204 333.453 251.573 335.053C250.086 340.63 260.123 362.936 284.288 378.55C308.453 394.164 316.632 391.562 323.696 390.075C330.76 388.588 331.875 380.052 320.722 372.988Z" stroke="#263238" stroke-width="1.48708" stroke-linecap="round" stroke-linejoin="round"/>
<path d="M322.581 375.59C312.915 370.014 293.211 366.296 280.571 357.746C267.93 349.195 271.276 341.759 261.982 335.811C260.497 334.701 258.718 334.053 256.867 333.947C255.016 333.841 253.174 334.283 251.573 335.216C250.279 341.016 260.346 363.069 284.288 378.565C308.23 394.06 316.632 391.577 323.696 390.09C328.395 389.093 330.432 384.989 328.008 380.275C326.492 378.403 324.654 376.817 322.581 375.59Z" fill="#263238"/>
<path opacity="0.53" d="M322.581 375.59C312.915 370.014 293.211 366.296 280.571 357.746C267.93 349.195 271.276 341.759 261.982 335.811C260.497 334.701 258.718 334.053 256.867 333.947C255.016 333.841 253.174 334.283 251.573 335.216C250.279 341.016 260.346 363.069 284.288 378.565C308.23 394.06 316.632 391.577 323.696 390.09C328.395 389.093 330.432 384.989 328.008 380.275C326.492 378.403 324.654 376.817 322.581 375.59Z" fill="white"/>
<path d="M322.581 375.59C312.915 370.014 293.211 366.296 280.571 357.746C267.93 349.195 271.276 341.759 261.982 335.811C260.497 334.701 258.718 334.053 256.867 333.947C255.016 333.841 253.174 334.283 251.573 335.216C250.279 341.016 260.346 363.069 284.288 378.565C308.23 394.06 316.632 391.577 323.696 390.09C328.395 389.093 330.432 384.989 328.008 380.275C326.492 378.403 324.654 376.817 322.581 375.59V375.59Z" stroke="#263238" stroke-width="1.48708" stroke-linecap="round" stroke-linejoin="round"/>
<path d="M137.32 304.479C137.32 304.479 144.458 295.809 145.47 302.441C146.481 309.074 144.964 321.297 139.863 325.878C134.763 330.458 132.22 323.335 132.22 323.335L135.283 319.26C135.283 319.26 137.826 324.361 139.863 316.197C141.901 308.033 135.789 309.059 135.789 309.059L137.32 304.479Z" fill="#22C314" stroke="#263238" stroke-width="1.48708" stroke-linecap="round" stroke-linejoin="round"/>
<path d="M131.863 337.105C127.64 340.228 113.869 340.228 109.661 337.105C100.738 330.487 102.225 298.515 102.225 298.515H139.194C139.194 298.515 140.8 330.487 131.863 337.105Z" fill="#22C314" stroke="#263238" stroke-width="1.48708" stroke-linecap="round" stroke-linejoin="round"/>
<path d="M106.27 292.24C106.27 288.225 110.003 288.225 110.003 284.195C110.003 280.165 106.27 280.165 106.27 276.15C106.27 272.135 110.003 272.12 110.003 268.09C110.003 264.06 106.27 264.06 106.27 260.03C106.27 256 110.003 256 110.003 251.97" stroke="#263238" stroke-width="1.48708" stroke-linecap="round" stroke-linejoin="round"/>
<path d="M119.044 292.24C119.044 289.266 122.777 289.266 122.777 286.128C122.777 282.99 119.044 283.08 119.044 280.016C119.044 276.953 122.777 276.968 122.777 273.904C122.777 270.841 119.044 270.841 119.044 267.778C119.044 264.714 122.777 264.729 122.777 261.666" stroke="#263238" stroke-width="1.48708" stroke-linecap="round" stroke-linejoin="round"/>
<path d="M133.097 292.24C133.097 288.225 136.815 288.225 136.815 284.195C136.815 280.165 133.097 280.165 133.097 276.15C133.097 272.135 136.815 272.12 136.815 268.09C136.815 264.06 133.097 264.06 133.097 260.03C133.097 256 136.815 256 136.815 251.97" stroke="#263238" stroke-width="1.48708" stroke-linecap="round" stroke-linejoin="round"/>
<path d="M139.224 298.515C139.224 299.452 130.956 300.196 120.74 300.196C110.523 300.196 102.255 299.452 102.255 298.515C102.255 297.578 110.523 296.835 120.74 296.835C130.956 296.835 139.224 297.578 139.224 298.515Z" fill="white" stroke="#263238" stroke-width="1.48708" stroke-linecap="round" stroke-linejoin="round"/>
<path d="M173.352 68.4047C173.352 68.4047 175.092 87.1865 175.821 93.12C176.55 99.0534 178.2 116.095 179.91 121.731C181.62 127.367 190.944 137.167 191.807 134.907C192.669 132.647 197.309 117.315 195.465 108.139C193.621 98.9642 193.056 91.1273 194.201 88.8075C195.346 86.4876 199.465 83.8852 199.465 83.8852C194.667 81.4278 190.006 78.7124 185.502 75.7509C178.929 71.3789 174.274 66.4269 173.352 68.4047Z" fill="white"/>
<path d="M197.22 84.8963L195.733 82.0114C192.997 80.5243 189.19 78.3234 185.576 75.8995C178.959 71.4383 174.304 66.4268 173.382 68.4641C173.382 68.4641 175.122 87.2459 175.851 93.1793C176.579 99.1128 178.23 116.155 179.94 121.791C180.523 123.439 181.329 125 182.334 126.43C180.535 115.218 182.483 94.9638 182.483 94.9638L197.22 84.8963Z" fill="#FF7F2C"/>
<path opacity="0.5" d="M197.22 84.8963L195.733 82.0114C192.997 80.5243 189.19 78.3234 185.576 75.8995C178.959 71.4383 174.304 66.4268 173.382 68.4641C173.382 68.4641 175.122 87.2459 175.851 93.1793C176.579 99.1128 178.23 116.155 179.94 121.791C180.523 123.439 181.329 125 182.334 126.43C180.535 115.218 182.483 94.9638 182.483 94.9638L197.22 84.8963Z" fill="white"/>
<path d="M173.352 68.4047C173.352 68.4047 175.092 87.1865 175.821 93.12C176.55 99.0534 178.2 116.095 179.91 121.731C181.62 127.367 190.944 137.167 191.807 134.907C192.669 132.647 197.309 117.315 195.465 108.139C193.621 98.9642 193.056 91.1273 194.201 88.8075C195.346 86.4876 199.465 83.8852 199.465 83.8852C194.667 81.4278 190.006 78.7124 185.502 75.7509C178.929 71.3789 174.274 66.4269 173.352 68.4047Z" stroke="#263238" stroke-width="1.48708" stroke-linecap="round" stroke-linejoin="round"/>
<path d="M172.668 71.1261C172.668 71.1261 183.375 80.0486 191.584 83.3202C199.793 86.5917 212.403 86.3836 214.202 82.1156C216.002 77.8477 211.08 44.0464 206.841 35.1537C202.603 26.261 198.082 26.1123 190.602 25.4282C183.122 24.7442 168.162 30.8412 165.53 38.0684C162.898 45.2956 165.902 55.5267 168.073 61.594C169.221 64.9424 170.764 68.1423 172.668 71.1261Z" fill="white"/>
<path d="M191.896 70.7243C188.104 59.482 187.152 41.7857 187.152 37.0717C187.152 33.4284 196.64 29.4281 200.967 27.7923C198.127 26.0376 194.826 25.8145 190.558 25.4279C183.122 24.7587 168.118 30.8409 165.486 38.0681C162.854 45.2953 165.857 55.5263 168.029 61.5936C169.177 64.9421 170.719 68.1419 172.624 71.1258C172.624 71.1258 183.331 80.0483 191.539 83.3198C197.228 85.4727 203.39 86.0632 209.384 85.03C203.51 82.8142 194.424 78.234 191.896 70.7243Z" fill="#FF7F2C"/>
<path opacity="0.5" d="M191.896 70.7243C188.104 59.482 187.152 41.7857 187.152 37.0717C187.152 33.4284 196.64 29.4281 200.967 27.7923C198.127 26.0376 194.826 25.8145 190.558 25.4279C183.122 24.7587 168.118 30.8409 165.486 38.0681C162.854 45.2953 165.857 55.5263 168.029 61.5936C169.177 64.9421 170.719 68.1419 172.624 71.1258C172.624 71.1258 183.331 80.0483 191.539 83.3198C197.228 85.4727 203.39 86.0632 209.384 85.03C203.51 82.8142 194.424 78.234 191.896 70.7243Z" fill="white"/>
<path d="M172.668 71.1261C172.668 71.1261 183.375 80.0486 191.584 83.3202C199.793 86.5917 212.403 86.3836 214.202 82.1156C216.002 77.8477 211.08 44.0464 206.841 35.1537C202.603 26.261 198.082 26.1123 190.602 25.4282C183.122 24.7442 168.162 30.8412 165.53 38.0684C162.898 45.2956 165.902 55.5267 168.073 61.594C169.221 64.9424 170.764 68.1423 172.668 71.1261V71.1261Z" stroke="#263238" stroke-width="1.48708" stroke-linecap="round" stroke-linejoin="round"/>
<path d="M207.644 49.0726C207.823 53.3553 205.131 56.9392 201.696 57.073C198.261 57.2069 195.257 53.861 195.093 49.6377C194.93 45.4144 197.607 41.771 201.042 41.6223C204.477 41.4736 207.481 44.7452 207.644 49.0726Z" stroke="#263238" stroke-width="1.48708" stroke-linecap="round" stroke-linejoin="round"/>
<path d="M216.061 47.4073C216.24 51.69 214.857 55.2144 212.983 55.2887C211.109 55.3631 209.444 51.9577 209.28 47.6749C209.117 43.3921 210.5 39.8529 212.373 39.7785C214.247 39.7042 215.898 43.1245 216.061 47.4073Z" stroke="#263238" stroke-width="1.48708" stroke-linecap="round" stroke-linejoin="round"/>
<path d="M208.09 47.4966C208.09 47.4966 220.374 49.8313 219.184 52.7906C217.994 55.7499 209.697 58.9471 209.697 58.9471" fill="white"/>
<path d="M208.09 47.4966C208.09 47.4966 220.374 49.8313 219.184 52.7906C217.994 55.7499 209.697 58.9471 209.697 58.9471" stroke="#263238" stroke-width="1.48708" stroke-linecap="round" stroke-linejoin="round"/>
<path d="M207.332 46.0985C207.332 46.0985 207.511 44.6114 209.399 45.5483" stroke="#263238" stroke-width="1.48708" stroke-linecap="round" stroke-linejoin="round"/>
<path d="M194.707 50.2329L172.371 59.0215" stroke="#263238" stroke-width="1.48708" stroke-linecap="round" stroke-linejoin="round"/>
<path d="M195.004 43.0056C195.474 41.9426 196.26 41.0499 197.255 40.4487C198.25 39.8475 199.406 39.5668 200.566 39.6449" stroke="#263238" stroke-width="2.97416" stroke-linecap="round" stroke-linejoin="round"/>
<path d="M209.875 39.7493L206.44 41.043" stroke="#263238" stroke-width="2.97416" stroke-linecap="round" stroke-linejoin="round"/>
<path d="M199.257 64.6874C199.257 64.6874 203.718 63.5274 206.246 66.1744" stroke="#263238" stroke-width="1.48708" stroke-linecap="round" stroke-linejoin="round"/>
<path d="M202.127 49.8459C202.336 51.3329 202.127 52.6118 201.518 52.6862C200.908 52.7605 200.373 51.6155 200.164 50.1135C199.956 48.6116 200.239 47.3624 200.789 47.2881C201.339 47.2137 201.934 48.3588 202.127 49.8459Z" fill="#263238"/>
<path d="M174.453 59.0809C174.453 59.0809 172.966 62.0551 177.159 62.2038C181.353 62.3525 184.208 60.3152 182.171 57.7425C180.133 55.1699 177.115 52.7608 180.223 49.4C183.331 46.0392 189.368 43.2138 185.978 39.4663C182.587 35.7189 170.111 39.1243 173.233 36.0907C176.356 33.0571 190.781 29.8896 197.265 30.2911C203.748 30.6926 215.853 25.6663 218.515 19.0934C221.177 12.5205 217.459 0.371079 208.745 1.02539C200.031 1.67971 193.532 9.39764 189.666 9.94786C185.799 10.4981 177.873 6.20042 171.226 9.94786C164.579 13.6953 164.356 24.4617 163.79 25.7852C163.225 27.1087 154.214 29.0717 152.622 38.1875C152.025 41.8626 152.28 45.6258 153.369 49.1866C154.457 52.7474 156.348 56.0105 158.898 58.724C162.631 62.7837 164.311 64.3303 164.311 64.3303L174.453 59.0809Z" fill="#263238" stroke="#263238" stroke-width="1.48708" stroke-linecap="round" stroke-linejoin="round"/>
<path d="M155.537 42.604C155.46 43.9874 155.791 45.363 156.489 46.5596" stroke="white" stroke-width="1.11531" stroke-linecap="round" stroke-linejoin="round"/>
<path d="M193.443 19.0631C193.443 19.0631 190.201 11.9697 198.469 11.9697C206.737 11.9697 207.927 22.3793 199.361 26.1564C190.796 29.9336 172.163 30.8853 162.11 35.3317C160.137 36.1039 158.382 37.344 156.994 38.9453" stroke="white" stroke-width="1.11531" stroke-linecap="round" stroke-linejoin="round"/>
<path d="M178.468 44.2551C175.494 45.3258 171.642 46.8129 167.731 48.6271C159.448 52.4787 161.218 56.3153 161.218 56.3153" stroke="white" stroke-width="1.11531" stroke-linecap="round" stroke-linejoin="round"/>
<path d="M183.985 42.4258C183.985 42.4258 183.256 42.634 182.022 43.0355" stroke="white" stroke-width="1.11531" stroke-linecap="round" stroke-linejoin="round"/>
<path d="M175.866 62.2632C175.866 62.2632 171.062 55.3335 166.006 58.1143C160.95 60.8951 164.876 70.7842 167.925 74.2194C170.973 77.6545 176.847 71.2452 177.457 69.6392" fill="white"/>
<path d="M175.866 62.2632C175.866 62.2632 171.062 55.3335 166.006 58.1143C160.95 60.8951 164.876 70.7842 167.925 74.2194C170.973 77.6545 176.847 71.2452 177.457 69.6392" fill="#FF7F2C"/>
<path opacity="0.5" d="M175.866 62.2632C175.866 62.2632 171.062 55.3335 166.006 58.1143C160.95 60.8951 164.876 70.7842 167.925 74.2194C170.973 77.6545 176.847 71.2452 177.457 69.6392" fill="white"/>
<path d="M175.866 62.2632C175.866 62.2632 171.062 55.3335 166.006 58.1143C160.95 60.8951 164.876 70.7842 167.925 74.2194C170.973 77.6545 176.847 71.2452 177.457 69.6392" stroke="#263238" stroke-width="1.48708" stroke-linecap="round" stroke-linejoin="round"/>
<path d="M115.208 55.9431H8.61384C4.40884 55.9431 1 59.352 1 63.557V141.48C1 145.685 4.40884 149.094 8.61384 149.094H115.208C119.413 149.094 122.821 145.685 122.821 141.48V63.557C122.821 59.352 119.413 55.9431 115.208 55.9431Z" fill="white" stroke="#263238" stroke-width="1.48708" stroke-linecap="round" stroke-linejoin="round"/>
<path d="M120.502 122.951L191.881 141.539L120.502 106.593" fill="white"/>
<path d="M120.502 122.951L191.881 141.539L120.502 106.593" stroke="#263238" stroke-width="1.48708" stroke-linecap="round" stroke-linejoin="round"/>
<path d="M39.5004 64.895H10.8445V140.141H39.5004V64.895Z" fill="#FF7F2C" stroke="#263238" stroke-width="1.48708" stroke-linecap="round" stroke-linejoin="round"/>
<path d="M116.501 64.895H112.918V140.141H116.501V64.895Z" fill="#FF7F2C" stroke="#263238" stroke-width="1.48708" stroke-linecap="round" stroke-linejoin="round"/>
<path d="M116.501 99.2915H112.918V105.716H116.501V99.2915Z" fill="#263238" stroke="#263238" stroke-width="1.48708" stroke-linecap="round" stroke-linejoin="round"/>
<path d="M48.4675 66.6797H104.902" stroke="#263238" stroke-width="1.48708" stroke-linecap="round" stroke-linejoin="round"/>
<path d="M48.4675 74.7397H104.902" stroke="#263238" stroke-width="1.48708" stroke-linecap="round" stroke-linejoin="round"/>
<path d="M48.4675 82.8147H104.902" stroke="#263238" stroke-width="1.48708" stroke-linecap="round" stroke-linejoin="round"/>
<path d="M48.4675 90.8745H104.902" stroke="#263238" stroke-width="1.48708" stroke-linecap="round" stroke-linejoin="round"/>
<path d="M48.4675 110.578H104.902" stroke="#263238" stroke-width="1.48708" stroke-linecap="round" stroke-linejoin="round"/>
<path d="M48.4675 117.746H104.902" stroke="#263238" stroke-width="1.48708" stroke-linecap="round" stroke-linejoin="round"/>
<path d="M48.4675 124.914H104.902" stroke="#263238" stroke-width="1.48708" stroke-linecap="round" stroke-linejoin="round"/>
<path d="M48.4675 139.785H104.902" stroke="#263238" stroke-width="1.48708" stroke-linecap="round" stroke-linejoin="round"/>
<path d="M10.8445 140.126L39.5153 64.895" stroke="#263238" stroke-width="1.48708" stroke-linecap="round" stroke-linejoin="round"/>
</svg>
