<svg width="20" height="20" viewBox="0 0 20 20" fill="none" xmlns="http://www.w3.org/2000/svg">
<mask id="mask0_95_745" style="mask-type:alpha" maskUnits="userSpaceOnUse" x="0" y="0" width="20" height="20">
<rect width="20" height="20" fill="#D9D9D9"/>
</mask>
<g mask="url(#mask0_95_745)">
<path d="M4.99992 18.3332C4.54159 18.3332 4.14936 18.1701 3.82325 17.844C3.49659 17.5173 3.33325 17.1248 3.33325 16.6665V3.33317C3.33325 2.87484 3.49659 2.48234 3.82325 2.15567C4.14936 1.82956 4.54159 1.6665 4.99992 1.6665H14.9999C15.4583 1.6665 15.8508 1.82956 16.1774 2.15567C16.5035 2.48234 16.6666 2.87484 16.6666 3.33317V16.6665C16.6666 17.1248 16.5035 17.5173 16.1774 17.844C15.8508 18.1701 15.4583 18.3332 14.9999 18.3332H4.99992ZM4.99992 16.6665H14.9999V3.33317H13.3333V9.1665L11.2499 7.9165L9.16658 9.1665V3.33317H4.99992V16.6665Z" fill="#1C1B1F"/>
</g>
</svg>
