<svg width="20" height="20" viewBox="0 0 20 20" fill="none" xmlns="http://www.w3.org/2000/svg">
<mask id="mask0_95_778" style="mask-type:alpha" maskUnits="userSpaceOnUse" x="0" y="0" width="20" height="20">
<rect width="20" height="20" fill="#D9D9D9"/>
</mask>
<g mask="url(#mask0_95_778)">
<path d="M10.0001 17.5002L8.79175 16.4168C7.38897 15.1529 6.22925 14.0627 5.31258 13.146C4.39591 12.2293 3.66675 11.4063 3.12508 10.6768C2.58341 9.94794 2.20508 9.27794 1.99008 8.66683C1.77453 8.05572 1.66675 7.43072 1.66675 6.79183C1.66675 5.48627 2.10425 4.396 2.97925 3.521C3.85425 2.646 4.94453 2.2085 6.25008 2.2085C6.9723 2.2085 7.6598 2.36127 8.31258 2.66683C8.96536 2.97238 9.52786 3.40294 10.0001 3.9585C10.4723 3.40294 11.0348 2.97238 11.6876 2.66683C12.3404 2.36127 13.0279 2.2085 13.7501 2.2085C15.0556 2.2085 16.1459 2.646 17.0209 3.521C17.8959 4.396 18.3334 5.48627 18.3334 6.79183C18.3334 7.43072 18.2259 8.05572 18.0109 8.66683C17.7954 9.27794 17.4167 9.94794 16.8751 10.6768C16.3334 11.4063 15.6042 12.2293 14.6876 13.146C13.7709 14.0627 12.6112 15.1529 11.2084 16.4168L10.0001 17.5002ZM10.0001 15.2502C11.3334 14.0557 12.4306 13.0313 13.2917 12.1768C14.1529 11.3229 14.8334 10.5802 15.3334 9.9485C15.8334 9.31627 16.1806 8.7535 16.3751 8.26016C16.5695 7.76738 16.6667 7.27794 16.6667 6.79183C16.6667 5.9585 16.389 5.26405 15.8334 4.7085C15.2779 4.15294 14.5834 3.87516 13.7501 3.87516C13.0973 3.87516 12.4931 4.05905 11.9376 4.42683C11.382 4.79516 11.0001 5.26405 10.7917 5.8335H9.20842C9.00008 5.26405 8.61814 4.79516 8.06258 4.42683C7.50703 4.05905 6.90286 3.87516 6.25008 3.87516C5.41675 3.87516 4.7223 4.15294 4.16675 4.7085C3.61119 5.26405 3.33341 5.9585 3.33341 6.79183C3.33341 7.27794 3.43064 7.76738 3.62508 8.26016C3.81953 8.7535 4.16675 9.31627 4.66675 9.9485C5.16675 10.5802 5.8473 11.3229 6.70842 12.1768C7.56953 13.0313 8.66675 14.0557 10.0001 15.2502Z" fill="#1C1B1F"/>
</g>
</svg>
