<svg width="18" height="20" viewBox="0 0 18 20" fill="none" xmlns="http://www.w3.org/2000/svg">
<path d="M8.0375 15.821L4.78333 12.5668L6.1125 11.2377L8.0375 13.1627L11.8875 9.31266L13.2167 10.6418L8.0375 15.821ZM2.58333 19.1668C2.07917 19.1668 1.64742 18.9875 1.28808 18.6287C0.929361 18.2694 0.75 17.8377 0.75 17.3335V4.50016C0.75 3.996 0.929361 3.56455 1.28808 3.20583C1.64742 2.8465 2.07917 2.66683 2.58333 2.66683H3.5V0.833496H5.33333V2.66683H12.6667V0.833496H14.5V2.66683H15.4167C15.9208 2.66683 16.3526 2.8465 16.7119 3.20583C17.0706 3.56455 17.25 3.996 17.25 4.50016V17.3335C17.25 17.8377 17.0706 18.2694 16.7119 18.6287C16.3526 18.9875 15.9208 19.1668 15.4167 19.1668H2.58333ZM2.58333 17.3335H15.4167V8.16683H2.58333V17.3335ZM2.58333 6.3335H15.4167V4.50016H2.58333V6.3335Z" fill="#1C1B1F"/>
</svg>
