<svg width="16" height="20" viewBox="0 0 16 20" fill="none" xmlns="http://www.w3.org/2000/svg">
<path d="M7.99984 10.0002C8.504 10.0002 8.93575 9.8205 9.29509 9.46116C9.65381 9.10244 9.83317 8.671 9.83317 8.16683C9.83317 7.66266 9.65381 7.23091 9.29509 6.87158C8.93575 6.51286 8.504 6.3335 7.99984 6.3335C7.49567 6.3335 7.06423 6.51286 6.7055 6.87158C6.34617 7.23091 6.1665 7.66266 6.1665 8.16683C6.1665 8.671 6.34617 9.10244 6.7055 9.46116C7.06423 9.8205 7.49567 10.0002 7.99984 10.0002ZM7.99984 16.7377C9.86373 15.0266 11.2464 13.4719 12.1478 12.0737C13.0491 10.6761 13.4998 9.43488 13.4998 8.35016C13.4998 6.68488 12.9688 5.32119 11.9067 4.25908C10.8452 3.19758 9.54289 2.66683 7.99984 2.66683C6.45678 2.66683 5.1542 3.19758 4.09209 4.25908C3.03059 5.32119 2.49984 6.68488 2.49984 8.35016C2.49984 9.43488 2.95053 10.6761 3.85192 12.0737C4.75331 13.4719 6.13595 15.0266 7.99984 16.7377ZM7.99984 19.1668C5.54011 17.0738 3.70311 15.1295 2.48884 13.3341C1.27395 11.5392 0.666504 9.87794 0.666504 8.35016C0.666504 6.0585 1.40381 4.2328 2.87842 2.87308C4.35242 1.51336 6.05956 0.833496 7.99984 0.833496C9.94011 0.833496 11.6473 1.51336 13.1213 2.87308C14.5959 4.2328 15.3332 6.0585 15.3332 8.35016C15.3332 9.87794 14.726 11.5392 13.5118 13.3341C12.2969 15.1295 10.4596 17.0738 7.99984 19.1668Z" fill="#1C1B1F"/>
</svg>
