<svg width="20" height="20" viewBox="0 0 20 20" fill="none" xmlns="http://www.w3.org/2000/svg">
<path d="M13.0252 14.3085L14.3085 13.0252L10.9168 9.6335V5.41683H9.0835V10.3668L13.0252 14.3085ZM10.0002 19.1668C8.73211 19.1668 7.54044 18.9261 6.42516 18.4445C5.30989 17.9636 4.33975 17.3106 3.51475 16.4856C2.68975 15.6606 2.03677 14.6904 1.55583 13.5752C1.07427 12.4599 0.833496 11.2682 0.833496 10.0002C0.833496 8.73211 1.07427 7.54044 1.55583 6.42516C2.03677 5.30989 2.68975 4.33975 3.51475 3.51475C4.33975 2.68975 5.30989 2.03647 6.42516 1.55491C7.54044 1.07397 8.73211 0.833496 10.0002 0.833496C11.2682 0.833496 12.4599 1.07397 13.5752 1.55491C14.6904 2.03647 15.6606 2.68975 16.4856 3.51475C17.3106 4.33975 17.9636 5.30989 18.4445 6.42516C18.9261 7.54044 19.1668 8.73211 19.1668 10.0002C19.1668 11.2682 18.9261 12.4599 18.4445 13.5752C17.9636 14.6904 17.3106 15.6606 16.4856 16.4856C15.6606 17.3106 14.6904 17.9636 13.5752 18.4445C12.4599 18.9261 11.2682 19.1668 10.0002 19.1668ZM10.0002 17.3335C12.0321 17.3335 13.7625 16.6194 15.1912 15.1912C16.6194 13.7625 17.3335 12.0321 17.3335 10.0002C17.3335 7.96822 16.6194 6.23786 15.1912 4.80908C13.7625 3.38091 12.0321 2.66683 10.0002 2.66683C7.96822 2.66683 6.23816 3.38091 4.81 4.80908C3.38122 6.23786 2.66683 7.96822 2.66683 10.0002C2.66683 12.0321 3.38122 13.7625 4.81 15.1912C6.23816 16.6194 7.96822 17.3335 10.0002 17.3335Z" fill="#1C1B1F"/>
</svg>
